<svg width="80" height="80" xmlns="http://www.w3.org/2000/svg"><defs><linearGradient x1="80.874%" y1="15.69%" x2="43.732%" y2="97.348%" id="a"><stop stop-color="#0052CC" offset="0%"/><stop stop-color="#2684FF" offset="92%"/></linearGradient></defs><g fill-rule="nonzero" fill="none"><path d="M23.562 37.26a2.268 2.268 0 00-3.173-.427 2.35 2.35 0 00-.663.827L.246 76.63A2.329 2.329 0 002.33 80h27.14a2.236 2.236 0 002.082-1.288c5.857-12.098 2.307-30.493-7.99-41.452z" fill="url(#a)"/><path d="M37.88 1.797a51.408 51.408 0 00-3.003 50.745l13.085 26.17A2.328 2.328 0 0050.044 80h27.134a2.323 2.323 0 002.329-2.329c0-.36-.082-.717-.241-1.04L41.84 1.785a2.192 2.192 0 00-3.962 0v.011z" fill="#2684FF"/></g></svg>