<svg width="80" height="59" xmlns="http://www.w3.org/2000/svg" xmlns:xlink="http://www.w3.org/1999/xlink"><defs><path id="a" d="M0 .074h79.89v58.921H0z"/></defs><g fill="none" fill-rule="evenodd"><mask id="b" fill="#fff"><use xlink:href="#a"/></mask><path d="M79.89 28.22v2.63c-.025.142-.056.282-.073.424-.136 1.145-.224 2.296-.412 3.431-.614 3.691-1.942 7.122-3.914 10.294-2.996 4.815-7.046 8.488-12.135 10.995a28.385 28.385 0 01-9.36 2.763c-.724.083-1.447.158-2.17.238H23.76c-.141-.027-.282-.069-.425-.077a23.934 23.934 0 01-8.148-1.959c-5.65-2.472-9.863-6.48-12.62-11.995a23.595 23.595 0 01-2.332-7.76c-.08-.656-.157-1.312-.235-1.969v-2.551c.027-.142.068-.283.077-.425a23.51 23.51 0 011.535-7.121c2.384-6.157 6.539-10.724 12.443-13.68 3.064-1.534 6.33-2.34 9.744-2.519a27.067 27.067 0 015.006.23c.15.02.367-.047.472-.154a29.595 29.595 0 018.18-5.928C40.434 1.63 43.567.69 46.864.314c.776-.089 1.554-.162 2.33-.242h2.394c.156.024.313.052.47.07 1.185.138 2.377.225 3.552.422 3.663.614 7.074 1.93 10.23 3.883 4.84 2.996 8.528 7.05 11.047 12.156a28.318 28.318 0 012.765 9.367c.086.75.159 1.5.238 2.25M35.22 11.2c.049.064.06.093.081.103 1.643.81 3.214 1.76 4.694 2.839.094.067.325.04.438-.032 4.069-2.578 8.48-3.468 13.218-2.627 4.643.823 8.42 3.143 11.307 6.848 3.27 4.193 4.515 8.934 3.613 14.21-.605 3.535-2.021 6.707-4.429 9.364-4.392 4.845-9.892 6.848-16.367 6-3.986-.522-7.427-2.242-10.275-5.12-3.655-3.692-7.334-7.36-11-11.042-.488-.49-1.032-.885-1.735-.97-1.23-.151-2.344.462-2.875 1.566-.473.986-.412 2.097.615 3.107 4.086 4.011 8.137 8.06 12.219 12.075a19.73 19.73 0 002.241 1.908c2.982 2.165 6.344 3.363 9.985 3.845 2.858.377 5.693.296 8.506-.336 5.367-1.206 9.813-3.945 13.314-8.172 2.891-3.492 4.64-7.506 5.25-12.012.353-2.57.279-5.18-.219-7.725-.812-4.163-2.573-7.887-5.394-11.057C63.023 7.927 56.25 5.23 48.19 5.832c-3.1.23-6.033 1.141-8.792 2.586A23.201 23.201 0 0035.22 11.2m-1.972 42.198l-.332-.31c-1.67-1.578-3.35-3.145-5.001-4.743-.32-.309-.614-.46-1.066-.45-1.672.042-3.346.049-4.994-.323-8.192-1.853-12.95-10.76-9.93-18.599 2.381-6.18 8.974-9.943 15.476-8.783 2.914.52 5.472 1.754 7.572 3.919 2.56 2.643 5.197 5.21 7.785 7.827.589.596 1.266.868 2.082.751 1.054-.15 1.894-.653 2.275-1.687.374-1.018.193-1.982-.578-2.762-2.716-2.752-5.368-5.573-8.194-8.208C32.863 14.92 26.4 13.4 19.251 15.573 9.636 18.494 4.008 28.423 6.205 38.22c2.002 8.927 9.81 15.192 18.944 15.2 2.55.002 5.102.001 7.653 0 .126 0 .252-.012.447-.021" fill="#DA1F26" fill-rule="nonzero" mask="url(#b)"/></g></svg>