<svg width="84" height="81" xmlns="http://www.w3.org/2000/svg" xmlns:xlink="http://www.w3.org/1999/xlink"><defs><linearGradient x1="8.683%" y1="1.726%" x2="50%" y2="98.274%" id="a"><stop stop-color="#00F3FF" offset="0%"/><stop stop-color="#00A8FC" offset="35.829%"/><stop stop-color="#0048DF" offset="100%"/></linearGradient><linearGradient x1="50%" y1="0%" x2="50%" y2="100%" id="f"><stop stop-color="#FFF" offset="0%"/><stop stop-color="#FFF" offset="48.973%"/><stop stop-color="#D9F3FF" offset="100%"/></linearGradient><linearGradient x1="100%" y1="50%" x2="12.228%" y2="48.401%" id="h"><stop stop-color="#8DE4FF" offset="0%"/><stop stop-color="#30CEFF" offset="100%"/></linearGradient><linearGradient x1="100%" y1="50%" x2="11.353%" y2="50%" id="i"><stop stop-color="#00C5FF" offset="0%"/><stop stop-color="#009AFF" offset="100%"/></linearGradient><linearGradient x1="50%" y1="0%" x2="50%" y2="100%" id="j"><stop stop-color="#005AFF" offset="0%"/><stop stop-color="#008DFF" offset="100%"/></linearGradient><filter x="-.8%" y="-.8%" width="101.7%" height="101.7%" filterUnits="objectBoundingBox" id="c"><feGaussianBlur stdDeviation=".5" in="SourceAlpha" result="shadowBlurInner1"/><feOffset in="shadowBlurInner1" result="shadowOffsetInner1"/><feComposite in="shadowOffsetInner1" in2="SourceAlpha" operator="arithmetic" k2="-1" k3="1" result="shadowInnerInner1"/><feColorMatrix values="0 0 0 0 1 0 0 0 0 1 0 0 0 0 1 0 0 0 0.47826087 0" in="shadowInnerInner1"/></filter><filter x="-16.9%" y="-11.9%" width="137.2%" height="137.3%" filterUnits="objectBoundingBox" id="d"><feOffset dx="1" dy="4" in="SourceAlpha" result="shadowOffsetOuter1"/><feGaussianBlur stdDeviation="3" in="shadowOffsetOuter1" result="shadowBlurOuter1"/><feColorMatrix values="0 0 0 0 0 0 0 0 0 0 0 0 0 0 0 0 0 0 1 0" in="shadowBlurOuter1"/></filter><filter x="-10.1%" y="-5.1%" width="123.7%" height="123.7%" filterUnits="objectBoundingBox" id="g"><feGaussianBlur stdDeviation=".5" in="SourceAlpha" result="shadowBlurInner1"/><feOffset dy="1" in="shadowBlurInner1" result="shadowOffsetInner1"/><feComposite in="shadowOffsetInner1" in2="SourceAlpha" operator="arithmetic" k2="-1" k3="1" result="shadowInnerInner1"/><feColorMatrix values="0 0 0 0 1 0 0 0 0 1 0 0 0 0 1 0 0 0 0.260869565 0" in="shadowInnerInner1"/></filter><path d="M9.537 19.225a6.274 6.274 0 016.511-6.306l45.054 1.453c3.593.116 6.642 3.132 6.809 6.717l2.064 44.318c.167 3.594-2.608 6.53-6.202 6.559l-47.772.379a6.444 6.444 0 01-6.5-6.464l.036-46.656z" id="b"/><path d="M16.435 10.306a5.85 5.85 0 015.857-5.855l47.442-.018a5.866 5.866 0 015.864 5.86l.017 47.08a6.048 6.048 0 01-6.076 6.06l-47.411-.154a5.671 5.671 0 01-5.648-5.658l-.045-47.315z" id="e"/></defs><g fill="none" fill-rule="evenodd"><g transform="rotate(-24 41.094 47.835)"><use fill="url(#a)" xlink:href="#b"/><use fill="#000" filter="url(#c)" xlink:href="#b"/></g><g transform="rotate(-9 51.378 47.139)"><use fill="#000" filter="url(#d)" xlink:href="#e"/><use fill="url(#f)" xlink:href="#e"/><use fill="#000" filter="url(#g)" xlink:href="#e"/></g><path fill="url(#h)" d="M11.956 11.71h11.957V0H.217v.107L11.956 11.71z" transform="rotate(-9 145.733 -177.19)"/><path fill="url(#i)" d="M11.958 11.71H0v11.71h23.696v-.107L11.958 11.71z" transform="rotate(-9 145.733 -177.19)"/><path fill="url(#j)" d="M0 23.42h11.848v11.82z" transform="rotate(-9 145.733 -177.19)"/></g></svg>