<svg width="80" height="80" xmlns="http://www.w3.org/2000/svg"><defs><linearGradient x1="0%" y1="50%" x2="100%" y2="50%" id="a"><stop stop-color="#FFF" stop-opacity=".1" offset="0%"/><stop stop-color="#FFF" stop-opacity="0" offset="100%"/></linearGradient><linearGradient x1="25.192%" y1="25.24%" x2="60.753%" y2="96.5%" id="b"><stop stop-color="#BF360C" stop-opacity=".2" offset="0%"/><stop stop-color="#BF360C" stop-opacity=".02" offset="100%"/></linearGradient><linearGradient x1="33.532%" y1="33.573%" x2="98.22%" y2="98.261%" id="c"><stop stop-color="#FFF" stop-opacity=".1" offset="0%"/><stop stop-color="#FFF" stop-opacity="0" offset="100%"/></linearGradient></defs><g fill-rule="nonzero" fill="none"><path d="M73.472 0H58.914c-3.521 0-6.412 2.89-6.412 6.412v18.814H31.428c-3.416 0-6.202 2.786-6.202 6.254v21.075H6.254A6.235 6.235 0 000 58.809v14.715c0 3.469 2.785 6.254 6.254 6.36h67.27c3.521 0 6.412-2.891 6.412-6.412V6.412C79.883 2.89 76.993 0 73.472 0z" fill="url(#a)"/><path d="M73.472 0H58.914c-3.521 0-6.412 2.89-6.412 6.412v18.814H31.428c-3.416 0-6.202 2.786-6.202 6.254v21.075H6.254A6.235 6.235 0 000 58.809v14.715c0 3.469 2.785 6.254 6.254 6.36h67.27c3.521 0 6.412-2.891 6.412-6.412V6.412C79.883 2.89 76.993 0 73.472 0z" fill="url(#a)"/><path d="M73.472 0H59.019c-3.521 0-6.412 2.89-6.412 6.412v73.471h20.865c3.52 0 6.411-2.89 6.411-6.411V6.412C79.883 2.89 76.993 0 73.472 0z" fill="#F57C00"/><path d="M25.226 31.533v21.022H6.306C2.839 52.555 0 55.393 0 58.86v14.716c0 3.468 2.838 6.306 6.307 6.306h46.248V25.226H31.533c-3.469 0-6.307 2.838-6.307 6.307z" fill="#FFC107"/><path d="M52.555 25.226v54.657h20.864c3.521 0 6.412-2.89 6.412-6.411V52.555L52.555 25.226z" fill="url(#b)"/><path d="M31.533 25.752h21.022v-.526H31.533c-3.469 0-6.307 2.838-6.307 6.307v.525c0-3.468 2.838-6.306 6.307-6.306zM6.307 53.08h18.92v-.525H6.306C2.838 52.555 0 55.393 0 58.86v.526c0-3.469 2.838-6.307 6.307-6.307zM73.472 0H59.019c-3.521 0-6.412 2.89-6.412 6.412v.525c0-3.52 2.89-6.411 6.412-6.411h14.453c3.52 0 6.411 2.89 6.411 6.411v-.525C79.883 2.89 76.993 0 73.472 0z" fill="#FFF" opacity=".2"/><path d="M73.472 79.358H6.307C2.838 79.358 0 76.52 0 73.05v.526c0 3.468 2.838 6.306 6.307 6.306h67.112c3.521 0 6.412-2.89 6.412-6.411v-.526c.052 3.521-2.838 6.412-6.36 6.412z" fill="#BF360C" opacity=".2"/><path d="M73.472 0H59.019c-3.521 0-6.412 2.89-6.412 6.412v18.814H31.585c-3.468 0-6.306 2.838-6.306 6.307v21.022H6.307C2.838 52.555 0 55.393 0 58.86v14.716c0 3.468 2.838 6.306 6.307 6.306h67.165c3.52 0 6.411-2.89 6.411-6.411V6.412C79.883 2.89 76.993 0 73.472 0z" fill="url(#c)"/></g></svg>