<svg width="80" height="80" xmlns="http://www.w3.org/2000/svg"><g fill-rule="nonzero" fill="none"><path d="M72.748 0H7.252A7.252 7.252 0 000 7.252v65.496A7.252 7.252 0 007.252 80h65.496A7.252 7.252 0 0080 72.748V7.252A7.252 7.252 0 0072.748 0" fill="#DC395F"/><path d="M26.736 25.17c2.66 0 4.887-2.084 4.887-4.816 0-2.73-2.228-4.814-4.887-4.814-2.66 0-4.887 2.084-4.887 4.814 0 2.732 2.228 4.816 4.887 4.816M16.603 50.958a16.54 16.54 0 00-.431 3.617c0 4.241 2.3 7.057 7.186 7.057 4.054 0 7.34-2.407 9.705-6.294l-1.444 5.798h8.048l4.6-18.45c1.15-4.671 3.378-7.096 6.756-7.096 2.66 0 4.312 1.654 4.312 4.384 0 .791-.072 1.653-.36 2.587l-2.371 8.48a12.747 12.747 0 00-.503 3.594c0 4.026 2.371 6.97 7.33 6.97 4.24 0 7.618-2.73 9.487-9.27l-3.162-1.22c-1.581 4.382-2.947 5.174-4.025 5.174-1.078 0-1.653-.718-1.653-2.155 0-.647.144-1.365.36-2.229l2.3-8.262c.574-1.94.79-3.66.79-5.24 0-6.181-3.737-9.407-8.265-9.407-4.24 0-8.552 3.825-10.708 7.85l1.58-7.225H33.848l-1.725 6.364h5.75L34.33 50.16c-2.78 6.18-7.888 6.28-8.529 6.137-1.052-.237-1.725-.637-1.725-2.005 0-.789.144-1.922.503-3.289l5.39-21.382H16.317l-1.725 6.364h5.677l-3.665 14.973" fill="#FFF"/></g></svg>