<svg width="80" height="29" xmlns="http://www.w3.org/2000/svg"><path d="M27.34 28.044l-4.395-.967V15.824c0-1.934-1.407-3.34-3.516-3.34-2.11 0-3.517 1.406-3.517 3.34v12.22l-4.396-.967V15.824c0-1.934-1.494-3.34-3.516-3.34-2.198 0-3.604 1.406-3.604 3.34v12.22L0 27.077V9.407l4.396-.88v2.022C5.626 9.055 7.56 8.176 9.67 8.176a7.13 7.13 0 014.835 1.934C16 8.703 17.67 8.176 19.78 8.176c3.077 0 7.56 2.11 7.56 7.824v12.044zm42.638.088A10.018 10.018 0 0080 18.11c0-5.45-4.484-9.934-10.022-9.934-5.626 0-10.11 4.483-10.11 9.934 0 5.538 4.484 10.022 10.11 10.022zm0-4.132a5.89 5.89 0 01-5.89-5.89c0-3.165 2.637-5.802 5.89-5.802 3.165 0 5.802 2.637 5.802 5.802 0 3.253-2.637 5.89-5.802 5.89zm-16-15.473l2.55-.44v4.572l-2.55.44c-2.198.44-3.604 1.582-3.604 4.044v10.813l-4.396-.88V16.44c0-5.275 3.165-6.858 8-7.913zM34.725.791c-1.055 1.055-1.055 2.813 0 3.956 1.055 1.055 2.901 1.055 3.956 0 1.143-1.143 1.143-2.9 0-3.956-1.055-1.055-2.9-1.055-3.956 0zm-.263 26.286l4.395 1.055V8.352l-4.395.967v17.758z" fill="#050038" fill-rule="nonzero"/></svg>