<svg width="80" height="80" xmlns="http://www.w3.org/2000/svg"><defs><radialGradient cx="50%" cy="-50%" fx="50%" fy="-50%" r="100.11%" gradientTransform="matrix(0 .9989 -1 0 0 -1)" id="a"><stop stop-color="#20C6B7" offset="0%"/><stop stop-color="#4D9ABF" offset="100%"/></radialGradient></defs><path d="M58.084 28.136l-.03-.013a.123.123 0 01-.047-.027.228.228 0 01-.058-.192l1.602-9.792 7.51 7.513-7.81 3.323a.173.173 0 01-.07.013h-.03a.218.218 0 01-.042-.036 3.555 3.555 0 00-1.025-.79zm10.894-.597l8.03 8.031c1.669 1.67 2.504 2.503 2.808 3.468.046.143.083.286.112.433l-19.192-8.128a1.508 1.508 0 00-.031-.012c-.077-.031-.166-.067-.166-.145 0-.079.091-.116.168-.147l.025-.01 8.246-3.49zm10.623 14.51c-.415.779-1.223 1.587-2.59 2.957l-9.055 9.052-11.71-2.439-.062-.012c-.104-.017-.214-.035-.214-.129a3.535 3.535 0 00-1.357-2.471c-.047-.048-.035-.123-.02-.191 0-.01 0-.02.004-.03l2.202-13.52.008-.046c.013-.104.031-.224.125-.224a3.584 3.584 0 002.403-1.378c.019-.02.031-.043.056-.056.066-.03.145 0 .213.03L79.6 42.048h.002zM65.874 56.14L50.985 71.03l2.549-15.665.004-.02a.281.281 0 01.012-.06c.021-.05.075-.071.127-.092l.025-.01a3.833 3.833 0 001.44-1.071c.05-.058.11-.114.186-.125a.186.186 0 01.06 0l10.484 2.155.002-.002zm-18.04 18.04l-1.678 1.679L27.6 49.044a.879.879 0 00-.02-.03c-.03-.039-.06-.078-.054-.124.002-.033.022-.062.045-.087l.021-.026c.056-.083.104-.166.155-.255l.042-.073.006-.006c.029-.05.056-.097.106-.124.043-.021.103-.013.15-.002l20.557 4.239a.34.34 0 01.157.068c.027.027.033.056.04.09.29 1.099 1.078 2 2.13 2.434.057.029.033.093.006.161a.493.493 0 00-.031.094c-.26 1.574-2.48 15.12-3.077 18.778zm-3.506 3.504c-1.237 1.225-1.966 1.873-2.79 2.134a4.144 4.144 0 01-2.5 0c-.965-.306-1.8-1.14-3.468-2.81L16.937 58.377l4.867-7.548a.31.31 0 01.083-.098c.052-.037.126-.02.188 0a5.043 5.043 0 003.394-.172c.056-.02.112-.035.156.005.021.02.04.042.058.066l18.645 27.057v-.002zM15.141 56.58l-4.275-4.274 8.441-3.601a.174.174 0 01.069-.015c.07 0 .112.07.149.135.085.13.175.258.27.381l.026.034c.025.035.008.07-.016.103l-4.662 7.237h-.002zm-6.166-6.166l-5.408-5.407c-.92-.92-1.587-1.588-2.051-2.161l16.442 3.41.063.01c.101.017.213.036.213.13 0 .104-.122.152-.226.191l-.047.021-8.986 3.806zM.57 40.064c.018-.348.081-.693.186-1.026.307-.965 1.14-1.798 2.81-3.468l6.92-6.92c3.186 4.624 6.381 9.242 9.585 13.855.056.074.118.157.054.22-.303.333-.605.698-.819 1.093a.332.332 0 01-.103.129c-.027.016-.056.01-.087.004h-.004L.57 40.061v.003zm11.768-13.267l9.305-9.305c.875.384 4.057 1.728 6.904 2.93 2.155.912 4.12 1.74 4.737 2.01.062.025.118.05.145.112.016.037.008.085 0 .124a4.15 4.15 0 001.083 3.787c.062.063 0 .152-.054.228l-.029.044-9.448 14.634a.287.287 0 01-.089.104c-.05.03-.12.016-.178.002a4.712 4.712 0 00-1.125-.154c-.34 0-.709.063-1.082.13h-.002c-.041.007-.078.015-.112-.01a.435.435 0 01-.093-.105l-9.962-14.53zm11.185-11.184L35.57 3.567c1.668-1.668 2.503-2.503 3.468-2.808a4.144 4.144 0 012.5 0c.965.305 1.8 1.14 3.468 2.808l2.61 2.61-8.567 13.27a.321.321 0 01-.085.099c-.052.035-.125.02-.187 0a4.345 4.345 0 00-3.978.766c-.056.058-.139.025-.21-.006-1.118-.487-9.82-4.165-11.065-4.693zm25.911-7.616l7.911 7.91-1.906 11.806v.031a.28.28 0 01-.017.079c-.02.041-.062.05-.103.062a3.792 3.792 0 00-1.136.566.32.32 0 00-.041.035c-.023.025-.046.048-.083.052a.239.239 0 01-.09-.015l-12.054-5.122-.022-.01c-.077-.031-.168-.068-.168-.147a4.554 4.554 0 00-.643-1.896c-.058-.095-.122-.195-.072-.292l8.424-13.06zm-8.146 17.83l11.3 4.787c.062.029.13.056.157.12a.22.22 0 010 .118 2.809 2.809 0 00-.062.545v.317c0 .079-.08.112-.155.143l-.023.008c-1.79.765-25.133 10.718-25.168 10.718-.035 0-.072 0-.108-.035-.062-.062 0-.149.056-.228l.03-.041 9.286-14.38.016-.024c.054-.087.116-.185.216-.185l.093.015c.211.029.398.056.586.056a4.196 4.196 0 003.502-1.859.332.332 0 01.07-.083c.056-.041.14-.02.204.009zM28.347 44.859l25.444-10.85s.037 0 .072.035c.139.139.257.232.371.319l.056.035c.052.03.104.062.108.116 0 .021 0 .033-.004.052l-2.18 13.389-.008.054c-.015.103-.03.222-.127.222a3.582 3.582 0 00-2.845 1.754l-.01.017c-.029.048-.056.093-.104.118-.043.02-.099.013-.145.002l-20.29-4.185c-.02-.004-.315-1.075-.338-1.078z" fill="url(#a)" fill-rule="nonzero"/></svg>