<svg width="80" height="72" xmlns="http://www.w3.org/2000/svg"><g fill-rule="nonzero" fill="none"><path d="M.012 35.826c0 6.037 5.895 11.673 15.188 14.85-1.856 9.342-.333 16.872 4.755 19.807 5.23 3.016 13.02.928 20.415-5.536 7.209 6.203 14.493 8.644 19.577 5.701 5.224-3.024 6.813-11.065 4.906-20.7 9.68-3.2 15.094-8.005 15.094-14.122 0-5.896-5.905-10.998-15.073-14.154 2.053-10.032.313-17.38-4.985-20.435C54.78-1.71 47.41.858 40.097 7.224c-7.61-6.756-14.906-8.819-20.2-5.755-5.103 2.954-6.559 10.621-4.697 20.137C6.22 24.736.012 29.954.012 35.826z" fill="#FFF"/><path d="M62.932 24.806c-.756-.259-1.518-.499-2.285-.72.127-.517.245-1.037.353-1.558 1.73-8.398.599-15.162-3.264-17.39-3.703-2.135-9.76.092-15.877 5.415a47.483 47.483 0 00-1.767 1.622c-.386-.37-.778-.732-1.177-1.086C32.505 5.396 26.08 2.998 22.22 5.23c-3.7 2.142-4.795 8.502-3.238 16.46.155.788.33 1.572.525 2.351-.91.259-1.787.534-2.628.827-7.515 2.62-12.315 6.727-12.315 10.986 0 4.4 5.152 8.813 12.98 11.488.636.216 1.276.417 1.92.6a46.44 46.44 0 00-.557 2.535c-1.485 7.82-.325 14.029 3.365 16.157 3.81 2.198 10.208-.06 16.436-5.505.493-.43.987-.887 1.482-1.366a46.605 46.605 0 001.919 1.751c6.033 5.192 11.992 7.288 15.679 5.154 3.807-2.204 5.045-8.874 3.438-16.99a40.21 40.21 0 00-.426-1.898c.45-.132.89-.27 1.32-.412 8.139-2.696 13.434-7.055 13.434-11.514 0-4.275-4.955-8.41-12.622-11.049z" fill="#53C1DE"/><path d="M61.167 44.49c-.388.13-.787.253-1.193.374-.898-2.845-2.111-5.87-3.594-8.994 1.415-3.05 2.581-6.036 3.454-8.862.727.21 1.432.432 2.11.666 6.57 2.261 10.577 5.605 10.577 8.181 0 2.745-4.328 6.307-11.354 8.636zm-2.916 5.778c.71 3.589.812 6.833.341 9.37-.423 2.279-1.273 3.798-2.324 4.406-2.237 1.295-7.022-.388-12.181-4.828a43.479 43.479 0 01-1.785-1.627c2-2.188 4-4.732 5.95-7.556 3.432-.305 6.674-.803 9.615-1.482.144.584.273 1.157.384 1.717zM28.766 63.821c-2.186.772-3.927.794-4.98.187-2.239-1.291-3.17-6.277-1.9-12.964.151-.79.324-1.577.519-2.357 2.908.643 6.126 1.105 9.567 1.384 1.963 2.764 4.02 5.305 6.093 7.53-.44.426-.891.84-1.352 1.245-2.755 2.408-5.515 4.115-7.947 4.975zm-10.24-19.347c-3.462-1.183-6.32-2.72-8.28-4.399-1.76-1.508-2.65-3.005-2.65-4.22 0-2.584 3.854-5.882 10.282-8.123.807-.28 1.621-.536 2.443-.768.889 2.889 2.054 5.91 3.46 8.965-1.424 3.1-2.606 6.17-3.503 9.093a37.358 37.358 0 01-1.752-.548zm3.432-23.365C20.624 14.29 21.51 9.147 23.74 7.856c2.375-1.375 7.626.586 13.162 5.5.353.314.709.643 1.065.984-2.063 2.214-4.1 4.736-6.048 7.483-3.338.31-6.534.807-9.473 1.473a44.464 44.464 0 01-.488-2.188zm30.622 7.56a96.446 96.446 0 00-2.159-3.55 66.68 66.68 0 016.473 1.132 64.69 64.69 0 01-2.272 6.113 105.695 105.695 0 00-2.042-3.694zM40.093 16.508a64.856 64.856 0 014.177 5.043 89.303 89.303 0 00-8.39-.002 66.878 66.878 0 014.213-5.041zM27.525 28.69a89.616 89.616 0 00-2.004 3.67 66.928 66.928 0 01-2.256-6.142 68.424 68.424 0 016.436-1.105 89.16 89.16 0 00-2.176 3.577zm2.241 18.122a64.573 64.573 0 01-6.542-1.052 68 68 0 012.3-6.267 89.067 89.067 0 004.242 7.32zm10.41 8.605a68.163 68.163 0 01-4.27-5.112c1.358.054 2.744.08 4.153.08 1.447 0 2.877-.031 4.285-.094a64.491 64.491 0 01-4.167 5.126zm14.475-16.033a64.406 64.406 0 012.384 6.245c-2.058.47-4.28.848-6.622 1.129.75-1.19 1.477-2.394 2.18-3.613a96.336 96.336 0 002.058-3.76zm-4.686 2.246a99.43 99.43 0 01-3.405 5.495c-2.107.15-4.283.228-6.501.228-2.21 0-4.358-.068-6.428-.202a86.02 86.02 0 01-6.498-11.224 86.041 86.041 0 013.02-5.723 85.22 85.22 0 013.442-5.479 85.922 85.922 0 0112.94.002 91.332 91.332 0 013.42 5.461 99.41 99.41 0 013.06 5.696 91.364 91.364 0 01-3.05 5.746zm6.256-33.865c2.378 1.37 3.302 6.9 1.809 14.15-.098.472-.205.943-.32 1.411-2.945-.68-6.143-1.185-9.492-1.5-1.95-2.777-3.971-5.303-6-7.489a44.588 44.588 0 011.632-1.497c5.241-4.561 10.14-6.362 12.371-5.075z" fill="#FFF"/><path d="M40.059 29.516a6.34 6.34 0 110 12.678 6.34 6.34 0 010-12.678" fill="#53C1DE"/></g></svg>