<svg width="71" height="80" xmlns="http://www.w3.org/2000/svg"><g fill-rule="nonzero" fill="none"><path d="M61.533 15.574c-.056-.401-.407-.623-.698-.648-.29-.024-6.43-.479-6.43-.479s-4.264-4.233-4.732-4.702c-.468-.468-1.383-.326-1.738-.221-.052.015-.931.287-2.386.737-1.424-4.099-3.938-7.866-8.36-7.866a6.62 6.62 0 00-.374.012C35.557.744 33.999.022 32.653.022 22.351.022 17.43 12.9 15.886 19.444c-4.003 1.24-6.846 2.123-7.21 2.237-2.234.7-2.305.771-2.598 2.877C5.857 26.152.01 71.366.01 71.366l45.558 8.536 24.685-5.34s-8.666-58.586-8.72-58.988zM43.03 11.04l-3.855 1.193c.002-.272.003-.54.003-.832 0-2.547-.354-4.598-.921-6.224 2.279.286 3.796 2.879 4.773 5.863zm-7.6-5.358c.634 1.588 1.046 3.866 1.046 6.94 0 .157-.002.301-.003.447l-7.961 2.465c1.533-5.916 4.406-8.774 6.918-9.852zm-3.06-2.897c.444 0 .892.15 1.32.446-3.3 1.553-6.84 5.466-8.334 13.28l-6.293 1.95C20.814 12.5 24.97 2.784 32.37 2.784z" fill="#95BF46"/><path d="M60.835 14.926c-.29-.024-6.43-.479-6.43-.479s-4.264-4.233-4.732-4.702c-.175-.174-.411-.263-.658-.302L45.57 79.901l24.683-5.34s-8.666-58.585-8.72-58.987c-.056-.401-.407-.623-.698-.648" fill="#5E8E3E"/><path d="M37.188 28.566l-3.043 9.054s-2.667-1.424-5.936-1.424c-4.792 0-5.033 3.008-5.033 3.766 0 4.135 10.779 5.719 10.779 15.405 0 7.62-4.834 12.527-11.35 12.527-7.82 0-11.82-4.867-11.82-4.867l2.094-6.918s4.11 3.529 7.58 3.529c2.266 0 3.188-1.785 3.188-3.089 0-5.393-8.843-5.634-8.843-14.497 0-7.46 5.354-14.68 16.162-14.68 4.165 0 6.222 1.194 6.222 1.194" fill="#FFF"/></g></svg>