<svg width="80" height="73" xmlns="http://www.w3.org/2000/svg"><g fill-rule="nonzero" fill="none"><path fill="#FDB300" d="M17.42 2.379L39.92 0l22.5 2.379 17.419 23.384-39.92 46.485L0 25.763z"/><path fill="#EA6C00" d="M16.17 25.763l23.75 46.485L0 25.763zM63.67 25.763L39.92 72.248l39.919-46.485z"/><path fill="#FDAD00" d="M16.17 25.763h47.5L39.92 72.248z"/><g><path fill="#FDD231" d="M39.92 0l-22.5 2.379-1.25 23.384zM39.92 0l22.5 2.379 1.25 23.384z"/><path fill="#FDAD00" d="M79.839 25.763L62.419 2.379l1.25 23.384zM0 25.763L17.42 2.379l-1.25 23.384z"/><path fill="#FEEEB7" d="M39.92 0L16.17 25.763h47.5z"/></g></g></svg>