<svg width="80" height="80" xmlns="http://www.w3.org/2000/svg"><g fill-rule="nonzero" fill="none"><path d="M.819 27.64s-1.946-1.402.39-3.275l5.44-4.865s1.556-1.638 3.202-.21L60.057 57.3v18.227s-.025 2.862-3.698 2.546L.82 27.641z" fill="#2489CA"/><path d="M13.76 39.39L.818 51.153s-1.33.99 0 2.757l6.008 5.465s1.427 1.532 3.535-.211l13.72-10.403-10.323-9.373z" fill="#1070B3"/><path d="M36.478 39.486l23.733-18.121-.154-18.13s-1.014-3.957-4.395-1.897L24.082 30.08l12.396 9.405z" fill="#0877B9"/><path d="M56.36 78.097c1.378 1.411 3.048.949 3.048.949l18.495-9.114c2.367-1.613 2.035-3.616 2.035-3.616V11.895c0-2.392-2.449-3.22-2.449-3.22L61.46.95c-3.502-2.165-5.797.389-5.797.389s2.952-2.124 4.395 1.897v71.96c0 .494-.106.98-.316 1.419-.422.85-1.338 1.645-3.536 1.313l.154.17z" fill="#3C99D4"/></g></svg>