<svg width="80" height="80" xmlns="http://www.w3.org/2000/svg"><g fill-rule="nonzero" fill="none"><path d="M80 40c0 22-18 40-40 40S0 62 0 40 18 0 40 0s40 18 40 40z" fill="#4353FF"/><path d="M52.2 34.86s-3.46 10.84-3.72 11.76c-.1-.92-2.62-20.4-2.62-20.4-5.9 0-9.04 4.18-10.7 8.64 0 0-4.2 10.88-4.54 11.8-.02-.86-.64-11.68-.64-11.68-.36-5.44-5.32-8.74-9.34-8.74l4.84 29.52c6.18-.02 9.5-4.2 11.24-8.64 0 0 3.7-9.6 3.86-10.04.04.42 2.66 18.68 2.66 18.68 6.18 0 9.52-3.92 11.32-8.2l8.64-21.34c-6.12 0-9.34 4.18-11 8.64z" fill="#FFF"/></g></svg>