<svg width="80" height="80" xmlns="http://www.w3.org/2000/svg" xmlns:xlink="http://www.w3.org/1999/xlink"><defs><path id="a" d="M0 0h79.833v79.834H0z"/></defs><g fill="none" fill-rule="evenodd"><mask id="b" fill="#fff"><use xlink:href="#a"/></mask><g mask="url(#b)" fill="#00749A" fill-rule="nonzero"><path d="M5.674 39.916c0 13.555 7.877 25.268 19.3 30.82L8.638 25.98a34.113 34.113 0 00-2.965 13.936zm57.36-1.728c0-4.232-1.52-7.163-2.824-9.444-1.736-2.82-3.362-5.21-3.362-8.03 0-3.148 2.387-6.078 5.75-6.078.151 0 .295.019.444.027-6.093-5.581-14.21-8.989-23.125-8.989-11.963 0-22.488 6.138-28.61 15.435.803.024 1.56.04 2.203.04 3.582 0 9.126-.435 9.126-.435 1.846-.108 2.064 2.603.22 2.821 0 0-1.855.218-3.92.327l12.47 37.091 7.495-22.475-5.336-14.617a62.394 62.394 0 01-3.59-.326c-1.846-.109-1.63-2.93.215-2.821 0 0 5.656.434 9.02.434 3.581 0 9.126-.434 9.126-.434 1.848-.109 2.065 2.602.22 2.82 0 0-1.859.219-3.92.327l12.376 36.81 3.415-11.413c1.48-4.737 2.607-8.139 2.607-11.07z"/><path d="M40.518 42.911L30.244 72.766a34.22 34.22 0 009.673 1.395c3.988 0 7.812-.69 11.372-1.94a2.9 2.9 0 01-.244-.473L40.518 42.911zm29.446-19.424c.148 1.09.231 2.262.231 3.521 0 3.475-.649 7.381-2.604 12.266l-10.46 30.242c10.18-5.937 17.028-16.966 17.028-29.6a34.058 34.058 0 00-4.195-16.429z"/><path d="M39.917 0C17.907 0 0 17.906 0 39.916c0 22.012 17.907 39.919 39.917 39.919s39.92-17.906 39.92-39.919C79.837 17.906 61.927 0 39.917 0zm0 78.004c-21 0-38.087-17.086-38.087-38.088 0-21 17.086-38.085 38.087-38.085 21 0 38.085 17.085 38.085 38.085 0 21.002-17.085 38.088-38.085 38.088z"/></g></g></svg>