<svg width="80" height="64" xmlns="http://www.w3.org/2000/svg"><g fill-rule="nonzero" fill="none"><path d="M12.315 44.063L8.136 45.59l-.222 12.432 14.466-5.285c-4.966-1.663-8.587-4.594-10.065-8.674" fill="#FDBD39"/><path d="M14.503 30.915L0 36.212l8.136 9.381 4.18-1.527C10.84 40 11.75 35.41 14.502 30.915" fill="#F69833"/><path d="M38.905 12.973C20.438 19.718 8.53 33.64 12.315 44.063l66.872-24.428C75.402 9.212 57.37 6.227 38.905 12.973" fill="#FECF33"/><path d="M52.594 50.729c18.467-6.746 30.394-20.605 26.59-31.09L12.311 44.062c3.804 10.49 21.816 13.41 40.282 6.666" fill="#EE6723"/><path d="M79.183 19.635L12.315 44.063c1.308 3.612 6.304 5.39 13.308 5.39 6.832 0 15.575-1.689 24.69-5.018 18.467-6.745 31.456-17.67 28.87-24.8" fill="#F69833"/><path d="M65.876 14.247c-6.829 0-15.576 1.69-24.69 5.02-18.467 6.745-31.457 17.666-28.87 24.796l66.87-24.428c-1.31-3.612-6.303-5.388-13.31-5.388" fill="#FDBD39"/><g fill="#EE6723"><path d="M62.18 58.682c-1.968 0-4.869-1.776-8.626-5.281-4.445-4.146-9.534-10.22-14.337-17.102-4.8-6.882-8.744-13.76-11.107-19.373-2.573-6.114-2.942-9.872-1.093-11.173a2.466 2.466 0 011.454-.429c1.504 0 4.439 1.12 9.86 6.457l.119.116-.017.166c-.036.385-.07.77-.1 1.152l-.06.753-.53-.534c-5.843-5.885-8.412-6.52-9.248-6.52-.24 0-.429.047-.565.143-.803.565-.856 3.326 1.64 9.252 2.32 5.51 6.208 12.285 10.945 19.077 4.74 6.795 9.752 12.777 14.12 16.85 4.708 4.391 6.829 4.866 7.523 4.866.239 0 .431-.05.577-.153.847-.594.847-3.551-1.935-9.932l-.13-.292.28-.152c.278-.153.55-.302.803-.449l.335-.189.156.352c1.972 4.521 3.817 10.267 1.397 11.967-.428.292-.939.441-1.46.428zm.034-.697v.349-.349z"/><path d="M53.042 50.536l-.026.345c-.468 5.776-1.696 12.72-4.903 13.003-.067.006-.133.006-.196.006-2.178 0-4.239-3.12-6.121-9.27-1.786-5.823-3.17-13.637-3.897-22.006-.73-8.368-.72-16.305.03-22.35.816-6.586 2.37-10.025 4.62-10.224.067-.007.136-.01.203-.01 1.58 0 3.96 1.79 6.397 10.121l-1.59.305c-.814-2.781-1.7-5.045-2.58-6.605-.813-1.438-1.606-2.231-2.227-2.231-.02 0-.04 0-.063.003-.976.087-2.397 2.45-3.187 8.837-.737 5.935-.747 13.756-.026 22.015.72 8.262 2.08 15.96 3.834 21.676.783 2.56 1.643 4.67 2.49 6.101.776 1.321 1.53 2.048 2.117 2.048.02 0 .04 0 .06-.003.933-.08 2.692-2.543 3.432-11.203l1.633-.558z"/></g></g></svg>