<svg width="88" height="100" xmlns="http://www.w3.org/2000/svg"><path d="M28.74 75.824v19.009c0 1.507.078 3.36.139 4.809h-3.611l-.236-1.933h-.086c-.606 1.192-1.926 2.205-3.504 2.205-3.458 0-5.173-3.816-5.173-8.635 0-5.871 2.557-8.726 5.345-8.726 1.458 0 2.401.713 2.876 1.746h.07v-8.475h4.18zm8.727 6.729c3.802 0 6.185 3.244 6.185 8.632 0 6.923-3.734 8.73-6.249 8.73h-.033c-3.854 0-6.27-3.094-6.27-8.632 0-6.044 3.102-8.73 6.367-8.73zm12.703-6.73v8.76h.067c.824-1.292 1.92-2.03 3.513-2.03 3.152 0 4.736 3.584 4.736 8.27 0 5.921-2.362 9.091-5.422 9.091-1.458 0-2.429-.646-3.305-2.284h-.088l-.233 2.012h-3.59c.062-1.394.14-3.302.14-4.809v-19.01h4.182zm16.605 6.702c3.587 0 5.574 2.984 5.574 7.854 0 1.115-.046 1.743-.12 2.233l-7.938-.024c.05 3.042 1.648 4.031 3.633 4.031 1.258 0 2.337-.28 3.133-.579l.564 3.008c-1.11.478-2.821.778-4.463.778-4.488 0-6.938-3.067-6.938-8.304 0-5.62 2.842-8.997 6.555-8.997zM10.672 76.44l4.616 23.206h-4.095l-1.079-5.577h-4.34L4.67 99.645H.597L5.68 76.44h4.993zm26.707 9.318c-1.765 0-2.135 3.085-2.135 5.452 0 2.858.465 5.499 2.168 5.499h.037c1.596 0 1.991-3.008 1.991-5.499 0-2.367-.395-5.452-2.061-5.452zm-14.633.343c-1.681 0-2.3 2.423-2.3 5.256 0 3.256.882 5.11 2.242 5.11.622 0 1.338-.32 1.728-1.686.095-.272.144-.636.144-1.062V89.28c0-.31 0-.671-.062-1.002-.162-1.146-.771-2.178-1.752-2.178zm29.271 0c-.793 0-1.46.861-1.69 1.786-.08.29-.157.744-.157 1.056v4.696c0 .42.077.812.166 1.075.42 1.407 1.13 1.752 1.7 1.752 1.617 0 2.27-2.05 2.27-5.327 0-2.983-.69-5.038-2.289-5.038zM8.083 80.485h-.092l-.319 2.06-.137.88c-.138.874-.275 1.714-.392 2.354l-.913 5.013h3.489l-.849-5.026c-.242-1.448-.551-3.712-.787-5.28zm58.426 5.13c-1.514 0-2.157 2.216-2.203 4.017h4.2c.021-2.362-.671-4.016-1.997-4.016zM72.353 0v64.034L45.606 0h26.747zm-45.59 0L0 64.034V0h26.762zm9.424 23.595l17.04 40.435H42.062l-5.097-12.88H24.489l11.698-27.555zM82.228.21c2.797 0 5.033 2.26 5.033 5.06 0 2.846-2.236 5.104-5.054 5.104a5.084 5.084 0 01-5.103-5.103c0-2.8 2.282-5.06 5.103-5.06h.021zm0 .858h-.021c-2.236 0-4.043 1.874-4.043 4.224s1.807 4.224 4.064 4.224c2.236.024 4.022-1.875 4.022-4.224 0-2.35-1.786-4.224-4.022-4.224zm-.27 1.354c.904 0 1.468.183 1.83.456.315.248.495.628.495 1.173 0 .723-.474 1.195-1.08 1.354v.043c.492.092.808.542.921 1.381.135.882.248 1.217.34 1.4h-1.038c-.135-.183-.251-.701-.365-1.442-.11-.683-.493-.953-1.194-.953h-.586V8.23h-1.016V2.582c.472-.067.947-.16 1.694-.16zm-.02.769c-.298 0-.5 0-.657.021v1.832h.607c.748 0 1.36-.248 1.36-.904 0-.493-.361-.95-1.31-.95z" fill="#656868" fill-rule="nonzero"/></svg>