<svg width="215" height="51" xmlns="http://www.w3.org/2000/svg"><path d="M68.896 34.293c2.266 0 4.06.722 5.383 2.168 1.322 1.446 1.984 3.402 1.984 5.867 0 2.522-.664 4.503-1.991 5.944-1.328 1.442-3.153 2.162-5.476 2.162-2.209 0-3.972-.732-5.29-2.197s-1.977-3.425-1.977-5.88c0-2.485.661-4.45 1.984-5.896 1.323-1.446 3.117-2.168 5.383-2.168zm-20.166-6.67v22.456h-2.816v-2.902l-.134.246c-1.137 2.007-2.808 3.011-5.015 3.011-1.858 0-3.32-.678-4.387-2.034-1.067-1.355-1.6-3.209-1.6-5.56 0-2.57.605-4.637 1.813-6.2 1.21-1.565 2.8-2.347 4.772-2.347 1.83 0 3.347.701 4.55 2.104v-8.774h2.817zm-28.174 7.01v10.184l.003.26c.024 1.02.192 1.756.502 2.207.337.488.899.732 1.686.732 1.706 0 3.318-1.123 4.835-3.37V34.634h2.802v15.445h-2.802v-2.902l-.188.266c-1.452 1.994-3.195 2.991-5.23 2.991-1.347 0-2.418-.424-3.215-1.273-.796-.848-1.194-1.993-1.194-3.434V34.634h2.801zm-13.41-.34c1.725 0 2.998.388 3.818 1.166.82.777 1.23 1.986 1.23 3.626v6.997l.003.214c.043 1.46.535 2.19 1.476 2.19.123 0 .303-.02.54-.057l.2 1.55-.242.107a4.894 4.894 0 01-1.863.348c-1.309 0-2.143-.773-2.503-2.318-1.678 1.545-3.295 2.318-4.85 2.318-1.28 0-2.342-.4-3.185-1.202-.844-.8-1.266-1.813-1.266-3.036 0-1.688.709-2.984 2.126-3.89 1.417-.905 3.449-1.358 6.094-1.358h.668v-1.863l-.003-.195c-.066-1.662-.984-2.493-2.756-2.493-1.479 0-3.076.455-4.792 1.366v-2.319l.433-.17c1.725-.654 3.349-.981 4.871-.981zm49.989.34V50.08h-2.802V34.634h2.802zm11.76 1.764c-2.92 0-4.38 1.987-4.38 5.96 0 3.981 1.442 5.972 4.324 5.972 2.968 0 4.451-2 4.451-6.001 0-3.954-1.464-5.93-4.394-5.93zM8.455 42.57l-.35.005c-1.376.041-2.501.33-3.376.87-.948.582-1.423 1.348-1.423 2.296 0 .673.238 1.242.712 1.707.474.464 1.052.696 1.735.696 1.166 0 2.38-.516 3.64-1.55v-3.996l-.938-.028zm33.335-6.173c-2.683 0-4.024 2.053-4.024 6.158 0 3.613 1.194 5.419 3.584 5.419 1.554 0 3.076-.849 4.565-2.546v-7.11l-.256-.22c-1.356-1.134-2.646-1.7-3.869-1.7zm15.346-7.367v2.802h-2.802V29.03h2.802zm95.667-22.807c1.912 0 3.643.686 4.982 1.83l.69-1.324h3.678v14.037c0 4.962-3.25 8.037-8.465 8.037-4.481 0-7.618-2.26-8.345-6.002h5.248c.378 1.056 1.725 1.624 3.046 1.624 1.823 0 3.288-1.158 3.288-3.037v-.47a7.652 7.652 0 01-4.122 1.186c-4.526 0-7.891-3.369-7.891-7.94 0-4.502 3.365-7.941 7.891-7.941zM95.338 6.21c4.828 0 8.28 3.494 8.28 8.414s-3.452 8.431-8.28 8.431c-1.427 0-2.735-.376-3.85-1.049v6.217h-5.376V6.73h3.698l.681 1.254c1.3-1.123 2.97-1.773 4.847-1.773zm-86.934.025c1.86 0 3.521.622 4.825 1.698l.556-1.222h4.054v15.792h-4.204l-.466-1.117c-1.294 1.048-2.931 1.652-4.765 1.652-4.83 0-8.28-3.523-8.28-8.431 0-4.89 3.45-8.372 8.28-8.372zm68.394-.025c4.022 0 6.629 2.14 6.69 5.34h-5.093c0-1.009-.678-1.478-1.664-1.478-.872 0-1.458.432-1.458 1.164 0 .898 1.208 1.109 2.709 1.375 2.494.443 5.81.962 5.81 4.967 0 3.3-2.784 5.46-6.982 5.46-4.303 0-6.919-2.272-6.968-5.695h5.235c0 1.155.804 1.686 1.836 1.686.795 0 1.55-.405 1.55-1.221 0-.911-1.196-1.171-2.714-1.422-2.448-.397-5.694-1.136-5.694-4.967 0-3.164 2.697-5.209 6.743-5.209zm-31.958.001c5.09 0 8.615 3.632 8.615 8.264 0 .476-.042.952-.112 1.44H41.617c.355 1.812 1.506 2.749 3.223 2.749 1.272 0 2.332-.557 2.855-1.482h5.414c-1.112 3.604-4.306 5.856-8.269 5.856-4.927 0-8.577-3.601-8.577-8.427 0-4.84 3.622-8.4 8.577-8.4zm128.182 0c5.09 0 8.614 3.632 8.614 8.264 0 .476-.042.952-.113 1.44h-11.726c.356 1.812 1.507 2.749 3.225 2.749 1.27 0 2.331-.557 2.855-1.482h5.413c-1.111 3.604-4.307 5.856-8.268 5.856-4.927 0-8.579-3.601-8.579-8.427 0-4.84 3.622-8.4 8.58-8.4zm-56.811.442v4.978h-2.11c-1.926 0-2.733.845-2.733 2.858v8.032h-5.44V6.73h3.645l.848 1.752c1.113-1.288 2.47-1.828 4.35-1.828h1.44zm20.388-.391c3.667 0 6.076 2.606 6.076 6.629v9.63h-5.439v-8.879c0-1.837-.69-2.75-2.06-2.75-1.696 0-2.671 1.185-2.671 3.195v8.434h-5.44V6.73h3.816l.747 1.628c1.176-1.31 2.93-2.095 4.97-2.095zM61.29 1.026V22.52h-5.439V1.026h5.44zM25.688 6.729l2.281 3.976 2.387-3.976h5.92l-4.894 7.455 5.247 8.337h-6.078l-2.596-4.678-2.648 4.678H19.3l5.238-8.194-4.854-7.598h6.004zm168.626-.076v4.978h-2.111c-1.926 0-2.733.845-2.733 2.858v8.032h-5.438V6.73h3.643l.85 1.752c1.112-1.288 2.47-1.828 4.349-1.828h1.44zm-70.593.075V22.52h-5.439V6.728h5.44zM214.91 18.5V22.5h-17.822V18.5h17.822zm-120.3-7.49c-2.037 0-3.535 1.54-3.535 3.613 0 2.075 1.498 3.616 3.536 3.616 2.024 0 3.535-1.54 3.535-3.616 0-2.073-1.498-3.613-3.535-3.613zm-85.48.02c-2.049 0-3.533 1.54-3.533 3.59 0 2.063 1.497 3.602 3.533 3.602 2.038 0 3.536-1.54 3.536-3.602 0-2.05-1.498-3.59-3.536-3.59zm144.576-.307c-1.953 0-3.37 1.448-3.37 3.442 0 2.012 1.4 3.46 3.37 3.46 1.953 0 3.36-1.448 3.36-3.46 0-1.994-1.403-3.442-3.36-3.442zm-108.866-.25c-1.585 0-2.688.861-3.128 2.43h6.385c-.478-1.579-1.616-2.43-3.257-2.43zm128.182 0c-1.586 0-2.688.861-3.128 2.43h6.384c-.478-1.579-1.616-2.43-3.256-2.43zM123.68.136v4.617h-5.355V.136h5.355z" fill="#656868" fill-rule="evenodd"/></svg>