<svg width="188" height="42" xmlns="http://www.w3.org/2000/svg"><path d="M151.483 6.671c4.548 0 7.84 1.776 10.613 5.978l-5.545 3.682c-1.126-1.95-2.556-3.076-4.981-3.076-3.076 0-6.022 2.73-6.022 7.624 0 5.502 3.163 8.014 6.195 8.014 2.599 0 3.812-1.3 4.938-3.119l5.588 3.769c-2.816 4.072-5.415 5.978-10.873 5.978-7.754 0-12.735-6.411-12.735-14.598 0-7.798 4.505-14.252 12.822-14.252zm-51.115-.043c8.014 0 12.649 6.367 12.649 14.425 0 8.1-4.635 14.424-12.65 14.424-7.97 0-12.648-6.324-12.648-14.424 0-8.058 4.678-14.425 12.649-14.425zm25.384-.087c4.938 0 8.1 2.123 10.05 4.332l-4.289 4.245c-1.3-1.43-3.335-2.556-5.631-2.556-1.56 0-3.335.737-3.335 2.556 0 1.69 1.862 2.296 4.201 2.772l.953.217c3.942.823 8.707 2.036 8.664 8.317 0 6.021-5.501 8.967-10.656 8.967-5.935 0-9.01-2.253-11.436-5.155l4.375-4.332c1.863 2.383 4.288 3.552 6.974 3.552 2.253 0 3.725-1.083 3.725-2.729 0-1.733-1.342-2.296-4.938-3.032l-.953-.217c-4.332-.91-7.884-3.335-7.884-8.273 0-5.415 4.375-8.664 10.18-8.664zm-49.989.78c4.938 0 8.534 2.512 8.534 7.58 0 4.332-3.812 5.632-3.812 5.632 0 .004.046.018.13.045l.116.04c1.005.34 4.735 1.825 4.735 6.586 0 4.635-4.245 7.667-8.577 7.667H62.811V7.321zm96.47-.044v10.137h8.36V7.277h7.234v27.55h-7.234V23.956h-8.36v10.873h-7.235V7.278h7.234zM74.506 23.695h-4.895v5.415h5.025c2.036 0 3.509-.737 3.509-2.73 0-1.602-1.17-2.685-3.64-2.685zm25.86-10.44c-3.898 0-5.847 3.466-5.847 7.798 0 4.331 1.95 7.84 5.848 7.84 3.898 0 5.891-3.509 5.891-7.84 0-4.289-1.993-7.798-5.891-7.798zm-25.773-.216h-5.069v5.111h4.939c1.776 0 2.729-1.3 2.729-2.512 0-1.56-1.04-2.6-2.6-2.6zM21.139.217C9.617.217.26 9.573.26 21.096c0 11.522 9.358 20.88 20.88 20.88 11.523 0 20.88-9.358 20.88-20.88 0-11.523-9.357-20.88-20.88-20.88zm0 39.809c-10.44 0-18.93-8.49-18.93-18.93s8.49-18.93 18.93-18.93 18.93 8.49 18.93 18.93-8.49 18.93-18.93 18.93zm8.62-31.969H28.33v7.148H13.992V8.057h-1.473C8.317 10.873 5.5 15.637 5.5 21.096c0 5.458 2.816 10.223 7.018 13.039h1.473v-7.148H28.33v7.148h1.43c4.245-2.816 7.017-7.581 7.017-13.04 0-5.457-2.772-10.222-7.018-13.038zM12 31.32c-2.902-2.556-4.592-6.238-4.592-10.223 0-3.985 1.69-7.667 4.592-10.223v20.446zm16.331-6.325H13.992v-7.84H28.33v7.84zm1.95 6.282V10.873a13.643 13.643 0 014.548 10.18c0 3.985-1.69 7.667-4.549 10.223z" fill="#656868" fill-rule="nonzero"/></svg>