<?xml version="1.0" encoding="UTF-8"?>
<svg width="188px" height="42px" viewBox="0 0 188 42" version="1.1" xmlns="http://www.w3.org/2000/svg" xmlns:xlink="http://www.w3.org/1999/xlink">
    <!-- Generator: Sketch 58 (84663) - https://sketch.com -->
    <title>boschLogo</title>
    <desc>Created with Sketch.</desc>
    <g id="Final-Design" stroke="none" stroke-width="1" fill="none" fill-rule="evenodd">
        <g id="Home-Final" transform="translate(-627.000000, -1921.000000)" fill="#656868" fill-rule="nonzero">
            <g id="Headline-Group" transform="translate(0.000000, 1452.000000)">
                <g id="Group-4" transform="translate(190.000000, 339.000000)">
                    <g id="boschLogo" transform="translate(437.000000, 130.000000)">
                        <g id="Group" transform="translate(62.811060, 6.497696)">
                            <path d="M17.6737327,14.035023 C17.6737327,14.035023 21.4857143,12.7354839 21.4857143,8.40368664 C21.4857143,3.33548387 17.8903226,0.823041475 12.9520737,0.823041475 L0,0.823041475 L0,28.3732719 L14.078341,28.3732719 C18.4101382,28.3732719 22.6552995,25.3410138 22.6552995,20.7059908 C22.6552995,15.2046083 17.6737327,14.078341 17.6737327,14.035023 Z M6.75760369,6.54101382 L11.7824885,6.54101382 C13.3419355,6.54101382 14.3815668,7.58064516 14.3815668,9.14009217 C14.3815668,10.3529954 13.4285714,11.6525346 11.6525346,11.6525346 L6.71428571,11.6525346 L6.71428571,6.54101382 L6.75760369,6.54101382 Z M11.8258065,22.6119816 L6.80092166,22.6119816 L6.80092166,17.197235 L11.6958525,17.197235 C14.164977,17.197235 15.3345622,18.2801843 15.3345622,19.8829493 C15.3345622,21.875576 13.8617512,22.6119816 11.8258065,22.6119816 Z" id="Shape"></path>
                            <path d="M37.556682,0.129953917 C29.5861751,0.129953917 24.9078341,6.49769585 24.9078341,14.5548387 C24.9078341,22.6552995 29.5861751,28.9797235 37.556682,28.9797235 C45.5705069,28.9797235 50.20553,22.6552995 50.20553,14.5548387 C50.20553,6.49769585 45.5705069,0.129953917 37.556682,0.129953917 Z M37.556682,22.3953917 C33.6580645,22.3953917 31.7087558,18.8866359 31.7087558,14.5548387 C31.7087558,10.2230415 33.6580645,6.75760369 37.556682,6.75760369 C41.4552995,6.75760369 43.4479263,10.2663594 43.4479263,14.5548387 C43.4479263,18.8866359 41.4552995,22.3953917 37.556682,22.3953917 Z" id="Shape"></path>
                            <path d="M64.8903226,11.6092166 L63.9373272,11.3926267 C61.5981567,10.916129 59.7354839,10.3096774 59.7354839,8.6202765 C59.7354839,6.80092166 61.5115207,6.06451613 63.0709677,6.06451613 C65.3668203,6.06451613 67.402765,7.19078341 68.7023041,8.6202765 L72.9907834,4.37511521 C71.0414747,2.16589862 67.8792627,0.0433179724 62.9410138,0.0433179724 C57.1364055,0.0433179724 52.7612903,3.2921659 52.7612903,8.70691244 C52.7612903,13.6451613 56.3133641,16.0709677 60.6451613,16.9806452 L61.5981567,17.197235 C65.1935484,17.9336406 66.5364055,18.4967742 66.5364055,20.2294931 C66.5364055,21.875576 65.0635945,22.9585253 62.8110599,22.9585253 C60.1253456,22.9585253 57.6995392,21.7889401 55.8368664,19.4064516 L51.4617512,23.7382488 C53.8875576,26.640553 56.9631336,28.8930876 62.8976959,28.8930876 C68.0525346,28.8930876 73.5539171,25.9474654 73.5539171,19.9262673 C73.597235,13.6451613 68.8322581,12.4322581 64.8903226,11.6092166 Z" id="Path"></path>
                            <path d="M88.9317972,22.3953917 C85.8995392,22.3953917 82.7373272,19.8829493 82.7373272,14.3815668 C82.7373272,9.48663594 85.6829493,6.75760369 88.7585253,6.75760369 C91.1843318,6.75760369 92.6138249,7.88387097 93.7400922,9.83317972 L99.2847926,6.15115207 C96.5124424,1.94930876 93.2202765,0.173271889 88.6718894,0.173271889 C80.3548387,0.173271889 75.8497696,6.62764977 75.8497696,14.4248848 C75.8497696,22.6119816 80.8313364,29.0230415 88.5852535,29.0230415 C94.043318,29.0230415 96.6423963,27.1170507 99.4580645,23.0451613 L93.8700461,19.2764977 C92.7437788,21.0958525 91.5308756,22.3953917 88.9317972,22.3953917 Z" id="Path"></path>
                            <polygon id="Path" points="117.781567 0.779723502 117.781567 10.916129 109.421198 10.916129 109.421198 0.779723502 102.187097 0.779723502 102.187097 28.3299539 109.421198 28.3299539 109.421198 17.4571429 117.781567 17.4571429 117.781567 28.3299539 125.015668 28.3299539 125.015668 0.779723502"></polygon>
                        </g>
                        <g id="_x38_7_x2F_87_x2F_87__x7C__0_x2F_0_x2F_0">
                            <g id="Group">
                                <path d="M21.1391705,0.216589862 C9.61658986,0.216589862 0.259907834,9.57327189 0.259907834,21.0958525 C0.259907834,32.6184332 9.61658986,41.9751152 21.1391705,41.9751152 C32.6617512,41.9751152 42.0184332,32.6184332 42.0184332,21.0958525 C42.0184332,9.57327189 32.6617512,0.216589862 21.1391705,0.216589862 Z M21.1391705,40.0258065 C10.6995392,40.0258065 2.20921659,31.5354839 2.20921659,21.0958525 C2.20921659,10.6562212 10.6995392,2.16589862 21.1391705,2.16589862 C31.5788018,2.16589862 40.0691244,10.6562212 40.0691244,21.0958525 C40.0691244,31.5354839 31.5788018,40.0258065 21.1391705,40.0258065 Z" id="Shape"></path>
                                <path d="M29.759447,8.05714286 L28.3299539,8.05714286 L28.3299539,15.2046083 L13.9917051,15.2046083 L13.9917051,8.05714286 L12.518894,8.05714286 C8.31705069,10.8728111 5.50138249,15.637788 5.50138249,21.0958525 C5.50138249,26.5539171 8.31705069,31.318894 12.518894,34.1345622 L13.9917051,34.1345622 L13.9917051,26.9870968 L28.3299539,26.9870968 L28.3299539,34.1345622 L29.759447,34.1345622 C34.0046083,31.318894 36.7769585,26.5539171 36.7769585,21.0958525 C36.7769585,15.637788 34.0046083,10.8728111 29.759447,8.05714286 Z M11.9990783,31.318894 C9.09677419,28.7631336 7.40737327,25.081106 7.40737327,21.0958525 C7.40737327,17.1105991 9.09677419,13.4285714 11.9990783,10.8728111 L11.9990783,31.318894 Z M28.3299539,24.99447 L13.9917051,24.99447 L13.9917051,17.1539171 L28.3299539,17.1539171 C28.3299539,17.197235 28.3299539,24.99447 28.3299539,24.99447 Z M30.2792627,31.275576 L30.2792627,26.9437788 L30.2792627,26.9437788 L30.2792627,15.2046083 L30.2792627,15.2046083 L30.2792627,10.8728111 C33.1382488,13.4285714 34.8276498,17.1105991 34.8276498,21.0525346 C34.8276498,25.037788 33.1382488,28.7198157 30.2792627,31.275576 Z" id="Shape"></path>
                            </g>
                        </g>
                    </g>
                </g>
            </g>
        </g>
    </g>
</svg>