<?xml version="1.0" encoding="UTF-8"?>
<svg width="434px" height="97px" viewBox="0 0 434 97" version="1.1" xmlns="http://www.w3.org/2000/svg" xmlns:xlink="http://www.w3.org/1999/xlink">
    <!-- Generator: Sketch 63.1 (92452) - https://sketch.com -->
    <title>Bosch-logotype</title>
    <desc>Created with Sketch.</desc>
    <g id="Final-Design" stroke="none" stroke-width="1" fill="none" fill-rule="evenodd">
        <g id="Bosch-logotype" fill-rule="nonzero">
            <g id="Group" transform="translate(145.000000, 15.000000)" fill="#E20015">
                <path d="M40.8,32.4 C40.8,32.4 49.6,29.4 49.6,19.4 C49.6,7.7 41.3,1.9 29.9,1.9 L0,1.9 L0,65.5 L32.5,65.5 C42.5,65.5 52.3,58.5 52.3,47.8 C52.3,35.1 40.8,32.5 40.8,32.4 Z M15.6,15.1 L27.2,15.1 C30.8,15.1 33.2,17.5 33.2,21.1 C33.2,23.9 31,26.9 26.9,26.9 L15.5,26.9 L15.5,15.1 L15.6,15.1 Z M27.3,52.2 L15.7,52.2 L15.7,39.7 L27,39.7 C32.7,39.7 35.4,42.2 35.4,45.9 C35.4,50.5 32,52.2 27.3,52.2 Z" id="Shape"></path>
                <path d="M86.7,0.3 C68.3,0.3 57.5,15 57.5,33.6 C57.5,52.3 68.3,66.9 86.7,66.9 C105.2,66.9 115.9,52.3 115.9,33.6 C115.9,15 105.2,0.3 86.7,0.3 Z M86.7,51.7 C77.7,51.7 73.2,43.6 73.2,33.6 C73.2,23.6 77.7,15.6 86.7,15.6 C95.7,15.6 100.3,23.7 100.3,33.6 C100.3,43.6 95.7,51.7 86.7,51.7 Z" id="Shape"></path>
                <path d="M149.8,26.8 L147.6,26.3 C142.2,25.2 137.9,23.8 137.9,19.9 C137.9,15.7 142,14 145.6,14 C150.9,14 155.6,16.6 158.6,19.9 L168.5,10.1 C164,5 156.7,0.1 145.3,0.1 C131.9,0.1 121.8,7.6 121.8,20.1 C121.8,31.5 130,37.1 140,39.2 L142.2,39.7 C150.5,41.4 153.6,42.7 153.6,46.7 C153.6,50.5 150.2,53 145,53 C138.8,53 133.2,50.3 128.9,44.8 L118.8,54.8 C124.4,61.5 131.5,66.7 145.2,66.7 C157.1,66.7 169.8,59.9 169.8,46 C169.9,31.5 158.9,28.7 149.8,26.8 Z" id="Path"></path>
                <path d="M205.3,51.7 C198.3,51.7 191,45.9 191,33.2 C191,21.9 197.8,15.6 204.9,15.6 C210.5,15.6 213.8,18.2 216.4,22.7 L229.2,14.2 C222.8,4.5 215.2,0.4 204.7,0.4 C185.5,0.4 175.1,15.3 175.1,33.3 C175.1,52.2 186.6,67 204.5,67 C217.1,67 223.1,62.6 229.6,53.2 L216.7,44.5 C214.1,48.7 211.3,51.7 205.3,51.7 Z" id="Path"></path>
                <polygon id="Path" points="271.9 1.8 271.9 25.2 252.6 25.2 252.6 1.8 235.9 1.8 235.9 65.4 252.6 65.4 252.6 40.3 271.9 40.3 271.9 65.4 288.6 65.4 288.6 1.8"></polygon>
            </g>
            <g id="_x38_7_x2F_87_x2F_87__x7C__0_x2F_0_x2F_0" fill="#575757">
                <g id="Group">
                    <path d="M48.8,0.5 C22.2,0.5 0.6,22.1 0.6,48.7 C0.6,75.3 22.2,96.9 48.8,96.9 C75.4,96.9 97,75.3 97,48.7 C97,22.1 75.4,0.5 48.8,0.5 Z M48.8,92.4 C24.7,92.4 5.1,72.8 5.1,48.7 C5.1,24.6 24.7,5 48.8,5 C72.9,5 92.5,24.6 92.5,48.7 C92.5,72.8 72.9,92.4 48.8,92.4 Z" id="Shape"></path>
                    <path d="M68.7,18.6 L65.4,18.6 L65.4,35.1 L32.3,35.1 L32.3,18.6 L28.9,18.6 C19.2,25.1 12.7,36.1 12.7,48.7 C12.7,61.3 19.2,72.3 28.9,78.8 L32.3,78.8 L32.3,62.3 L65.4,62.3 L65.4,78.8 L68.7,78.8 C78.5,72.3 84.9,61.3 84.9,48.7 C84.9,36.1 78.5,25.1 68.7,18.6 Z M27.7,72.3 C21,66.4 17.1,57.9 17.1,48.7 C17.1,39.5 21,31 27.7,25.1 L27.7,72.3 Z M65.4,57.7 L32.3,57.7 L32.3,39.6 L65.4,39.6 C65.4,39.7 65.4,57.7 65.4,57.7 Z M69.9,72.2 L69.9,62.2 L69.9,62.2 L69.9,35.1 L69.9,35.1 L69.9,25.1 C76.5,31 80.4,39.5 80.4,48.6 C80.4,57.8 76.5,66.3 69.9,72.2 Z" id="Shape"></path>
                </g>
            </g>
        </g>
    </g>
</svg>