<svg width="259" height="35" xmlns="http://www.w3.org/2000/svg"><path d="M221.958 23.559c.463.203.966.383 1.513.53.703.194 2.212.502 2.626.575 1.248.231 2.416.272 3.193.277h18.384c.374 0 .865-.006 1.426-.042l.69 1.985c.506 1.443.687 2.832.54 4.127a6.89 6.89 0 01-.743 2.46l-.077.14-.43.764-.009.007-.01.004h-20.97l-.012-.003-.008-.008-6.113-10.816zM248.023.1l.011.004.01.008 10.453 18.217.003.012-.003.011-6.095 10.62a11.578 11.578 0 00-.305-1.575c-.1-.376-.287-.967-.461-1.497l-.127-.382a29.541 29.541 0 00-.237-.683c-.462-1.297-1.065-2.406-1.448-3.074a35448.99 35448.99 0 01-4.533-7.897l-2.72-4.74-.264-.458-1.557-2.713a22.533 22.533 0 00-.747-1.219c.52-.611 1.255-1.48 1.334-1.572.968-1.148 2.05-1.987 3.218-2.496a6.602 6.602 0 012.463-.563l.144-.002.86-.001zM9.497 9.577c2.518 0 4.728 1.014 6.226 2.647l-2.557 2.647c-1.021-.987-2.265-1.534-3.73-1.534-2.788 0-4.782 2.495-4.782 5.624 0 3.233 1.952 5.654 4.843 5.654 1.666 0 2.95-.595 3.97-1.684l2.466 2.527c-1.666 1.905-3.853 2.917-6.677 2.917-4.933 0-8.933-3.813-8.933-9.324 0-5.273 4.07-9.474 9.174-9.474zm17.294 0c5.51 0 9.354 4.017 9.354 9.324 0 5.24-4.066 9.474-9.475 9.474-5.51 0-9.353-4.016-9.353-9.324 0-5.24 4.065-9.474 9.474-9.474zm139.074.3l6.467 18.167h-4.271l-1.263-3.7h-7.068l-1.264 3.7h-3.97l6.467-18.166h4.902zm-119.976 0l2.798 8.964c.477 1.497.962 3.368.962 3.368s.46-1.873.902-3.338l2.767-8.993h5.264l1.774 18.166h-4l-.812-9.745a69.591 69.591 0 01-.21-3.908v-.032h-.06s-.42 1.965-.963 3.7l-3.068 9.985h-3.58l-3.067-9.895a42.657 42.657 0 01-.491-1.784L44.014 16a54.522 54.522 0 01-.38-1.64h-.09s-.011 1.973-.181 3.88l-.842 9.804h-3.76l1.775-18.166h5.353zm25.355 0l2.797 8.964c.477 1.497.963 3.368.963 3.368s.46-1.873.902-3.338l2.767-8.993h5.263l1.775 18.166h-4.03l-.812-9.745-.036-.438a70.866 70.866 0 01-.175-3.502h-.06s-.418 1.965-.963 3.7l-3.037 9.985h-3.58l-3.067-9.895a55.384 55.384 0 01-.638-2.323l-.082-.328a63.76 63.76 0 01-.266-1.107l-.007-.032h-.06v.032a65.66 65.66 0 01-.21 3.848l-.813 9.805h-3.76L65.86 9.878h5.384zm30.498 0v3.46h-7.73v3.85h6.647v3.398h-6.647v3.97h7.85v3.49h-11.82V9.877h11.7zm10.226 0c5.477 0 7.55 2.131 7.55 5.806 0 2.347-1.323 4.168-3.67 5.052l4.481 7.31h-4.722l-3.88-6.618h-1.233v6.617h-3.97V9.878zm23.159 0v2.978l-7.52 11.7h7.7v3.49h-12.662v-3.009l7.52-11.7h-7.34V9.879h12.302zm10.557 0c3.166 0 6.647.715 6.647 4.663 0 2.006-1.167 3.42-3.038 4v.03c2.38.304 3.88 1.894 3.88 4.24 0 3.776-3.595 5.234-6.827 5.234h-6.948V9.878zm32.874 0l5.895 8.633a64.285 64.285 0 011.804 2.887s-.12-1.644-.12-3.278V9.878h3.7v18.166h-3.52l-6.165-9.053a66.09 66.09 0 01-1.805-2.887s.12 1.674.12 3.308v8.632h-3.669V9.878h3.76zm19.58 0v8.152l5.473-8.151h4.572l-6.045 8.421 6.677 9.745h-4.873l-5.804-8.512v8.512h-3.94V9.878h3.94zm-171.407 3.4c-3.198 0-5.144 2.622-5.144 5.684 0 3.233 2.013 5.715 5.144 5.715 3.196 0 5.143-2.623 5.143-5.685 0-3.231-2.014-5.715-5.143-5.715zm119.524 7.278h-2.917v4.09h2.917c2.007 0 2.918-.71 2.918-2.105 0-1.43-1.15-1.985-2.918-1.985zM241.808.1c-.408.305-.815.656-1.22 1.058a21.82 21.82 0 00-.644.679l-.289.318a44.45 44.45 0 00-.889 1.012c-.898 1.055-1.56 2.139-1.948 2.808-.444.764-1.005 1.73-1.58 2.723l-.267.46-2.759 4.75-2.358 4.064-.265.458c-.09.153-.178.306-.267.46l-.266.457-1.448 2.495c-.19.328-.433.757-.685 1.266l-.313-.058-.328-.06c-.66-.121-1.319-.242-1.41-.26-1.494-.269-2.777-.796-3.814-1.56a6.68 6.68 0 01-1.736-1.863l-.081-.136h-.002l-.436-.749-.003-.012.002-.01.321-.556L229.416.112l.008-.009.011-.003h12.373zm-78.53 13.447s-.339 1.226-.781 2.587l-1.594 4.782h4.752l-1.594-4.812a55.418 55.418 0 01-.782-2.557zm-51.16-.27h-1.624v4.842h1.624c2.211 0 3.339-.735 3.339-2.436 0-1.769-1.23-2.407-3.339-2.407zm33.506 0h-2.286v3.94h2.466c1.26 0 2.346-.584 2.346-2.046 0-1.498-1.268-1.895-2.526-1.895z" fill="#656868" fill-rule="nonzero"/></svg>