<?xml version="1.0" encoding="UTF-8"?>
<svg width="568px" height="76px" viewBox="0 0 568 76" version="1.1" xmlns="http://www.w3.org/2000/svg" xmlns:xlink="http://www.w3.org/1999/xlink">
    <!-- Generator: Sketch 63.1 (92452) - https://sketch.com -->
    <title>Commerzbank_(2009)</title>
    <desc>Created with Sketch.</desc>
    <defs>
        <radialGradient cx="136.380996%" cy="-870.923862%" fx="136.380996%" fy="-870.923862%" r="977.305063%" gradientTransform="translate(1.363810,-8.709239),scale(0.333945,1.000000),translate(-1.363810,8.709239)" id="radialGradient-1">
            <stop stop-color="#FEDF33" offset="0%"></stop>
            <stop stop-color="#FBB809" offset="44.000199%"></stop>
            <stop stop-color="#EE960D" offset="89.999402%"></stop>
            <stop stop-color="#E17A10" offset="100%"></stop>
        </radialGradient>
        <radialGradient cx="84.5100697%" cy="100.00233%" fx="84.5100697%" fy="100.00233%" r="105.275226%" gradientTransform="translate(0.845101,1.000023),scale(1.000000,0.934738),translate(-0.845101,-1.000023)" id="radialGradient-2">
            <stop stop-color="#FEDF33" offset="0%"></stop>
            <stop stop-color="#FBB809" offset="44.000199%"></stop>
            <stop stop-color="#EE960D" offset="89.999402%"></stop>
            <stop stop-color="#E17A10" offset="100%"></stop>
        </radialGradient>
        <radialGradient cx="5.58358483%" cy="76.0331947%" fx="5.58358483%" fy="76.0331947%" r="191.85248%" gradientTransform="translate(0.055836,0.760332),scale(0.403970,1.000000),translate(-0.055836,-0.760332)" id="radialGradient-3">
            <stop stop-color="#FEDF33" offset="0%"></stop>
            <stop stop-color="#FBB809" offset="44.000199%"></stop>
            <stop stop-color="#EE960D" offset="89.999402%"></stop>
            <stop stop-color="#E17A10" offset="100%"></stop>
        </radialGradient>
        <radialGradient cx="64.2100793%" cy="10.5594595%" fx="64.2100793%" fy="10.5594595%" r="154.846727%" gradientTransform="translate(0.642101,0.105595),scale(1.000000,0.581333),translate(-0.642101,-0.105595)" id="radialGradient-4">
            <stop stop-color="#FEDF33" offset="0%"></stop>
            <stop stop-color="#FBB809" offset="44.000199%"></stop>
            <stop stop-color="#EE960D" offset="89.999402%"></stop>
            <stop stop-color="#D87301" offset="100%"></stop>
        </radialGradient>
    </defs>
    <g id="Final-Design" stroke="none" stroke-width="1" fill="none" fill-rule="evenodd">
        <g id="Commerzbank_(2009)" transform="translate(-1.000000, -1.000000)" fill-rule="nonzero">
            <g id="g3651" transform="translate(285.926446, 39.647730) scale(-1, 1) rotate(-180.000000) translate(-285.926446, -39.647730) translate(0.583148, 0.979712)">
                <path d="M536.546738,76.605342 C534.986684,76.605342 530.349188,76.605342 524.959667,70.0611135 L524.959667,70.0611135 C525.029003,69.9784439 525.098338,69.8957744 525.170341,69.810438 L525.170341,69.810438 C526.554389,71.4291612 528.29045,73.0852191 530.154515,74.2905945 L530.154515,74.2905945 C531.877242,75.3999666 533.874645,76.1413258 535.528036,76.3226655 L535.528036,76.3226655 C536.733411,76.4560035 540.720217,76.405335 545.259043,76.405335 L545.259043,76.405335 C545.283043,76.405335 545.296377,76.394668 545.307044,76.3813342 L545.307044,76.3813342 L545.189707,76.5786744 C545.181706,76.5973417 545.165706,76.605342 545.147039,76.605342 L545.147039,76.605342 L536.546738,76.605342 Z" id="path201" fill="url(#radialGradient-1)"></path>
                <path d="M504.937634,76.605342 C504.921634,76.605342 504.902966,76.6000085 504.892299,76.5813412 L504.892299,76.5813412 L488.01171,47.3429867 L482.718192,38.1746665 L482.104837,37.1106294 L482.024834,36.9746246 C482.019501,36.9639576 482.019501,36.9452903 482.030168,36.9239562 L482.030168,36.9239562 L498.110729,9.07231684 L498.110729,9.18698751 C497.761384,9.82700986 497.510708,10.3203604 497.37737,10.6297046 L497.37737,10.6297046 C496.705347,12.1524244 496.324,14.2591647 496.42267,16.3072362 L496.42267,16.3072362 C496.69468,21.6994245 499.561447,27.0196103 501.004164,29.5156975 L501.004164,29.5156975 C504.385615,35.371902 510.921843,46.6976309 510.921843,46.6976309 L510.921843,46.6976309 C510.921843,46.6976309 517.460738,58.0233597 520.84219,63.882231 L520.84219,63.882231 C522.28224,66.3756514 525.458351,71.5198311 529.994509,74.4506001 L529.994509,74.4506001 C531.714569,75.5626389 533.735973,76.2826641 535.384031,76.4640037 L535.384031,76.4640037 C536.592073,76.6000085 540.60288,76.605342 545.147039,76.605342 L545.147039,76.605342 L504.937634,76.605342 Z" id="path225" fill="url(#radialGradient-2)"></path>
                <path d="M482.163506,36.7026151 C482.416848,36.259933 482.667523,35.8225844 482.915532,35.3959028 L482.915532,35.3959028 L482.163506,36.7026151 Z M563.051664,28.5423301 C562.06763,27.2036167 560.435573,25.8142349 558.611509,24.8808689 L558.611509,24.8808689 C553.803341,22.4194496 547.765797,22.2407767 544.885696,22.2407767 L544.885696,22.2407767 L525.042336,22.2407767 L505.201644,22.2407767 C502.321543,22.2407767 496.275999,22.4194496 491.475831,24.8808689 L491.475831,24.8808689 C489.6491,25.8142349 488.017043,27.2036167 487.033009,28.5423301 L487.033009,28.5423301 C486.408987,29.3930265 484.808931,32.118455 482.915532,35.3959028 L482.915532,35.3959028 L486.950339,28.4036586 L502.13487,2.10140672 C502.14287,2.08807292 502.161537,2.07740588 502.177538,2.07740588 L502.177538,2.07740588 L547.909802,2.07740588 C547.923136,2.07740588 547.941803,2.09073968 547.949803,2.10407348 L547.949803,2.10407348 L567.875832,36.6146121 C565.678422,32.8091458 563.753022,29.4943634 563.051664,28.5423301" id="path249" fill="url(#radialGradient-3)"></path>
                <path d="M535.384031,76.4640037 C533.735973,76.2826641 531.714569,75.5626389 529.994509,74.4506001 L529.994509,74.4506001 C528.095776,73.2238906 526.437052,71.6105009 525.042336,69.9651101 L525.042336,69.9651101 C526.981071,67.679697 528.405121,65.3356151 529.242483,63.882231 L529.242483,63.882231 C532.623935,58.0233597 539.165496,46.6976309 539.165496,46.6976309 L539.165496,46.6976309 C539.165496,46.6976309 545.701725,35.371902 549.085843,29.5156975 L549.085843,29.5156975 C550.523226,27.0196103 553.39266,21.6994245 553.659336,16.3072362 L553.659336,16.3072362 C553.760673,14.2591647 553.373993,12.1524244 552.709969,10.6297046 L552.709969,10.6297046 C552.243286,9.5656674 550.389888,6.33088777 548.237813,2.60275756 L548.237813,2.60275756 L568.059839,36.9319565 C568.059839,36.9346232 568.062506,36.93729 568.062506,36.9426235 L568.062506,36.9426235 L568.062506,36.9639576 C568.062506,36.9692911 568.059839,36.9746246 568.057172,36.9772914 L568.057172,36.9772914 L545.189707,76.5786744 C545.181706,76.5973417 545.165706,76.605342 545.147039,76.605342 L545.147039,76.605342 C540.60288,76.605342 536.592073,76.6000085 535.384031,76.4640037" id="path273" fill="url(#radialGradient-4)"></path>
                <path d="M21.4674164,14.6405113 C10.1550213,14.6405113 1.13337292,23.9528365 1.13337292,35.6412447 C1.13337292,47.8576735 10.0003493,56.3086332 20.9340644,56.3086332 C27.1929497,56.3086332 32.041119,54.0658882 35.7345813,49.8417407 L30.2677237,44.2415451 C28.0062901,46.654967 25.1608787,47.9750088 21.4674164,47.9750088 C15.0591926,47.9750088 10.7337082,42.6068213 10.7337082,35.4412377 C10.7336869,28.5049976 15.1525292,22.9741357 21.3340784,22.9741357 C24.5795464,22.9741378 27.3369547,24.1875114 29.6010338,26.3742544 L35.2678984,20.5073829 C31.9477824,16.8885898 27.0489447,14.6405113 21.4674164,14.6405113 Z M59.8020885,14.6405113 C47.8123365,14.6405113 38.8013551,24.0275058 38.8013551,35.6412447 C38.8013551,47.4069911 47.3189859,56.3086332 59.5354125,56.3086332 C71.5251859,56.3086332 80.536146,46.9243054 80.536146,35.3078998 C80.536146,23.5448201 72.0158484,14.6405113 59.8020885,14.6405113 Z M90.2698192,15.3072013 L86.3363485,55.5752742 L94.6699729,55.5752742 L96.5367048,33.8411819 C96.9127179,29.6170301 96.9367187,25.2408815 96.9367187,25.2408815 L97.1367257,25.2408815 C97.1367257,25.2408836 98.0647581,29.6437019 99.2701336,33.6411749 L106.070371,55.5752742 L114.003981,55.5752742 L120.804219,33.4411679 C122.009594,29.5957003 122.937627,25.2408815 122.937627,25.2408815 L123.070965,25.2408815 C123.070965,25.2408836 123.161635,29.598367 123.537648,33.9745199 L125.337711,55.5752742 L134.204687,55.5752742 L130.271216,15.3072013 L118.604142,15.3072013 L112.470595,35.2412308 C111.491915,38.4893442 110.470525,42.6414892 110.470525,42.6414892 C110.470503,42.6414892 109.395821,38.4946777 108.337117,35.1745618 L102.1369,15.3072013 L90.2698192,15.3072013 Z M146.405113,15.3072013 L142.538311,55.5752742 L150.871936,55.5752742 L152.671999,33.8411819 C153.048033,29.6170301 153.138682,25.2408815 153.138682,25.2408815 L153.27202,25.2408815 C153.271977,25.2408836 154.266721,29.6437019 155.472096,33.6411749 L162.272334,55.5752742 L170.205944,55.5752742 L176.939513,33.4411679 C178.147512,29.5957003 179.072921,25.2408815 179.072921,25.2408815 L179.206259,25.2408815 C179.206216,25.2408836 179.296928,29.598367 179.672942,33.9745199 L181.473004,55.5752742 L190.40665,55.5752742 L186.473179,15.3072013 L174.806105,15.3072013 L168.672557,35.2412308 C167.691168,38.4893442 166.672488,42.6414892 166.672488,42.6414892 C166.672509,42.6414892 165.595117,38.4946777 164.53908,35.1745618 L158.338863,15.3072013 L146.405113,15.3072013 Z M200.006985,15.3072013 L200.006985,55.5752742 L226.2079,55.5752742 L226.2079,47.8416708 L208.807292,47.8416708 L208.807292,39.0413635 L223.54114,39.0413635 L223.54114,31.507767 L208.807292,31.507767 L208.807292,22.9741357 L225.941224,22.9741357 L225.941224,15.3072013 L200.006985,15.3072013 Z M236.541594,15.3072013 L236.541594,55.5752742 L245.341902,55.5752742 L245.341902,40.9080953 L248.07533,40.9080953 L256.675631,55.5752742 L267.142663,55.5752742 L257.208983,39.3747084 C262.411852,37.41464 265.3426,33.3771657 265.3426,28.1743173 C265.342536,20.030035 260.75044,15.3072013 248.608682,15.3072013 L236.541594,15.3072013 Z M272.67619,15.3072013 L272.67619,22.9741357 L288.943424,22.9741357 L272.276176,48.9083747 L272.276176,55.5752742 L300.343822,55.5752742 L300.343822,47.8416708 L283.27656,47.8416708 L299.943809,21.9074318 L299.943809,15.3072013 L272.67619,15.3072013 Z M309.410806,15.3072013 L309.410806,55.5752742 L324.811344,55.5752742 C331.97697,55.5752742 339.945206,52.3431614 339.945206,43.9748691 C339.945206,38.7720186 336.622423,35.249231 331.344905,34.5745408 L331.344905,34.5078718 C335.491674,33.2224936 338.078474,30.0890508 338.078474,25.6408955 C338.078452,16.8912544 330.363538,15.3072013 323.344626,15.3072013 L309.410806,15.3072013 Z M357.212475,15.3072013 L342.878641,55.5752742 L351.678949,55.5752742 L354.479046,47.3749878 L370.14626,47.3749878 L372.946358,55.5752742 L382.413355,55.5752742 L368.079521,15.3072013 L357.212475,15.3072013 Z M387.880213,15.3072013 L387.880213,55.5752742 L396.01383,55.5752742 L396.01383,36.4412727 C396.01383,32.8198107 395.747154,29.1076832 395.747154,29.1076832 C395.747112,29.1076875 397.637887,32.3424629 399.747294,35.5079067 L413.414438,55.5752742 L421.21471,55.5752742 L421.21471,15.3072013 L413.014424,15.3072013 L413.014424,33.5745059 C413.014445,37.1959636 413.2811,40.8414263 413.2811,40.8414263 C413.2811,40.8414263 411.395701,37.6093135 409.28096,34.4412028 L396.213837,15.3072013 L387.880213,15.3072013 Z M430.881715,15.3072013 L430.881715,55.5752742 L439.615353,55.5752742 L439.615353,36.7079486 L452.482469,55.5752742 L463.282846,55.5752742 L448.482329,33.9745199 L461.882797,15.3072013 L451.74911,15.3072013 L439.615353,33.3744989 L439.615353,15.3072013 L430.881715,15.3072013 Z M59.6687505,22.8407977 C66.6049928,22.8407977 71.0691487,28.3449899 71.0691487,35.5079067 C71.0691487,42.2948147 66.7543313,48.1083468 59.6687505,48.1083468 C52.7298415,48.1083468 48.2683524,42.6068213 48.2683524,35.4412377 C48.2683524,28.6543362 52.580503,22.8407977 59.6687505,22.8407977 Z M245.341902,22.8407977 L248.942027,22.8407977 C253.616836,22.8407977 256.342286,24.2541804 256.342286,28.1743173 C256.342286,31.9451178 253.843532,33.5745059 248.942027,33.5745059 L245.341902,33.5745059 L245.341902,22.8407977 Z M318.144444,22.8407977 L323.211288,22.8407977 C326.000676,22.8407977 328.811483,23.7208284 328.811483,27.0409444 C328.811483,30.2810575 326.406066,31.574436 323.611302,31.574436 L318.144444,31.574436 L318.144444,22.8407977 Z M362.345988,23.4408186 C362.345966,23.4408186 363.095347,26.1662472 364.079382,29.1076832 L367.612838,39.7747224 L357.079137,39.7747224 L360.612594,29.1743522 C361.594004,26.1582426 362.345988,23.4408186 362.345988,23.4408186 Z M318.144444,38.9746945 L324.611337,38.9746945 C328.528807,38.9746945 331.078229,40.2067375 331.078229,43.3748481 C331.078229,46.4682916 329.059492,48.0416778 324.611337,48.0416778 L318.144444,48.0416778 L318.144444,38.9746945 Z" id="path177" fill="#000000" transform="translate(232.208110, 35.474572) scale(-1, 1) rotate(-180.000000) translate(-232.208110, -35.474572) "></path>
            </g>
        </g>
    </g>
</svg>