<?xml version="1.0" encoding="UTF-8"?>
<svg width="259px" height="35px" viewBox="0 0 259 35" version="1.1" xmlns="http://www.w3.org/2000/svg" xmlns:xlink="http://www.w3.org/1999/xlink">
    <!-- Generator: Sketch 58 (84663) - https://sketch.com -->
    <title>commerzbankLogo</title>
    <desc>Created with Sketch.</desc>
    <g id="Final-Design" stroke="none" stroke-width="1" fill="none" fill-rule="evenodd">
        <g id="Home-Final" transform="translate(-592.000000, -1794.000000)" fill="#656868" fill-rule="nonzero">
            <g id="Headline-Group" transform="translate(0.000000, 1452.000000)">
                <g id="Group-4" transform="translate(190.000000, 339.000000)">
                    <g id="commerzbankLogo" transform="translate(402.000000, 3.000000)">
                        <g id="Commerzbank_(2009)">
                            <g id="g3651" transform="translate(128.263078, 17.077523) scale(-1, 1) rotate(-180.000000) translate(-128.263078, -17.077523) translate(0.263078, 0.077523)">
                                <path d="M9.23355521,5.70256923 C4.13014487,5.70256923 0.0601691074,9.9036793 0.0601691074,15.1767221 C0.0601691074,20.6879731 4.06036698,24.5004916 8.99294181,24.5004916 C11.8165401,24.5004916 14.003716,23.4887122 15.6699638,21.583054 L13.2036764,19.0566133 C12.1834659,20.1453909 10.899803,20.7409071 9.23355521,20.7409071 C6.34258514,20.7409071 4.39121042,18.3191332 4.39121042,15.0864921 C4.39120079,11.9573157 6.38469249,9.4621537 9.17340186,9.4621537 C10.6375441,9.46215467 11.8815057,10.0095492 12.9029097,10.9960642 L15.4594271,8.3493167 C13.9616086,6.71675474 11.7515745,5.70256923 9.23355521,5.70256923 Z M26.5276438,5.70256923 C21.1186544,5.70256923 17.0534909,9.93736518 17.0534909,15.1767221 C17.0534909,20.4846548 20.896087,24.5004916 26.4073371,24.5004916 C31.8163361,24.5004916 35.8814899,20.2668987 35.8814899,15.0263387 C35.8814899,9.71960909 32.0376908,5.70256923 26.5276438,5.70256923 Z M40.2726846,6.00333599 L38.4981607,24.1696481 L42.2577452,24.1696481 L43.0998921,14.3646519 C43.2695246,12.4589918 43.2803522,10.4847607 43.2803522,10.4847607 L43.3705822,10.4847607 C43.3705822,10.4847616 43.7892495,12.4710243 44.3330358,14.2744218 L47.4008567,24.1696481 L50.9799812,24.1696481 L54.0478021,14.1841918 C54.5915884,12.4493691 55.0102557,10.4847607 55.0102557,10.4847607 L55.0704091,10.4847607 C55.0704091,10.4847616 55.1113133,12.4505722 55.2809458,14.4248052 L56.093016,24.1696481 L60.0932139,24.1696481 L58.31869,6.00333599 L53.0552718,6.00333599 L50.2882176,14.996262 C49.8467016,16.4615977 49.3859173,18.3347731 49.3859173,18.3347731 C49.3859077,18.3347731 48.9010813,16.4640038 48.4234637,14.9661854 L45.6263329,6.00333599 L40.2726846,6.00333599 Z M65.5972456,6.00333599 L63.8527984,24.1696481 L67.6123829,24.1696481 L68.4244531,14.3646519 C68.5940952,12.4589918 68.6349898,10.4847607 68.6349898,10.4847607 L68.6951432,10.4847607 C68.6951239,10.4847616 69.1438872,12.4710243 69.6876735,14.2744218 L72.7554944,24.1696481 L76.3346188,24.1696481 L79.3723631,14.1841918 C79.9173332,12.4493691 80.3348167,10.4847607 80.3348167,10.4847607 L80.39497,10.4847607 C80.3949508,10.4847616 80.4358743,12.4505722 80.6055068,14.4248052 L81.417577,24.1696481 L85.4478516,24.1696481 L83.6733277,6.00333599 L78.4099094,6.00333599 L75.6428553,14.996262 C75.200117,16.4615977 74.740555,18.3347731 74.740555,18.3347731 C74.7405646,18.3347731 74.2545159,16.4640038 73.7781014,14.9661854 L70.9809705,6.00333599 L65.5972456,6.00333599 Z M89.7788929,6.00333599 L89.7788929,24.1696481 L101.599026,24.1696481 L101.599026,20.6807538 L93.7490141,20.6807538 L93.7490141,16.7106326 L100.395959,16.7106326 L100.395959,13.3119682 L93.7490141,13.3119682 L93.7490141,9.4621537 L101.47872,9.4621537 L101.47872,6.00333599 L89.7788929,6.00333599 Z M106.260911,6.00333599 L106.260911,24.1696481 L110.231032,24.1696481 L110.231032,17.5527795 L111.464176,17.5527795 L115.344067,24.1696481 L120.066105,24.1696481 L115.584681,16.8610159 C117.931874,15.9767617 119.254035,14.1553182 119.254035,11.8081344 C119.254006,8.13396867 117.182354,6.00333599 111.70479,6.00333599 L106.260911,6.00333599 Z M122.562469,6.00333599 L122.562469,9.4621537 L129.901178,9.4621537 L122.382009,21.1619806 L122.382009,24.1696481 L135.04429,24.1696481 L135.04429,20.6807538 L127.344661,20.6807538 L134.86383,8.98092689 L134.86383,6.00333599 L122.562469,6.00333599 Z M139.134718,6.00333599 L139.134718,24.1696481 L146.08243,24.1696481 C149.31509,24.1696481 152.909835,22.7115309 152.909835,18.9363066 C152.909835,16.5891218 151.410814,14.9998712 149.029944,14.6954953 L149.029944,14.6654186 C150.900694,14.0855403 152.067688,12.6719365 152.067688,10.6652207 C152.067679,6.71795685 148.587215,6.00333599 145.420743,6.00333599 L139.134718,6.00333599 Z M160.699694,6.00333599 L154.233209,24.1696481 L158.20333,24.1696481 L159.466551,20.470217 L166.534569,20.470217 L167.79779,24.1696481 L172.068678,24.1696481 L165.602192,6.00333599 L160.699694,6.00333599 Z M174.534965,6.00333599 L174.534965,24.1696481 L178.20432,24.1696481 L178.20432,15.5376422 C178.20432,13.9038762 178.084013,12.2292079 178.084013,12.2292079 C178.083994,12.2292098 178.936987,13.6885282 179.888613,15.1165687 L186.054332,24.1696481 L189.573303,24.1696481 L189.573303,6.00333599 L185.873872,6.00333599 L185.873872,14.2443451 C185.873882,15.8781092 185.994179,17.5227028 185.994179,17.5227028 C185.994179,17.5227028 185.14361,16.0645856 184.189578,14.6353419 L178.29455,6.00333599 L174.534965,6.00333599 Z M193.934421,6.00333599 L193.934421,24.1696481 L197.874466,24.1696481 L197.874466,15.6579489 L203.679264,24.1696481 L208.551685,24.1696481 L201.874663,14.4248052 L207.920075,6.00333599 L203.348421,6.00333599 L197.874466,14.1541151 L197.874466,6.00333599 L193.934421,6.00333599 Z M26.4674904,9.40200035 C29.5966678,9.40200035 31.610602,11.8851307 31.610602,15.1165687 C31.610602,18.1783763 29.6640395,20.8010605 26.4674904,20.8010605 C23.33711,20.8010605 21.3243789,18.3191332 21.3243789,15.0864921 C21.3243789,12.0246874 23.2697383,9.40200035 26.4674904,9.40200035 Z M110.231032,9.40200035 L111.855173,9.40200035 C113.96414,9.40200035 115.193684,10.0396259 115.193684,11.8081344 C115.193684,13.5092722 114.06641,14.2443451 111.855173,14.2443451 L110.231032,14.2443451 L110.231032,9.40200035 Z M143.074762,9.40200035 L145.36059,9.40200035 C146.618979,9.40200035 147.88703,9.79901247 147.88703,11.2968309 C147.88703,12.7585574 146.801864,13.3420449 145.54105,13.3420449 L143.074762,13.3420449 L143.074762,9.40200035 Z M163.015598,9.67269043 C163.015589,9.67269043 163.35366,10.9022249 163.797592,12.2292079 L165.391656,17.041476 L160.639541,17.041476 L162.233605,12.2592845 C162.676353,10.8986138 163.015598,9.67269043 163.015598,9.67269043 Z M143.074762,16.6805559 L145.9922,16.6805559 C147.759505,16.6805559 148.909637,17.2363729 148.909637,18.6656165 C148.909637,20.0611752 147.998916,20.7709838 145.9922,20.7709838 L143.074762,20.7709838 L143.074762,16.6805559 Z" id="path177" transform="translate(104.305927, 15.101530) scale(-1, 1) rotate(-180.000000) translate(-104.305927, -15.101530) "></path>
                            </g>
                        </g>
                        <path d="M228.070707,34.3745027 L221.958115,23.5589878 C222.42126,23.7619641 222.924146,23.9415201 223.470596,24.0890682 C224.173719,24.2834571 225.683143,24.5910443 226.097375,24.664428 C227.344655,24.8950283 228.513139,24.9360486 229.290248,24.9409949 L229.47619,24.9415688 L247.674105,24.9415688 C248.04783,24.9415688 248.539253,24.9345427 249.100223,24.8994122 C249.36848,25.6722835 249.749084,26.7660136 249.790355,26.883896 C250.295534,28.3273699 250.476665,29.7161963 250.33069,31.0105606 C250.20949,32.0961586 249.873797,32.9292019 249.586751,33.4706044 L249.509869,33.6109995 L249.080352,34.3745027 L249.07099,34.3824071 L249.07099,34.3824071 L249.060482,34.3862129 L228.090578,34.3862129 L228.078923,34.3832854 L228.078923,34.3832854 L228.070707,34.3745027 L221.958115,23.5589878 Z M247.162274,0.100766665 L248.03407,0.103545825 L248.03407,0.103545825 L248.043215,0.112266638 L258.497142,18.3289915 L258.5,18.3407789 L258.5,18.3407789 L258.497142,18.3519914 L252.402193,28.9726003 C252.341228,28.4712015 252.242923,27.9452694 252.097369,27.397104 C251.908379,26.6925389 251.417613,25.2297423 251.272059,24.8349099 C250.810251,23.5377128 250.206701,22.4291154 249.824147,21.7613502 C248.276405,19.0665231 245.286847,13.8570351 245.286847,13.8570351 C245.286847,13.8570351 242.297288,8.6483137 240.750308,5.95271989 C240.564366,5.62765397 240.312886,5.20368828 240.00349,4.73448936 C240.522453,4.12269076 241.25784,3.25482609 241.337094,3.16205963 C242.304909,2.01436227 243.387033,1.1748642 244.554508,0.6657987 C245.54073,0.234815075 246.417215,0.118046112 247.017935,0.102631856 L247.162274,0.100766665 L248.022639,0.1 Z M241.808028,0.1 C241.400376,0.405499107 240.993499,0.756399845 240.588168,1.15808885 C240.066033,1.67674476 239.038783,2.84025773 238.766499,3.16653386 C237.867655,4.22154463 237.206285,5.30579713 236.817972,5.97450928 C235.247701,8.68013865 232.212361,13.9082518 232.212361,13.9082518 C232.212361,13.9082518 229.178568,19.1371345 227.608297,21.8419944 C227.418782,22.1698095 227.175119,22.5992012 226.922948,23.1078534 C226.123115,22.9608752 224.993758,22.7531051 224.872314,22.730789 C223.37785,22.4614573 222.09456,21.9343367 221.058026,21.1694346 C220.107355,20.4699417 219.544224,19.696575 219.240999,19.1709934 L219.240999,19.1709934 L219.239452,19.1709934 L218.80318,18.4222512 C218.799312,18.4153256 218.799312,18.4045523 218.802406,18.3991657 L218.802406,18.3991657 L219.123422,17.8443423 L229.416042,0.111542787 C229.419136,0.104617115 229.427645,0.1 229.43538,0.1 L229.43538,0.1 Z" id="GoldenShape-Flat"></path>
                    </g>
                </g>
            </g>
        </g>
    </g>
</svg>