<?xml version="1.0" encoding="UTF-8"?>
<svg width="187px" height="32px" viewBox="0 0 187 32" version="1.1" xmlns="http://www.w3.org/2000/svg" xmlns:xlink="http://www.w3.org/1999/xlink">
    <!-- Generator: Sketch 63.1 (92452) - https://sketch.com -->
    <title>fuelcastLogo</title>
    <desc>Created with Sketch.</desc>
    <defs>
        <linearGradient x1="50%" y1="0%" x2="50%" y2="100%" id="linearGradient-1">
            <stop stop-color="#3C3E73" offset="0%"></stop>
            <stop stop-color="#0D5B93" offset="47.8515625%"></stop>
            <stop stop-color="#0077A9" offset="100%"></stop>
        </linearGradient>
    </defs>
    <g id="Final-Design" stroke="none" stroke-width="1" fill="none" fill-rule="evenodd">
        <g id="fuelcastLogo">
            <g id="Group" transform="translate(0.031543, 0.747638)">
                <path d="M0.12169265,16.4374708 C0.0237730048,15.3202094 0.350520912,14.3109913 1.04835111,13.4291908 C1.47982591,12.8839128 2.03732207,12.5393613 2.72502867,12.4124672 C5.93874794,11.8200621 9.15683082,11.2486024 12.3647901,10.6258264 C14.039024,10.3006494 15.2468742,11.3765437 15.3631211,13.0087123 C15.4781461,14.6237756 14.839312,15.92204 13.5726403,16.9186909 C12.9755224,17.3885656 12.2665214,17.5288996 11.5362258,17.6025575 C10.0038968,17.7575533 8.47104422,17.9090582 6.93871522,18.0647522 C5.40603714,18.2204462 3.87388269,18.3794565 2.19790331,18.5515577 C0.893878943,18.768866 0.226070454,17.6262956 0.12169265,16.4374708 Z" id="Fill-1" fill="#3C3E73"></path>
                <path d="M0.174435479,7.07795856 C0.184214605,5.0877985 1.35366491,3.55442224 3.26039255,2.97982069 C6.26483257,2.07480578 9.26351262,1.15059095 12.2642872,0.233707 C12.5561261,0.144514596 12.8446487,0.0410095161 13.1506258,0.0125587101 C14.5150427,-0.113811741 15.4394321,0.720861598 15.5251336,2.18424539 C15.6448713,4.22659435 14.1413422,6.65241829 11.8534087,7.13259109 C8.65417664,7.80389048 5.47082818,8.55059323 2.27910156,9.25802339 C1.23881442,9.48877165 0.491762582,8.99027164 0.257697975,7.94370088 C0.193465481,7.65674919 0.174091006,7.36927387 0.174435479,7.07795856" id="Fill-3" fill="#3C3E73"></path>
                <path d="M2.87998956,30.2835356 C4.47056388,30.2835356 5.75997913,28.9941203 5.75997913,27.403546 C5.75997913,26.3431631 4.79998261,24.3068069 2.87998956,21.2944772 C0.959996522,24.3068069 0,26.3431631 0,27.403546 C0,28.9941203 1.28941525,30.2835356 2.87998956,30.2835356 Z" id="Oval" fill="url(#linearGradient-1)"></path>
            </g>
            <path d="M46.7885379,16.7204231 L36.524078,16.7204231 L36.524078,27 L34.6646839,27 L34.6646839,4.98961171 L48.3002404,4.98961171 L48.3002404,6.57689933 L36.524078,6.57689933 L36.524078,15.1331354 L46.7885379,15.1331354 L46.7885379,16.7204231 Z M67.9298653,4.98961171 L67.9298653,20.0159345 C67.9197872,21.4974103 67.5922549,22.7873836 66.9472586,23.8858929 C66.3022623,24.9844022 65.3927304,25.8284276 64.2186356,26.4179945 C63.0445408,27.0075615 61.6966196,27.3023405 60.1748315,27.3023405 C57.8568761,27.3023405 56.0000201,26.6699513 54.6042078,25.4051539 C53.2083955,24.1403565 52.485305,22.3893186 52.4349147,20.1519877 L52.4349147,4.98961171 L54.2791917,4.98961171 L54.2791917,19.8798813 C54.2791917,21.7342456 54.8082823,23.1728681 55.8664794,24.1957919 C56.9246764,25.2187157 58.3607794,25.7301699 60.1748315,25.7301699 C61.9888835,25.7301699 63.4224671,25.2161962 64.4756251,24.1882334 C65.5287831,23.1602705 66.0553542,21.7292065 66.0553542,19.8949983 L66.0553542,4.98961171 L67.9298653,4.98961171 Z M85.9570855,16.4483166 L75.6623915,16.4483166 L75.6623915,25.4278294 L87.499022,25.4278294 L87.499022,27 L73.8029974,27 L73.8029974,4.98961171 L87.4234369,4.98961171 L87.4234369,6.57689933 L75.6623915,6.57689933 L75.6623915,14.876146 L85.9570855,14.876146 L85.9570855,16.4483166 Z M93.9768352,25.4278294 L104.845976,25.4278294 L104.845976,27 L92.1023241,27 L92.1023241,4.98961171 L93.9768352,4.98961171 L93.9768352,25.4278294 Z M125.352388,19.8345302 C125.130671,22.1827198 124.26397,24.014381 122.75226,25.3295687 C121.24055,26.6447565 119.230006,27.3023405 116.720567,27.3023405 C114.966984,27.3023405 113.422543,26.8866265 112.087199,26.0551859 C110.751855,25.2237454 109.721388,24.0421098 108.995767,22.5102436 C108.270147,20.9783774 107.892225,19.1996253 107.861991,17.1739338 L107.861991,15.1180184 C107.861991,13.0419366 108.229834,11.2127949 108.965533,9.63053836 C109.701232,8.04828184 110.756894,6.82885402 112.13255,5.97221833 C113.508206,5.11558263 115.097997,4.68727121 116.901971,4.68727121 C119.330786,4.68727121 121.285901,5.3473747 122.767377,6.66760147 C124.248853,7.98782825 125.110515,9.85224268 125.352388,12.2609007 L121.542898,12.2609007 C121.361493,10.6786442 120.900428,9.53732021 120.15969,8.83689455 C119.418952,8.13646889 118.333057,7.78626132 116.901971,7.78626132 C115.23909,7.78626132 113.961715,8.39345575 113.069806,9.60786282 C112.177897,10.8222699 111.721871,12.6035415 111.701715,14.9517311 L111.701715,16.9018273 C111.701715,19.2802512 112.127507,21.094276 112.979103,22.3439563 C113.8307,23.5936366 115.077842,24.2184674 116.720567,24.2184674 C118.222199,24.2184674 119.350926,23.8808572 120.106781,23.2056267 C120.862636,22.5303963 121.341337,21.4067086 121.542898,19.8345302 L125.352388,19.8345302 Z M141.777204,21.8753286 L133.251202,21.8753286 L131.467393,27 L127.491615,27 L135.805979,4.98961171 L139.237544,4.98961171 L147.567025,27 L143.57613,27 L141.777204,21.8753286 Z M134.324511,18.7914555 L140.703895,18.7914555 L137.514203,9.66077241 L134.324511,18.7914555 Z M162.253382,21.3311157 C162.253382,20.3636212 161.913253,19.6178554 161.232983,19.093796 C160.598065,18.6046738 159.486896,18.1111689 157.899445,17.6132686 L157.551987,17.5065083 C155.778248,16.9723708 154.367339,16.3777738 153.31922,15.7226994 C151.313685,14.462941 150.310933,12.8202407 150.310933,10.7945493 C150.310933,9.02080949 151.034023,7.55951169 152.480226,6.41061205 C153.926428,5.26171241 155.80344,4.68727121 158.111317,4.68727121 C159.643184,4.68727121 161.008741,4.96945285 162.208031,5.53382461 C163.407321,6.09819636 164.349606,6.90191015 165.034915,7.94499008 C165.720223,8.98807002 166.062872,10.1445109 166.062872,11.4143473 L162.253382,11.4143473 C162.253382,10.2654477 161.893097,9.36599367 161.172515,8.71595835 C160.451933,8.06592303 159.421466,7.74091024 158.081083,7.74091024 C156.831403,7.74091024 155.861404,8.00797501 155.171056,8.54211257 C154.480708,9.07625012 154.13554,9.82201589 154.13554,10.7794323 C154.13554,11.5856776 154.508423,12.2583785 155.2542,12.7975551 C155.950258,13.3007866 157.067698,13.7908425 158.60655,14.2677357 L158.942754,14.3697257 C160.656025,14.8786681 162.031661,15.4581482 163.069702,16.1081835 C164.107742,16.7582189 164.868625,17.5039846 165.352372,18.3455032 C165.83612,19.1870218 166.07799,20.1721381 166.07799,21.3008816 C166.07799,23.1350898 165.375055,24.5938681 163.969165,25.6772603 C162.563274,26.7606525 160.656029,27.3023405 158.247371,27.3023405 C156.655036,27.3023405 155.191219,27.0075615 153.855875,26.4179945 C152.520531,25.8284276 151.482506,25.0146359 150.741768,23.976595 C150.00103,22.9385541 149.630666,21.7292042 149.630666,20.348509 L153.455274,20.348509 C153.455274,21.5981893 153.868468,22.5656693 154.69487,23.2509778 C155.521271,23.9362864 156.705426,24.2789355 158.247371,24.2789355 C159.577675,24.2789355 160.577909,24.0093513 161.2481,23.4701747 C161.918292,22.9309981 162.253382,22.2179855 162.253382,21.3311157 Z M186.025072,8.07348479 L179.161943,8.07348479 L179.161943,27 L175.367569,27 L175.367569,8.07348479 L168.564908,8.07348479 L168.564908,4.98961171 L186.025072,4.98961171 L186.025072,8.07348479 Z" id="FUELCAST" fill="#000000" fill-rule="nonzero"></path>
        </g>
    </g>
</svg>