<?xml version="1.0" encoding="UTF-8"?>
<svg width="187px" height="32px" viewBox="0 0 187 32" version="1.1" xmlns="http://www.w3.org/2000/svg" xmlns:xlink="http://www.w3.org/1999/xlink">
    <!-- Generator: Sketch 58 (84663) - https://sketch.com -->
    <title>fuelcastLogo</title>
    <desc>Created with Sketch.</desc>
    <g id="Final-Design" stroke="none" stroke-width="1" fill="none" fill-rule="evenodd">
        <g id="Home-Final" transform="translate(-214.000000, -1797.000000)" fill="#656868" fill-rule="nonzero">
            <g id="Headline-Group" transform="translate(0.000000, 1452.000000)">
                <g id="Group-4" transform="translate(190.000000, 339.000000)">
                    <g id="fuelcastLogo" transform="translate(24.000000, 1.000000)">
                        <g id="Group" transform="translate(0.031543, 5.747638)">
                            <path d="M0.12169265,16.4374708 C0.0237730048,15.3202094 0.350520912,14.3109913 1.04835111,13.4291908 C1.47982591,12.8839128 2.03732207,12.5393613 2.72502867,12.4124672 C5.93874794,11.8200621 9.15683082,11.2486024 12.3647901,10.6258264 C14.039024,10.3006494 15.2468742,11.3765437 15.3631211,13.0087123 C15.4781461,14.6237756 14.839312,15.92204 13.5726403,16.9186909 C12.9755224,17.3885656 12.2665214,17.5288996 11.5362258,17.6025575 C10.0038968,17.7575533 8.47104422,17.9090582 6.93871522,18.0647522 C5.40603714,18.2204462 3.87388269,18.3794565 2.19790331,18.5515577 C0.893878943,18.768866 0.226070454,17.6262956 0.12169265,16.4374708 Z" id="Fill-1"></path>
                            <path d="M0.174435479,7.07795856 C0.184214605,5.0877985 1.35366491,3.55442224 3.26039255,2.97982069 C6.26483257,2.07480578 9.26351262,1.15059095 12.2642872,0.233707 C12.5561261,0.144514596 12.8446487,0.0410095161 13.1506258,0.0125587101 C14.5150427,-0.113811741 15.4394321,0.720861598 15.5251336,2.18424539 C15.6448713,4.22659435 14.1413422,6.65241829 11.8534087,7.13259109 C8.65417664,7.80389048 5.47082818,8.55059323 2.27910156,9.25802339 C1.23881442,9.48877165 0.491762582,8.99027164 0.257697975,7.94370088 C0.193465481,7.65674919 0.174091006,7.36927387 0.174435479,7.07795856" id="Fill-3"></path>
                            <path d="M2.87998956,30.2835356 C4.47056388,30.2835356 5.75997913,28.9941203 5.75997913,27.403546 C5.75997913,26.3431631 4.79998261,24.3068069 2.87998956,21.2944772 C0.959996522,24.3068069 0,26.3431631 0,27.403546 C0,28.9941203 1.28941525,30.2835356 2.87998956,30.2835356 Z" id="Oval"></path>
                        </g>
                        <path d="M46.7885379,21.7204231 L36.524078,21.7204231 L36.524078,32 L34.6646839,32 L34.6646839,9.98961171 L48.3002404,9.98961171 L48.3002404,11.5768993 L36.524078,11.5768993 L36.524078,20.1331354 L46.7885379,20.1331354 L46.7885379,21.7204231 Z M67.9298653,9.98961171 L67.9298653,25.0159345 C67.9197872,26.4974103 67.5922549,27.7873836 66.9472586,28.8858929 C66.3022623,29.9844022 65.3927304,30.8284276 64.2186356,31.4179945 C63.0445408,32.0075615 61.6966196,32.3023405 60.1748315,32.3023405 C57.8568761,32.3023405 56.0000201,31.6699513 54.6042078,30.4051539 C53.2083955,29.1403565 52.485305,27.3893186 52.4349147,25.1519877 L52.4349147,9.98961171 L54.2791917,9.98961171 L54.2791917,24.8798813 C54.2791917,26.7342456 54.8082823,28.1728681 55.8664794,29.1957919 C56.9246764,30.2187157 58.3607794,30.7301699 60.1748315,30.7301699 C61.9888835,30.7301699 63.4224671,30.2161962 64.4756251,29.1882334 C65.5287831,28.1602705 66.0553542,26.7292065 66.0553542,24.8949983 L66.0553542,9.98961171 L67.9298653,9.98961171 Z M85.9570855,21.4483166 L75.6623915,21.4483166 L75.6623915,30.4278294 L87.499022,30.4278294 L87.499022,32 L73.8029974,32 L73.8029974,9.98961171 L87.4234369,9.98961171 L87.4234369,11.5768993 L75.6623915,11.5768993 L75.6623915,19.876146 L85.9570855,19.876146 L85.9570855,21.4483166 Z M93.9768352,30.4278294 L104.845976,30.4278294 L104.845976,32 L92.1023241,32 L92.1023241,9.98961171 L93.9768352,9.98961171 L93.9768352,30.4278294 Z M125.352388,24.8345302 C125.130671,27.1827198 124.26397,29.014381 122.75226,30.3295687 C121.24055,31.6447565 119.230006,32.3023405 116.720567,32.3023405 C114.966984,32.3023405 113.422543,31.8866265 112.087199,31.0551859 C110.751855,30.2237454 109.721388,29.0421098 108.995767,27.5102436 C108.270147,25.9783774 107.892225,24.1996253 107.861991,22.1739338 L107.861991,20.1180184 C107.861991,18.0419366 108.229834,16.2127949 108.965533,14.6305384 C109.701232,13.0482818 110.756894,11.828854 112.13255,10.9722183 C113.508206,10.1155826 115.097997,9.68727121 116.901971,9.68727121 C119.330786,9.68727121 121.285901,10.3473747 122.767377,11.6676015 C124.248853,12.9878283 125.110515,14.8522427 125.352388,17.2609007 L121.542898,17.2609007 C121.361493,15.6786442 120.900428,14.5373202 120.15969,13.8368946 C119.418952,13.1364689 118.333057,12.7862613 116.901971,12.7862613 C115.23909,12.7862613 113.961715,13.3934557 113.069806,14.6078628 C112.177897,15.8222699 111.721871,17.6035415 111.701715,19.9517311 L111.701715,21.9018273 C111.701715,24.2802512 112.127507,26.094276 112.979103,27.3439563 C113.8307,28.5936366 115.077842,29.2184674 116.720567,29.2184674 C118.222199,29.2184674 119.350926,28.8808572 120.106781,28.2056267 C120.862636,27.5303963 121.341337,26.4067086 121.542898,24.8345302 L125.352388,24.8345302 Z M141.777204,26.8753286 L133.251202,26.8753286 L131.467393,32 L127.491615,32 L135.805979,9.98961171 L139.237544,9.98961171 L147.567025,32 L143.57613,32 L141.777204,26.8753286 Z M134.324511,23.7914555 L140.703895,23.7914555 L137.514203,14.6607724 L134.324511,23.7914555 Z M162.253382,26.3311157 C162.253382,25.3636212 161.913253,24.6178554 161.232983,24.093796 C160.598065,23.6046738 159.486896,23.1111689 157.899445,22.6132686 L157.551987,22.5065083 C155.778248,21.9723708 154.367339,21.3777738 153.31922,20.7226994 C151.313685,19.462941 150.310933,17.8202407 150.310933,15.7945493 C150.310933,14.0208095 151.034023,12.5595117 152.480226,11.4106121 C153.926428,10.2617124 155.80344,9.68727121 158.111317,9.68727121 C159.643184,9.68727121 161.008741,9.96945285 162.208031,10.5338246 C163.407321,11.0981964 164.349606,11.9019101 165.034915,12.9449901 C165.720223,13.98807 166.062872,15.1445109 166.062872,16.4143473 L162.253382,16.4143473 C162.253382,15.2654477 161.893097,14.3659937 161.172515,13.7159584 C160.451933,13.065923 159.421466,12.7409102 158.081083,12.7409102 C156.831403,12.7409102 155.861404,13.007975 155.171056,13.5421126 C154.480708,14.0762501 154.13554,14.8220159 154.13554,15.7794323 C154.13554,16.5856776 154.508423,17.2583785 155.2542,17.7975551 C155.950258,18.3007866 157.067698,18.7908425 158.60655,19.2677357 L158.942754,19.3697257 C160.656025,19.8786681 162.031661,20.4581482 163.069702,21.1081835 C164.107742,21.7582189 164.868625,22.5039846 165.352372,23.3455032 C165.83612,24.1870218 166.07799,25.1721381 166.07799,26.3008816 C166.07799,28.1350898 165.375055,29.5938681 163.969165,30.6772603 C162.563274,31.7606525 160.656029,32.3023405 158.247371,32.3023405 C156.655036,32.3023405 155.191219,32.0075615 153.855875,31.4179945 C152.520531,30.8284276 151.482506,30.0146359 150.741768,28.976595 C150.00103,27.9385541 149.630666,26.7292042 149.630666,25.348509 L153.455274,25.348509 C153.455274,26.5981893 153.868468,27.5656693 154.69487,28.2509778 C155.521271,28.9362864 156.705426,29.2789355 158.247371,29.2789355 C159.577675,29.2789355 160.577909,29.0093513 161.2481,28.4701747 C161.918292,27.9309981 162.253382,27.2179855 162.253382,26.3311157 Z M186.025072,13.0734848 L179.161943,13.0734848 L179.161943,32 L175.367569,32 L175.367569,13.0734848 L168.564908,13.0734848 L168.564908,9.98961171 L186.025072,9.98961171 L186.025072,13.0734848 Z" id="FUELCAST"></path>
                    </g>
                </g>
            </g>
        </g>
    </g>
</svg>