<svg width="212" height="46" xmlns="http://www.w3.org/2000/svg"><path d="M198.516 27.612l6.345 8.337c1.34 1.81 2.043 2.76 2.513 3.667l.072.143V27.612h3.76v17.625h-3.76l-6.58-9.05c-1.106-1.57-1.795-2.506-2.264-3.206l-.086-.129v12.385h-3.76V27.612h3.76zm-120.085 0v7.146h7.99v-7.146h3.76v17.625h-3.76v-7.145h-7.99v7.145h-3.525V27.612h3.525zm24.49 0l7.235 17.625h-3.967V45l-1.634-3.81h-6.068l-1.634 4.048h-3.734l7.235-17.625h2.567zm16.4 0c4.7 0 6.345 2.382 6.345 5.002 0 2.067-1.092 3.691-3.067 4.445l-.223.08c.705.477 3.055 4.05 5.405 7.86h-3.995v.238c-2.35-3.81-3.76-6.43-4.465-6.668h-1.88v6.668h-3.76V27.612h5.64zm17.625 0c4.7 0 6.345 2.382 6.345 5.002 0 2.067-1.092 3.691-3.067 4.445l-.223.08c.705.477 3.055 4.05 5.405 7.86h-3.995v.238c-2.35-3.81-3.76-6.43-4.465-6.668h-1.88v6.668h-3.76V27.612h5.64zm16.098 0v17.625h-3.525V27.612h3.525zm28.317 0c2.585 0 4.7.928 6.11 2.32 1.645 1.623 2.585 3.942 2.585 6.493 0 2.783-.94 5.102-2.82 6.725-1.41 1.392-3.525 2.087-6.11 2.087-2.35 0-4.465-.695-5.875-2.087-1.88-1.623-2.82-3.942-2.82-6.725 0-2.783.94-5.102 2.82-6.725 1.645-1.392 3.525-2.088 6.11-2.088zm-17.984 0c1.843 0 3.456.464 4.608.928v3.247c-1.383-.928-2.995-1.16-4.147-1.16-1.383 0-2.535.464-2.535 1.624 0 3.246 7.603 1.855 7.603 8.116 0 3.015-2.995 4.87-6.22 4.87-2.535 0-4.147-.463-5.53-1.39l1.152-2.552c.922.696 2.535 1.16 3.917 1.16 1.613 0 2.995-.696 2.995-2.088 0-2.55-3.917-2.55-6.22-4.638-.922-.927-1.383-1.855-1.383-3.478 0-2.783 2.074-4.639 5.76-4.639zm17.75 2.783c-3.056 0-4.936 2.32-4.936 6.03 0 3.71 1.88 6.03 4.935 6.03 3.055 0 4.935-2.32 4.935-5.798 0-3.943-1.88-6.262-4.935-6.262zm-79.606 1.981c-.234.715-.467 1.43-.934 2.382l-1.167 3.334h4.201l-1.167-3.096c-.415-.847-.645-1.694-.855-2.373l-.078-.247zm35.425-1.667h-1.88v5.24h2.115c1.645 0 2.585-1.191 2.585-2.62 0-1.43-.94-2.62-2.82-2.62zm-17.625 0h-1.88v5.24h2.115c1.645 0 2.585-1.191 2.585-2.62 0-1.43-.94-2.62-2.82-2.62zM24.97 0l-.95 2.858h-6.413v4.287h6.413v2.858h-6.413v4.526h7.125v3.096H13.806V0H24.97zm15.275 0l-.95 2.858H32.88v4.287h6.413v2.858H32.88v4.526h7.125v3.096H29.081V0h11.163zm17.272 0v6.907h7.99V0h3.525v17.625h-3.525v-7.383h-7.99v7.383h-3.76V0h3.76zM86.07 0L84.88 2.858H78.47v4.287h6.412v2.858H78.47v4.526h7.125v3.096H74.906V0H86.07zm12.176 0c1.895 0 3.554.232 4.975 1.16v3.246c-1.185-.927-2.606-1.391-4.501-1.391-3.553 0-5.922 2.55-5.922 6.03 0 3.478 2.369 5.797 5.685 5.797a7.111 7.111 0 004.264-1.391l.948 2.55c-1.422.928-3.79 1.624-5.923 1.624-5.211 0-8.765-3.479-8.765-8.58 0-5.566 4.027-9.045 9.24-9.045zm13.321 0v6.907h7.99V0h3.525v17.625h-3.525v-7.383h-7.99v7.383h-3.76V0h3.76zm30.315 0l-.932 3.096h-4.896v14.529h-3.73V3.096h-5.13V0h14.688zM3.9 0v14.529h6.97v3.096H.294V0h3.605z" fill="#656868" fill-rule="nonzero"/></svg>