<?xml version="1.0" encoding="UTF-8"?>
<svg width="360px" height="77px" viewBox="0 0 360 77" version="1.1" xmlns="http://www.w3.org/2000/svg" xmlns:xlink="http://www.w3.org/1999/xlink">
    <!-- Generator: Sketch 63.1 (92452) - https://sketch.com -->
    <title>LLH-Logo</title>
    <desc>Created with Sketch.</desc>
    <g id="Final-Design" stroke="none" stroke-width="1" fill="none" fill-rule="evenodd">
        <g id="LLH-Logo" fill="#006F62" fill-rule="nonzero">
            <polygon id="Path" points="0.5 0 0.5 30 18.5 30 18.5 24.7297297 6.63636364 24.7297297 6.63636364 0"></polygon>
            <polygon id="Path" points="23.5 0 23.5 30 42.0957447 30 42.0957447 24.7297297 29.9680851 24.7297297 29.9680851 17.027027 40.8829787 17.027027 40.8829787 12.1621622 29.9680851 12.1621622 29.9680851 4.86486486 40.8829787 4.86486486 42.5 0"></polygon>
            <polygon id="Path" points="49.5 0 49.5 30 68.0957447 30 68.0957447 24.7297297 55.9680851 24.7297297 55.9680851 17.027027 66.8829787 17.027027 66.8829787 12.1621622 55.9680851 12.1621622 55.9680851 4.86486486 66.8829787 4.86486486 68.5 0"></polygon>
            <polygon id="Path" points="111.5 0 111.5 11.7567568 97.9 11.7567568 97.9 0 91.5 0 91.5 30 97.9 30 97.9 17.4324324 111.5 17.4324324 111.5 30 117.5 30 117.5 0"></polygon>
            <polygon id="Path" points="127.5 0 127.5 30 145.691489 30 145.691489 24.7297297 133.56383 24.7297297 133.56383 17.027027 144.478723 17.027027 144.478723 12.1621622 133.56383 12.1621622 133.56383 4.86486486 144.478723 4.86486486 146.5 0"></polygon>
            <path d="M166.419355,30 C157.548387,30 151.5,24.0789474 151.5,15.3947368 C151.5,5.92105263 158.354839,0 167.225806,0 C170.451613,0 173.274194,0.394736842 175.693548,1.97368421 L175.693548,7.5 C173.677419,5.92105263 171.258065,5.13157895 168.032258,5.13157895 C161.983871,5.13157895 157.951613,9.47368421 157.951613,15.3947368 C157.951613,21.3157895 161.983871,25.2631579 167.629032,25.2631579 C170.854839,25.2631579 173.274194,24.0789474 174.887097,22.8947368 L176.5,27.2368421 C174.080645,28.8157895 170.048387,30 166.419355,30" id="Path"></path>
            <polygon id="Path" points="203.5 0 203.5 11.7567568 189.9 11.7567568 189.9 0 183.5 0 183.5 30 189.9 30 189.9 17.4324324 203.5 17.4324324 203.5 30 209.5 30 209.5 0"></polygon>
            <polygon id="Path" points="216.5 0 216.5 5.27027027 225.230159 5.27027027 225.230159 30 231.579365 30 231.579365 5.27027027 239.912698 5.27027027 241.5 0"></polygon>
            <polygon id="Path" points="147.1 47 147.1 59.1621622 133.5 59.1621622 133.5 47 127.5 47 127.5 77 133.5 77 133.5 64.8378378 147.1 64.8378378 147.1 77 153.5 77 153.5 47"></polygon>
            <path d="M180.746575,76.5945946 L177.965753,70.1081081 L167.636986,70.1081081 L164.856164,77 L158.5,77 L170.815068,47 L175.184932,47 L187.5,77 L180.746575,77 L180.746575,76.5945946 Z M174.390411,59.5675676 C173.59589,57.9459459 173.19863,56.3243243 172.80137,55.1081081 L172.80137,55.1081081 C172.40411,56.3243243 172.006849,57.5405405 171.212329,59.1621622 L169.226027,64.8378378 L176.376712,64.8378378 L174.390411,59.5675676 Z" id="Shape"></path>
            <path d="M210.7,77 C206.7,70.5135135 204.3,66.0540541 203.1,65.6486486 L199.9,65.6486486 L199.9,77 L193.5,77 L193.5,47 L203.1,47 C211.1,47 213.9,51.0540541 213.9,55.5135135 C213.9,59.1621622 211.9,62 208.3,63.2162162 L208.3,63.2162162 C209.5,64.027027 213.5,70.1081081 217.5,76.5945946 L210.7,76.5945946 L210.7,77 Z M199.9,52.2702703 L199.9,61.1891892 L203.5,61.1891892 C206.3,61.1891892 207.9,59.1621622 207.9,56.7297297 C207.9,54.2972973 206.3,52.2702703 203.1,52.2702703 L199.9,52.2702703 Z" id="Shape"></path>
            <path d="M240.7,77 C236.7,70.5135135 234.3,66.0540541 233.1,65.6486486 L229.9,65.6486486 L229.9,77 L223.5,77 L223.5,47 L233.1,47 C241.1,47 243.9,51.0540541 243.9,55.5135135 C243.9,59.1621622 241.9,62 238.3,63.2162162 L238.3,63.2162162 C239.5,64.027027 243.5,70.1081081 247.5,76.5945946 L240.7,76.5945946 L240.7,77 Z M229.9,52.2702703 L229.9,61.1891892 L233.5,61.1891892 C236.3,61.1891892 237.9,59.1621622 237.9,56.7297297 C237.9,54.2972973 236.3,52.2702703 233.1,52.2702703 L229.9,52.2702703 Z" id="Shape"></path>
            <rect id="Rectangle" x="254.5" y="47" width="6" height="30"></rect>
            <path d="M276.911765,77 C272.598039,77 269.852941,76.2105263 267.5,74.6315789 L269.460784,70.2894737 C271.029412,71.4736842 273.77451,72.2631579 276.127451,72.2631579 C278.872549,72.2631579 281.22549,71.0789474 281.22549,68.7105263 C281.22549,64.3684211 274.558824,64.3684211 270.637255,60.8157895 C269.068627,59.2368421 268.284314,57.6578947 268.284314,54.8947368 C268.284314,50.1578947 271.813725,47 278.088235,47 C281.22549,47 283.970588,47.7894737 285.931373,48.5789474 L285.931373,54.1052632 C283.578431,52.5263158 280.833333,52.1315789 278.872549,52.1315789 C276.519608,52.1315789 274.558824,52.9210526 274.558824,54.8947368 C274.558824,60.4210526 287.5,58.0526316 287.5,68.7105263 C287.5,73.8421053 282.401961,77 276.911765,77" id="Path"></path>
            <path d="M318.7,73.4473684 C316.3,75.8157895 312.7,77 308.3,77 C304.3,77 300.7,75.8157895 298.3,73.4473684 C295.1,70.6842105 293.5,66.7368421 293.5,62 C293.5,57.2631579 295.1,53.3157895 298.3,50.5526316 C301.1,48.1842105 304.3,47 308.7,47 C313.1,47 316.7,48.5789474 319.1,50.9473684 C321.9,53.7105263 323.5,57.6578947 323.5,62 C323.5,66.7368421 321.9,70.6842105 318.7,73.4473684 M308.3,51.7368421 C303.1,51.7368421 299.9,55.6842105 299.9,62 C299.9,68.3157895 303.1,72.2631579 308.3,72.2631579 C313.5,72.2631579 316.7,68.3157895 316.7,62.3947368 C316.7,55.6842105 313.5,51.7368421 308.3,51.7368421" id="Shape"></path>
            <path d="M353.1,77 L341.9,61.5945946 C339.9,58.7567568 338.7,57.1351351 337.9,55.9189189 L337.9,55.9189189 C337.9,57.1351351 337.9,59.1621622 337.9,61.1891892 L337.9,77 L331.5,77 L331.5,47 L337.9,47 L348.7,61.1891892 C351.1,64.4324324 352.3,66.0540541 353.1,67.6756757 L353.1,67.6756757 C353.1,66.0540541 353.1,64.4324324 353.1,62.4054054 L353.1,47 L359.5,47 L359.5,77 L353.1,77 Z" id="Path"></path>
        </g>
    </g>
</svg>