<?xml version="1.0" encoding="UTF-8"?>
<svg width="235px" height="51px" viewBox="0 0 235 51" version="1.1" xmlns="http://www.w3.org/2000/svg" xmlns:xlink="http://www.w3.org/1999/xlink">
    <!-- Generator: Sketch 58 (84663) - https://sketch.com -->
    <title>lhhLogo</title>
    <desc>Created with Sketch.</desc>
    <g id="Final-Design" stroke="none" stroke-width="1" fill="none" fill-rule="evenodd">
        <g id="Home-Final" transform="translate(-1016.000000, -1917.000000)" fill="#656868" fill-rule="nonzero">
            <g id="Headline-Group" transform="translate(0.000000, 1452.000000)">
                <g id="Group-4" transform="translate(190.000000, 339.000000)">
                    <g id="lhhLogo" transform="translate(826.000000, 126.000000)">
                        <polygon id="Path" points="0.326388889 0 0.326388889 19.5833333 12.0763889 19.5833333 12.0763889 16.143018 4.33207071 16.143018 4.33207071 0"></polygon>
                        <polygon id="Path" points="15.3402778 0 15.3402778 19.5833333 27.4791667 19.5833333 27.4791667 16.143018 19.5625 16.143018 19.5625 11.1148649 26.6875 11.1148649 26.6875 7.93918919 19.5625 7.93918919 19.5625 3.17567568 26.6875 3.17567568 27.7430556 0"></polygon>
                        <polygon id="Path" points="32.3125 0 32.3125 19.5833333 44.4513889 19.5833333 44.4513889 16.143018 36.5347222 16.143018 36.5347222 11.1148649 43.6597222 11.1148649 43.6597222 7.93918919 36.5347222 7.93918919 36.5347222 3.17567568 43.6597222 3.17567568 44.7152778 0"></polygon>
                        <polygon id="Path" points="72.7847222 0 72.7847222 7.67454955 63.9069444 7.67454955 63.9069444 0 59.7291667 0 59.7291667 19.5833333 63.9069444 19.5833333 63.9069444 11.3795045 72.7847222 11.3795045 72.7847222 19.5833333 76.7013889 19.5833333 76.7013889 0"></polygon>
                        <polygon id="Path" points="83.2291667 0 83.2291667 19.5833333 95.1041667 19.5833333 95.1041667 16.143018 87.1875 16.143018 87.1875 11.1148649 94.3125 11.1148649 94.3125 7.93918919 87.1875 7.93918919 87.1875 3.17567568 94.3125 3.17567568 95.6319444 0"></polygon>
                        <path d="M108.634857,19.5833333 C102.844086,19.5833333 98.8958333,15.7182018 98.8958333,10.0493421 C98.8958333,3.86513158 103.37052,0 109.16129,0 C111.267025,0 113.109543,0.257675439 114.688844,1.28837719 L114.688844,4.89583333 C113.37276,3.86513158 111.793459,3.3497807 109.687724,3.3497807 C105.739471,3.3497807 103.107303,6.18421053 103.107303,10.0493421 C103.107303,13.9144737 105.739471,16.4912281 109.424507,16.4912281 C111.530242,16.4912281 113.109543,15.7182018 114.16241,14.9451754 L115.215278,17.7796053 C113.635977,18.810307 111.003808,19.5833333 108.634857,19.5833333" id="Path"></path>
                        <polygon id="Path" points="132.840278 0 132.840278 7.67454955 123.9625 7.67454955 123.9625 0 119.784722 0 119.784722 19.5833333 123.9625 19.5833333 123.9625 11.3795045 132.840278 11.3795045 132.840278 19.5833333 136.756944 19.5833333 136.756944 0"></polygon>
                        <polygon id="Path" points="141.326389 0 141.326389 3.44031532 147.025243 3.44031532 147.025243 19.5833333 151.169863 19.5833333 151.169863 3.44031532 156.609678 3.44031532 157.645833 0"></polygon>
                        <polygon id="Path" points="96.0236111 30.6805556 96.0236111 38.6197447 87.1458333 38.6197447 87.1458333 30.6805556 83.2291667 30.6805556 83.2291667 50.2638889 87.1458333 50.2638889 87.1458333 42.3246997 96.0236111 42.3246997 96.0236111 50.2638889 100.201389 50.2638889 100.201389 30.6805556"></polygon>
                        <path d="M117.987348,49.9992492 L116.172089,45.765015 L109.429699,45.765015 L107.614441,50.2638889 L103.465278,50.2638889 L111.504281,30.6805556 L114.35683,30.6805556 L122.395833,50.2638889 L117.987348,50.2638889 L117.987348,49.9992492 Z M113.838185,38.8843844 C113.31954,37.8258258 113.060217,36.7672673 112.800894,35.9733483 L112.800894,35.9733483 C112.541572,36.7672673 112.282249,37.5611862 111.763604,38.6197447 L110.46699,42.3246997 L115.134798,42.3246997 L113.838185,38.8843844 Z" id="Shape"></path>
                        <path d="M137.540278,50.2638889 C134.929167,46.0296547 133.3625,43.1186186 132.579167,42.853979 L130.490278,42.853979 L130.490278,50.2638889 L126.3125,50.2638889 L126.3125,30.6805556 L132.579167,30.6805556 C137.801389,30.6805556 139.629167,33.326952 139.629167,36.237988 C139.629167,38.6197447 138.323611,40.4722222 135.973611,41.2661411 L135.973611,41.2661411 C136.756944,41.7954204 139.368056,45.765015 141.979167,49.9992492 L137.540278,49.9992492 L137.540278,50.2638889 Z M130.490278,34.1208709 L130.490278,39.9429429 L132.840278,39.9429429 C134.668056,39.9429429 135.7125,38.6197447 135.7125,37.0319069 C135.7125,35.4440691 134.668056,34.1208709 132.579167,34.1208709 L130.490278,34.1208709 Z" id="Shape"></path>
                        <path d="M157.123611,50.2638889 C154.5125,46.0296547 152.945833,43.1186186 152.1625,42.853979 L150.073611,42.853979 L150.073611,50.2638889 L145.895833,50.2638889 L145.895833,30.6805556 L152.1625,30.6805556 C157.384722,30.6805556 159.2125,33.326952 159.2125,36.237988 C159.2125,38.6197447 157.906944,40.4722222 155.556944,41.2661411 L155.556944,41.2661411 C156.340278,41.7954204 158.951389,45.765015 161.5625,49.9992492 L157.123611,49.9992492 L157.123611,50.2638889 Z M150.073611,34.1208709 L150.073611,39.9429429 L152.423611,39.9429429 C154.251389,39.9429429 155.295833,38.6197447 155.295833,37.0319069 C155.295833,35.4440691 154.251389,34.1208709 152.1625,34.1208709 L150.073611,34.1208709 Z" id="Shape"></path>
                        <rect id="Rectangle" x="166.131944" y="30.6805556" width="3.91666667" height="19.5833333"></rect>
                        <path d="M180.761846,50.2638889 C177.945942,50.2638889 176.154003,49.748538 174.618056,48.7178363 L175.898012,45.8834064 C176.921977,46.6564327 178.713916,47.1717836 180.249864,47.1717836 C182.041803,47.1717836 183.577751,46.3987573 183.577751,44.8527047 C183.577751,42.0182749 179.225899,42.0182749 176.665986,39.6991959 C175.642021,38.6684942 175.130038,37.6377924 175.130038,35.8340643 C175.130038,32.7419591 177.43396,30.6805556 181.52982,30.6805556 C183.577751,30.6805556 185.36969,31.1959064 186.649646,31.7112573 L186.649646,35.3187135 C185.113698,34.2880117 183.321759,34.0303363 182.041803,34.0303363 C180.505855,34.0303363 179.225899,34.5456871 179.225899,35.8340643 C179.225899,39.4415205 187.673611,37.8954678 187.673611,44.8527047 C187.673611,48.2024854 184.345724,50.2638889 180.761846,50.2638889" id="Path"></path>
                        <path d="M208.040278,47.9448099 C206.473611,49.4908626 204.123611,50.2638889 201.251389,50.2638889 C198.640278,50.2638889 196.290278,49.4908626 194.723611,47.9448099 C192.634722,46.1410819 191.590278,43.5643275 191.590278,40.4722222 C191.590278,37.380117 192.634722,34.8033626 194.723611,32.9996345 C196.551389,31.4535819 198.640278,30.6805556 201.5125,30.6805556 C204.384722,30.6805556 206.734722,31.7112573 208.301389,33.2573099 C210.129167,35.061038 211.173611,37.6377924 211.173611,40.4722222 C211.173611,43.5643275 210.129167,46.1410819 208.040278,47.9448099 M201.251389,33.7726608 C197.856944,33.7726608 195.768056,36.3494152 195.768056,40.4722222 C195.768056,44.5950292 197.856944,47.1717836 201.251389,47.1717836 C204.645833,47.1717836 206.734722,44.5950292 206.734722,40.7298977 C206.734722,36.3494152 204.645833,33.7726608 201.251389,33.7726608" id="Shape"></path>
                        <path d="M230.495833,50.2638889 L223.184722,40.2075826 C221.879167,38.3551051 221.095833,37.2965465 220.573611,36.5026276 L220.573611,36.5026276 C220.573611,37.2965465 220.573611,38.6197447 220.573611,39.9429429 L220.573611,50.2638889 L216.395833,50.2638889 L216.395833,30.6805556 L220.573611,30.6805556 L227.623611,39.9429429 C229.190278,42.0600601 229.973611,43.1186186 230.495833,44.1771772 L230.495833,44.1771772 C230.495833,43.1186186 230.495833,42.0600601 230.495833,40.7368619 L230.495833,30.6805556 L234.673611,30.6805556 L234.673611,50.2638889 L230.495833,50.2638889 Z" id="Path"></path>
                    </g>
                </g>
            </g>
        </g>
    </g>
</svg>