<?xml version="1.0" encoding="UTF-8"?>
<svg width="96px" height="17px" viewBox="0 0 96 17" version="1.1" xmlns="http://www.w3.org/2000/svg" xmlns:xlink="http://www.w3.org/1999/xlink">
    <!-- Generator: Sketch 58 (84663) - https://sketch.com -->
    <title>Logo</title>
    <desc>Created with Sketch.</desc>
    <g id="Final-Design" stroke="none" stroke-width="1" fill="none" fill-rule="evenodd">
        <g id="Home-Final" transform="translate(-136.000000, -50.000000)">
            <g id="Navbar">
                <g id="Logo" transform="translate(136.000000, 50.000000)">
                    <path d="M3.77965393,7.85694635 L6.71670986,7.85694635 C7.15004814,7.85694635 7.5673306,7.82576831 7.96856976,7.76341128 C8.36980891,7.70105425 8.72289407,7.58023932 9.02783583,7.40096286 C9.33277758,7.2216864 9.5775298,6.96836477 9.76209981,6.64099037 C9.94666982,6.31361597 10.0389534,5.88491783 10.0389534,5.35488308 C10.0389534,4.82484834 9.94666982,4.39615019 9.76209981,4.06877579 C9.5775298,3.74140139 9.33277758,3.48807976 9.02783583,3.3088033 C8.72289407,3.12952684 8.36980891,3.00871191 7.96856976,2.94635488 C7.5673306,2.88399785 7.15004814,2.85281981 6.71670986,2.85281981 L3.77965393,2.85281981 L3.77965393,7.85694635 Z M0,0 L7.7519017,0 C8.82722263,0 9.74203418,0.151992978 10.4963638,0.455983494 C11.2506934,0.75997401 11.8645801,1.16139136 12.3380423,1.66024759 C12.8115045,2.15910382 13.156565,2.72810318 13.3732341,3.36726272 C13.5899033,4.00642227 13.6982362,4.66895576 13.6982362,5.35488308 C13.6982362,6.02522114 13.5899033,6.68385738 13.3732341,7.33081155 C13.156565,7.97776573 12.8115045,8.55066234 12.3380423,9.04951857 C11.8645801,9.5483748 11.2506934,9.94979215 10.4963638,10.2537827 C9.74203418,10.5577732 8.82722263,10.7097662 7.7519017,10.7097662 L3.77965393,10.7097662 L3.77965393,16.696011 L0,16.696011 L0,0 Z M14.7896013,4.60660248 L18.2081418,4.60660248 L18.2081418,16.696011 L14.7896013,16.696011 L14.7896013,4.60660248 Z M23.0791607,10.3356259 L18.9865418,4.60660248 L22.8865669,4.60660248 L25.0773217,7.76341128 L27.2440023,4.60660248 L31.0236563,4.60660248 L26.9310374,10.2654746 L31.5292151,16.696011 L27.62919,16.696011 L25.0291733,12.8844567 L22.4291566,16.696011 L18.6013542,16.696011 L23.0791607,10.3356259 Z M40.2039622,9.35350757 C40.0434666,8.51168768 39.758591,7.87253772 39.3493271,7.43603851 C38.9400632,6.99953931 38.3181518,6.78129298 37.4835744,6.78129298 C36.9378891,6.78129298 36.4844957,6.87092987 36.1233804,7.05020633 C35.7622652,7.22948279 35.4733773,7.45162637 35.2567082,7.71664374 C35.040039,7.98166111 34.8875704,8.26226354 34.7992978,8.55845942 C34.7110252,8.85465531 34.6588649,9.11966871 34.6428153,9.35350757 L40.2039622,9.35350757 Z M34.6428153,11.4580468 C34.690964,12.5337055 34.9718272,13.3131567 35.4854134,13.7964237 C35.9989995,14.2796906 36.7372684,14.5213205 37.7002424,14.5213205 C38.3903738,14.5213205 38.9841988,14.3537385 39.4817354,14.0185695 C39.9792719,13.6834004 40.2842091,13.3287502 40.396556,12.954608 L43.4058347,12.954608 C42.9243477,14.4044089 42.1860787,15.441079 41.1910056,16.0646492 C40.1959325,16.6882195 38.9922331,17 37.5798713,17 C36.6008477,17 35.7181348,16.848007 34.9317061,16.5440165 C34.1452774,16.240026 33.4792303,15.8074306 32.9335451,15.2462173 C32.3878598,14.6850041 31.9665651,14.0146761 31.6696481,13.2352132 C31.3727311,12.4557503 31.2242748,11.5983541 31.2242748,10.6629986 C31.2242748,9.75882171 31.3767434,8.91701444 31.6816852,8.13755158 C31.986627,7.35808872 32.4199587,6.68386346 32.9816936,6.11485557 C33.5434284,5.54584768 34.2134877,5.09766326 34.9918917,4.77028886 C35.7702956,4.44291446 36.6329469,4.27922971 37.5798713,4.27922971 C38.6391426,4.27922971 39.5619788,4.47798976 40.3484076,4.87551582 C41.1348363,5.27304188 41.7808217,5.80696593 42.286383,6.47730399 C42.7919443,7.14764205 43.1570665,7.9115042 43.3817604,8.76891334 C43.6064544,9.62632249 43.686701,10.5226913 43.6225027,11.4580468 L34.6428153,11.4580468 Z M44.737942,0 L48.1564825,0 L48.1564825,16.696011 L44.737942,16.696011 L44.737942,0 Z M53.9904706,7.85694635 L56.9275265,7.85694635 C57.3608648,7.85694635 57.7781473,7.82576831 58.1793864,7.76341128 C58.5806256,7.70105425 58.9337108,7.58023932 59.2386525,7.40096286 C59.5435943,7.2216864 59.7883465,6.96836477 59.9729165,6.64099037 C60.1574865,6.31361597 60.2497701,5.88491783 60.2497701,5.35488308 C60.2497701,4.82484834 60.1574865,4.39615019 59.9729165,4.06877579 C59.7883465,3.74140139 59.5435943,3.48807976 59.2386525,3.3088033 C58.9337108,3.12952684 58.5806256,3.00871191 58.1793864,2.94635488 C57.7781473,2.88399785 57.3608648,2.85281981 56.9275265,2.85281981 L53.9904706,2.85281981 L53.9904706,7.85694635 Z M50.2108167,0 L57.9627184,0 C59.0380393,0 59.9528509,0.151992978 60.7071805,0.455983494 C61.4615101,0.75997401 62.0753968,1.16139136 62.548859,1.66024759 C63.0223212,2.15910382 63.3673817,2.72810318 63.5840508,3.36726272 C63.80072,4.00642227 63.9090529,4.66895576 63.9090529,5.35488308 C63.9090529,6.02522114 63.80072,6.68385738 63.5840508,7.33081155 C63.3673817,7.97776573 63.0223212,8.55066234 62.548859,9.04951857 C62.0753968,9.5483748 61.4615101,9.94979215 60.7071805,10.2537827 C59.9528509,10.5577732 59.0380393,10.7097662 57.9627184,10.7097662 L53.9904706,10.7097662 L53.9904706,16.696011 L50.2108167,16.696011 L50.2108167,0 Z M65.000418,4.60660248 L68.4189585,4.60660248 L68.4189585,16.696011 L65.000418,16.696011 L65.000418,4.60660248 Z M70.1121792,4.60660248 L73.3622001,4.60660248 L73.3622001,6.29023384 L73.4344228,6.29023384 C73.8677611,5.58871726 74.4294875,5.07817675 75.1196188,4.75859697 C75.8097502,4.4390172 76.5159205,4.27922971 77.238151,4.27922971 C78.1529762,4.27922971 78.9032822,4.40004464 79.4890914,4.64167813 C80.0749005,4.88331162 80.5363186,5.21847562 80.8733595,5.64718019 C81.2104004,6.07588477 81.447128,6.59811705 81.5835493,7.21389271 C81.7199706,7.82966837 81.7881802,8.51168814 81.7881802,9.25997249 L81.7881802,16.696011 L78.3696397,16.696011 L78.3696397,9.86795048 C78.3696397,8.87023802 78.2091465,8.12586215 77.8881551,7.63480055 C77.5671638,7.14373895 76.9974128,6.89821183 76.1788849,6.89821183 C75.2480101,6.89821183 74.5739384,7.16712248 74.1566497,7.70495186 C73.7393609,8.24278123 73.5307197,9.12745831 73.5307197,10.3590096 L73.5307197,16.696011 L70.1121792,16.696011 L70.1121792,4.60660248 Z M83.698069,0 L87.1166095,0 L87.1166095,8.95598349 L91.4258965,4.60660248 L95.470367,4.60660248 L90.7758923,9.04951857 L96,16.696011 L91.8592326,16.696011 L88.4406921,11.2943604 L87.1166095,12.5337001 L87.1166095,16.696011 L83.698069,16.696011 L83.698069,0 Z" id="PixelPink" fill="#ffffff"></path>
                    <polygon id="Path" fill="#E6004E" points="18 3 15 3 15 0 18 0"></polygon>
                    <polygon id="Path" fill="#E6004E" points="68 3 65 3 65 0 68 0"></polygon>
                </g>
            </g>
        </g>
    </g>
</svg>