<?xml version="1.0" encoding="UTF-8"?>
<svg width="235px" height="34px" viewBox="0 0 235 34" version="1.1" xmlns="http://www.w3.org/2000/svg" xmlns:xlink="http://www.w3.org/1999/xlink">
    <!-- Generator: Sketch 58 (84663) - https://sketch.com -->
    <title>mediapioneerLogo</title>
    <desc>Created with Sketch.</desc>
    <defs>
        <polygon id="path-1" points="0.272501866 0.085789616 18.897319 0.085789616 18.897319 25.6810321 0.272501866 25.6810321"></polygon>
        <polygon id="path-3" points="0.00104400062 0.388005099 7.57490535 0.388005099 7.57490535 7.96154871 0.00104400062 7.96154871"></polygon>
    </defs>
    <g id="Final-Design" stroke="none" stroke-width="1" fill="none" fill-rule="evenodd">
        <g id="Home-Final" transform="translate(-190.000000, -1926.000000)">
            <g id="Headline-Group" transform="translate(0.000000, 1452.000000)">
                <g id="Group-4" transform="translate(190.000000, 339.000000)">
                    <g id="mediapioneerLogo" transform="translate(0.000000, 135.000000)">
                        <g id="Group-6" transform="translate(0.000000, 0.368260)">
                            <g id="Group-3" transform="translate(51.746118, 0.000000)">
                                <mask id="mask-2" fill="white">
                                    <use xlink:href="#path-1"></use>
                                </mask>
                                <g id="Clip-2"></g>
                                <path d="M14.3164259,10.5452687 C13.7354168,9.48674283 12.8793363,8.60478927 11.8385131,7.99291412 C10.7119003,7.34472591 9.42914123,7.01881616 8.13004134,7.05059009 C7.03611025,7.03924225 5.95443483,7.28571718 4.97352816,7.7704966 C4.01259368,8.25028297 3.1642297,8.92797555 2.48472147,9.75999865 C1.76572278,10.648307 1.2137642,11.6591719 0.85517268,12.7440248 C0.460722012,13.9273768 0.263723634,15.1679218 0.272801901,16.4152756 C0.266901028,17.638572 0.482055938,18.8527901 0.907372711,19.9993751 C1.30136947,21.0828662 1.89327243,22.0832912 2.6526694,22.9507195 C3.39844897,23.7877356 4.30582168,24.4654282 5.32031793,24.9420372 C6.37112725,25.4381645 7.52043576,25.6900863 8.68199992,25.6796463 C9.9529572,25.7046116 11.2080275,25.3918653 12.3182995,24.7722736 C13.3686549,24.1676611 14.252878,23.3124884 14.8924419,22.283013 L14.8924419,25.3787018 L18.897319,25.3787018 L18.897319,0.0857442247 L14.3164259,0.0857442247 L14.3164259,10.5452687 Z M14.3164259,18.7429431 C14.1548327,19.1818773 13.9169822,19.5885836 13.614222,19.9449055 C13.3069227,20.3075823 12.9551398,20.6303146 12.567044,20.9044783 C12.1784942,21.1795498 11.7504539,21.3933429 11.2974484,21.539503 C10.8657769,21.6820318 10.414587,21.7555657 9.96021981,21.7574885 C9.28388897,21.7619205 8.61482075,21.6221152 7.99704473,21.3474977 C7.40014873,21.0792349 6.86316928,20.6943164 6.41788032,20.2154379 C5.9635131,19.7211263 5.6090068,19.1442025 5.37297188,18.5159864 C5.11651086,17.8423791 4.9885073,17.1270117 4.995316,16.4066513 C4.99350035,15.7058091 5.10924824,15.00996 5.33802055,14.3472466 C5.55226764,13.7135836 5.87726957,13.1230424 6.29759329,12.6024038 C6.70248397,12.1103618 7.20451209,11.7072868 7.77235765,11.4176901 C8.36289886,11.1217386 9.01608012,10.9724011 9.67652399,10.9814794 C10.6810341,10.9882881 11.6515008,11.3455178 12.4208839,11.9914365 C13.2651626,12.6550578 13.9192517,13.5306565 14.3164259,14.528358 L14.3164259,18.7429431 Z" id="Fill-1" fill="#656868" fill-rule="nonzero" mask="url(#mask-2)"></path>
                            </g>
                            <path d="M26.8962248,9.31498204 C26.4976889,8.64455207 25.9293894,8.09077783 25.2494273,7.70949065 C24.5408686,7.29642954 23.638035,7.09087664 22.5400187,7.09216855 C21.1941658,7.06720331 19.8669232,7.40446091 18.6962808,8.06944391 C17.5406175,8.75893823 16.5833143,9.73575968 15.9174235,10.9050404 C15.7022686,9.85377714 15.1484944,8.90192092 14.3405287,8.19608572 C13.5171299,7.4689166 12.3537501,7.10533203 10.8499353,7.10533203 C9.47140056,7.07900506 8.10829889,7.40355308 6.88863382,8.04765607 C5.74114096,8.66180078 4.79200823,9.58914568 4.15108263,10.7221133 L4.15108263,7.39311307 L4.53913312e-05,7.39311307 L4.53913312e-05,25.3785202 L4.59818724,25.3785202 L4.59818724,14.8731505 C4.89822394,13.8191638 5.500113,12.8768398 6.33032044,12.1614724 C7.14191745,11.4765172 7.99391273,11.1333588 8.88676022,11.131997 C9.69109461,11.1015848 10.4568464,11.4756094 10.9266466,12.1287907 C11.4195965,12.791958 11.6651636,13.8436752 11.6638019,15.2830343 L11.6638019,25.3785202 L16.2619437,25.3785202 L16.2619437,14.9081019 C16.5628882,13.8545691 17.1575147,12.9086137 17.9768282,12.1814446 C18.674493,11.5241781 19.5923057,11.1510614 20.5505167,11.1342666 C21.3548511,11.1034005 22.1206028,11.477879 22.5904031,12.1310602 C23.083353,12.7942276 23.3289201,13.8454908 23.3275583,15.2853038 L23.3275583,25.3785202 L27.9257515,25.3785202 L27.9257515,14.1509745 C27.9279698,13.2889931 27.8548897,12.4283734 27.7078218,11.5791016 C27.5739174,10.7820299 27.2992998,10.0153703 26.8962248,9.31498204" id="Fill-4" fill="#656868" fill-rule="nonzero"></path>
                        </g>
                        <polygon id="Fill-7" fill="#656868" fill-rule="nonzero" points="74.2252666 25.7383827 78.8215928 25.7383827 78.8215928 7.7615999 74.2252666 7.7615999"></polygon>
                        <g id="Group-18" transform="translate(81.250483, 7.176960)" fill="#656868" fill-rule="nonzero">
                            <path d="M14.9388772,0.388186665 L14.9388772,3.47479719 C14.2988594,2.44622962 13.4146363,1.59196477 12.3647348,0.988260063 C11.2553707,0.366852739 9.99984644,0.0527447269 8.72843525,0.0786177857 C7.56687109,0.0677238662 6.41756258,0.320099668 5.36720718,0.815773005 C4.35316484,1.29374372 3.44579213,1.97098238 2.69910473,2.80709071 C1.93834602,3.67270339 1.34644306,4.67312833 0.954261956,5.75661941 C0.528491269,6.90411226 0.313336359,8.11878428 0.319237232,9.34253457 C0.31061288,10.5894344 0.507157344,11.8290717 0.901608012,13.0115159 C1.25974562,14.0977304 1.81215812,15.1095032 2.5311568,15.9978116 C3.21066503,16.8298347 4.05902901,17.5079811 5.02041741,17.9873136 C6.00041625,18.472093 7.08118384,18.718568 8.17466101,18.7072201 C9.47376091,18.7389941 10.7565199,18.4130843 11.8826789,17.7648961 C12.9207786,17.1498435 13.7736817,16.2669822 14.3519673,15.2084563 L14.3519673,18.5696844 L18.950563,18.5696844 L18.950563,0.388186665 L14.9388772,0.388186665 Z M14.3542368,11.2294522 C13.9616018,12.2326006 13.3106901,13.1136464 12.4673192,13.7840763 C11.698844,14.4313567 10.7279234,14.7894943 9.72341323,14.796303 C9.06296937,14.8044735 8.40978811,14.6546821 7.81879298,14.3596384 C7.24277698,14.0677722 6.73484799,13.6583423 6.32677992,13.157676 C5.90554837,12.6379452 5.58054643,12.0469501 5.36720718,11.4128332 C5.13843487,10.7510276 5.02268697,10.0556324 5.02450263,9.35569806 C5.01542436,8.62852893 5.14342791,7.90635285 5.4021585,7.22684463 C5.63864734,6.59953643 5.99315364,6.02352044 6.44661303,5.52966275 C6.89235591,5.05078421 7.42933536,4.66586572 8.02623136,4.39760295 C8.64355347,4.12116974 9.3130756,3.98045662 9.98940644,3.98544966 C10.4437737,3.98726532 10.8949635,4.06079927 11.3266351,4.20332805 C11.7787327,4.35084988 12.206773,4.56464305 12.5962306,4.83835278 C12.9847804,5.11251642 13.3370171,5.4357027 13.6429547,5.80019509 C13.945261,6.15606312 14.1831115,6.56186162 14.3456125,6.99988797 L14.3542368,11.2294522 Z" id="Fill-8"></path>
                            <path d="M102.823802,18.9014042 C101.48385,18.9204686 100.153884,18.6699084 98.9124314,18.164249 C97.7926273,17.703527 96.7776771,17.0208414 95.9284053,16.1570443 C95.1036448,15.3100421 94.4559105,14.3068937 94.024239,13.2057 C93.5762265,12.0818106 93.3492699,10.8821177 93.3545442,9.67198486 C93.3474542,8.43552499 93.5694178,7.20859731 94.0088059,6.05338793 C94.4304914,4.94175423 95.0723248,3.92680406 95.8957236,3.0689079 C96.7477188,2.1924013 97.7690238,1.49791393 98.8974523,1.02720583 C100.153884,0.50974465 101.502007,0.253283628 102.861023,0.272347987 C104.207784,0.250560148 105.544559,0.507475083 106.787373,1.02720583 C107.896284,1.49836784 108.899886,2.18650042 109.738718,3.0516592 C110.550769,3.89911535 111.181254,4.9031716 111.590684,6.00300355 C112.01237,7.11826856 112.227525,8.30071274 112.225273,9.49314301 C112.225273,9.79000232 112.225273,10.0755138 112.208006,10.3505853 C112.203013,10.5811732 112.174417,10.8103994 112.123124,11.0355404 L98.2274762,11.0355404 C98.2823998,11.6905374 98.4571564,12.3301012 98.7426679,12.9224581 C99.0045758,13.4548984 99.3658908,13.9324152 99.8070946,14.3291354 C100.237858,14.7167774 100.738071,15.0195376 101.281405,15.221529 C101.83064,15.4271517 102.412103,15.5320057 102.998105,15.5310979 C103.902754,15.5320057 104.792878,15.3014178 105.583141,14.8615758 C106.328921,14.4870973 106.918101,13.8611508 107.247642,13.0944912 L111.191694,14.1852449 C110.489944,15.5991849 109.386481,16.7748204 108.019748,17.5641756 C106.567226,18.4556614 104.835092,18.9014042 102.823802,18.9014042 L102.823802,18.9014042 Z M107.489577,8.06013869 C107.374737,6.71201615 106.877702,5.63124855 105.997564,4.81874372 C104.197344,3.16014448 101.42348,3.16786101 99.6323379,4.83599243 C99.2115603,5.23861354 98.8684018,5.71567643 98.6201113,6.2431237 C98.3523024,6.81369273 98.1952484,7.43056092 98.1580275,8.06013869 L107.489577,8.06013869 Z" id="Fill-10"></path>
                            <path d="M123.588158,18.9014042 C122.248206,18.9200147 120.91824,18.6694545 119.676787,18.164249 C117.436724,17.2514293 115.669186,15.4589257 114.788594,13.2057 C114.342397,12.0813567 114.115895,10.8816638 114.120888,9.67198486 C114.113171,8.43552499 114.335135,7.20859731 114.775431,6.05338793 C115.196662,4.94175423 115.837588,3.92680406 116.660079,3.0689079 C117.512528,2.19194738 118.534741,1.49746002 119.664077,1.02720583 C120.919601,0.509290736 122.26727,0.252829715 123.625379,0.272347987 C124.972139,0.251014062 126.308914,0.507928996 127.551729,1.02720583 C128.659731,1.49882176 129.662426,2.18740825 130.500804,3.0516592 C131.312854,3.89911535 131.94334,4.9031716 132.35277,6.00300355 C132.775363,7.11826856 132.991426,8.30071274 132.989622,9.49314301 C132.989622,9.79000232 132.989622,10.0755138 132.972362,10.3505853 C132.965553,10.5811732 132.936502,10.8103994 132.88521,11.0355404 L118.991831,11.0355404 C119.044939,11.6909913 119.219242,12.331009 119.507023,12.9224581 C119.768023,13.4544445 120.128884,13.9319613 120.56918,14.3291354 C121.000398,14.7176852 121.501518,15.0204454 122.04576,15.221529 C122.594088,15.4271517 123.175097,15.5324596 123.760645,15.5310979 C124.666656,15.5324596 125.558141,15.3018717 126.349766,14.8615758 C127.096,14.4875512 127.685179,13.8616047 128.014266,13.0944912 L131.960135,14.1852449 C131.259293,15.6055397 130.153106,16.7866221 128.781834,17.5796087 C127.327949,18.4606544 125.59627,18.9014042 123.588158,18.9014042 L123.588158,18.9014042 Z M128.253933,8.06013869 C128.140454,6.71201615 127.643419,5.63124855 126.76192,4.81874372 C125.889952,4.00896237 124.736104,3.57229777 123.546852,3.60134822 C122.953133,3.597263 122.364407,3.70756393 121.812449,3.92635015 C121.289541,4.1360581 120.810208,4.44154176 120.398963,4.82736808 C119.976823,5.22908136 119.633211,5.70614425 119.386736,6.23404543 C119.117112,6.80461446 118.95915,7.42148265 118.922383,8.05151433 L128.253933,8.06013869 Z" id="Fill-12"></path>
                            <path d="M146.50556,4.56114792 C145.215992,4.56160183 143.941404,4.8366733 142.766676,5.36820579 C141.723583,5.82847389 140.882028,6.65051089 140.397702,7.68270977 L140.397702,18.5698206 L135.80183,18.5698206 L135.80183,0.582143823 L140.0205,0.582143823 L140.0205,4.42361218 C140.328708,3.82490053 140.709087,3.26613324 141.15256,2.75956598 C141.572884,2.28068744 142.0445,1.84946979 142.559692,1.47453739 C143.029038,1.12729371 143.542414,0.844505717 144.086656,0.632528201 C144.561903,0.446423743 145.067563,0.347924554 145.578669,0.342463977 L146.145607,0.342463977 C146.266348,0.342023681 146.386635,0.3529176 146.50556,0.375159353 L146.50556,4.56114792 Z" id="Fill-14"></path>
                            <path d="M33.6876758,18.9014042 C32.388122,18.9336321 31.104909,18.6068145 29.979204,17.9568106 C28.9411043,17.3435737 28.0882012,16.4607124 27.5099156,15.4026404 L27.5099156,25.8730588 L22.9140433,25.8730588 L22.9140433,0.58237078 L26.9275448,0.58237078 L26.9275448,3.6689813 C27.5671087,2.63995982 28.4513318,1.78569497 29.5016872,1.18199027 C30.6110513,0.561036854 31.8665756,0.246928842 33.1379867,0.272347987 C34.3031822,0.260092328 35.4565759,0.512468129 36.5105627,1.00995712 C37.5205198,1.48883566 38.4247151,2.1651665 39.1695868,2.99945917 C39.9298916,3.86597968 40.5217946,4.86685853 40.9144296,5.95080352 C41.3402003,7.09784246 41.5553552,8.3129684 41.5494543,9.53671869 C41.5580787,10.7836186 41.3615342,12.0232558 40.9670836,13.2057 C40.6093999,14.2910067 40.0569874,15.3023256 39.3375348,16.19018 C38.6575726,17.0217492 37.8092086,17.7003496 36.8482742,18.1814977 C35.8664597,18.667185 34.7834225,18.9136599 33.6876758,18.9014042 M32.1475479,14.9900332 C32.8079918,14.9986576 33.461173,14.8488662 34.0521682,14.5538225 C34.6277302,14.2556015 35.1342975,13.8402708 35.5396421,13.3346114 C35.9608736,12.8148806 36.2863295,12.2238855 36.4996687,11.5893147 C36.7279871,10.927963 36.843735,10.2325678 36.8419194,9.53263347 C36.849182,8.81136522 36.7211784,8.09509001 36.4647174,7.42102874 C36.2277747,6.79508228 35.8728145,6.22042803 35.419809,5.728386 C34.9740661,5.24905354 34.4370866,4.86413505 33.8401906,4.59587229 C33.2228685,4.31943908 32.5533464,4.17872595 31.8770156,4.183719 C31.4226483,4.18553465 30.9714585,4.25906861 30.539787,4.4020513 C30.084058,4.55138878 29.6532943,4.76835934 29.2615671,5.04524647 C28.8730173,5.31986402 28.5207805,5.6430503 28.214843,6.00754269 C27.9120828,6.36295681 27.6742322,6.76920923 27.5121852,7.20723557 L27.5121852,11.4213668 C27.9020967,12.4295082 28.5534623,13.315547 29.3991028,13.9891544 C30.1707554,14.6328034 31.1430377,14.9868558 32.1475479,14.9900332" id="Fill-16"></path>
                        </g>
                        <polygon id="Fill-19" fill="#656868" fill-rule="nonzero" points="125.914645 25.7470071 130.510971 25.7470071 130.510971 7.75933033 125.914645 7.75933033"></polygon>
                        <g id="Group-29" transform="translate(30.412192, 7.176960)">
                            <path d="M112.333967,18.9014042 C110.980852,18.9222842 109.637722,18.6653693 108.388099,18.1465464 C107.27011,17.6758383 106.260607,16.980897 105.421321,16.1048443 C104.609724,15.2483099 103.974246,14.2401684 103.551652,13.1380669 C102.681955,10.8507977 102.681955,8.32340841 103.551652,6.03568531 C103.9747,4.9340377 104.610178,3.92589624 105.421321,3.0689079 C106.260607,2.19330912 107.27011,1.49836784 108.388099,1.02720583 C109.637722,0.508836823 110.980852,0.251921888 112.333967,0.272347987 C113.680728,0.251014062 115.017503,0.507928996 116.260317,1.02720583 C117.371497,1.50109132 118.375099,2.1960326 119.209392,3.0689079 C120.020989,3.92589624 120.656014,4.9340377 121.079061,6.03568531 C121.948759,8.32340841 121.948759,10.8507977 121.079061,13.1380669 C120.658737,14.237445 120.029613,15.2446786 119.227095,16.1048443 C118.396433,16.9827127 117.391923,17.6781079 116.27802,18.1465464 C115.028397,18.6649154 113.686175,18.9218303 112.333967,18.9014042 M107.635511,9.60435177 C107.625071,10.3474079 107.747627,11.0859248 107.997279,11.7858592 C108.220605,12.4081743 108.557862,12.9837364 108.992257,13.483041 C109.404865,13.9560187 109.913701,14.3359441 110.48427,14.5973982 C111.663991,15.1252994 113.012568,15.1252994 114.192288,14.5973982 C114.763311,14.3359441 115.271694,13.9560187 115.684755,13.483041 C116.12142,12.9791972 116.459131,12.3977343 116.679279,11.7681565 C116.928024,11.0632292 117.05058,10.3197192 117.041502,9.57167001 C117.048311,8.83542262 116.925754,8.10371436 116.679279,7.41013482 C116.456408,6.7819188 116.116881,6.20136367 115.677947,5.69978946 C115.26307,5.22454222 114.752417,4.84234721 114.179579,4.57862358 C113.598116,4.31399212 112.966268,4.17917987 112.327612,4.183719 C111.686687,4.17872595 111.053478,4.31989299 110.475646,4.59587229 C109.906893,4.86867419 109.398964,5.25404659 108.983179,5.728386 C108.54833,6.23268369 108.213342,6.81550838 107.99501,7.44508615 C107.749443,8.13821177 107.627794,8.86901221 107.635511,9.60435177" id="Fill-20" fill="#656868" fill-rule="nonzero"></path>
                            <path d="M141.527175,18.569866 L136.930849,18.569866 L136.930849,8.47256432 C136.930849,7.03138955 136.679381,5.9792185 136.176445,5.31605115 C135.686218,4.65878467 134.903218,4.28657576 134.084358,4.32107317 C133.602302,4.3256123 133.125693,4.41866453 132.677227,4.59614463 C132.189724,4.78361083 131.732633,5.04415707 131.32275,5.36825118 C130.889263,5.7100479 130.502982,6.10767596 130.172987,6.55069536 C129.832552,7.00415476 129.576545,7.51526115 129.418583,8.05995712 L129.418583,18.569866 L124.819988,18.569866 L124.819988,0.582189214 L128.96467,0.582189214 L128.96467,3.90891988 C129.641909,2.75325659 130.645057,1.8227343 131.848381,1.23446264 C133.169723,0.578557908 134.629054,0.249016843 136.104273,0.272620335 C137.222715,0.272620335 138.13735,0.478243066 138.848632,0.88994244 C139.528595,1.27440702 140.09644,1.82999691 140.49543,2.50178861 C140.896689,3.20353859 141.169491,3.971106 141.300218,4.76817778 C141.44774,5.6179035 141.520366,6.47806923 141.518551,7.34005061 L141.527175,18.569866 Z" id="Fill-22" fill="#656868" fill-rule="nonzero"></path>
                            <path d="M18.6357288,6.00522773 C18.2258451,4.9063036 17.5958134,3.90270127 16.7837625,3.05615294 C15.9458385,2.19190199 14.9440518,1.50376941 13.8369572,1.03169957 C12.5941426,0.511060998 11.2573679,0.254146064 9.91015317,0.276841729 C8.55204454,0.25641563 7.20437592,0.512876651 5.9488517,1.03169957 C4.81270668,1.50149985 3.78504694,2.19916461 2.92987426,3.082026 C2.10647551,3.94037607 1.46464208,4.95623406 1.04295662,6.06832168 C0.602660705,7.22398497 0.380697095,8.45091266 0.388413621,9.68737252 C0.383420575,10.8975054 0.610831144,12.0967444 1.05838967,13.2210877 C1.93807367,15.4743133 3.70606602,17.2663631 5.94658213,18.1773671 C7.18758112,18.6830265 8.51800104,18.9335867 9.85795314,18.9145223 C11.869243,18.9145223 13.6009223,18.4783116 15.0538988,17.6058902 C16.4265327,16.8119959 17.5331733,15.6295517 18.2344694,14.2069874 L14.2881471,13.1166876 C13.9595138,13.8824393 13.3707883,14.507478 12.6259165,14.8810486 C11.8338378,15.3227063 10.9414442,15.5532943 10.0345254,15.5510247 C9.44943116,15.5523864 8.86842212,15.4484403 8.32009484,15.2432715 C7.2107307,14.8297564 6.30199625,14.0068116 5.78090377,12.9442005 C5.49493838,12.3522976 5.32063567,11.7122798 5.26616607,11.0572829 L19.1613604,11.0572829 C19.210383,10.8312341 19.2389796,10.6011 19.2466961,10.3700581 C19.2466961,10.0954406 19.264083,9.81174477 19.264083,9.51306981 C19.2702996,8.31519258 19.0574142,7.12639361 18.6357288,6.00522773 L18.6357288,6.00522773 Z M5.19853299,8.06463243 C5.23529997,7.43414684 5.39235398,6.81637082 5.66107066,6.24534787 C5.85080642,5.8508972 6.09274222,5.48413525 6.38097717,5.15459418 C6.47448331,5.04747064 6.57071293,4.93626188 6.67329734,4.84911052 C7.09089759,4.46509986 7.57295353,4.15780055 8.09767732,3.94173781 C8.23158174,3.8868143 8.36866356,3.83869949 8.50756104,3.79784729 C8.93741694,3.67392896 9.38225199,3.61219675 9.8293566,3.61446631 C11.0154321,3.58632369 12.1656484,4.02117264 13.0362542,4.82732268 C13.1642577,4.94670189 13.2854526,5.07243587 13.4002926,5.20452465 C13.8678233,5.75239801 14.199634,6.40240188 14.3689436,7.1023362 C14.4134271,7.2793624 14.4483785,7.45865815 14.4737976,7.63886174 C14.4955855,7.77866704 14.5151037,7.91847234 14.5259976,8.07552635 L5.19853299,8.06463243 Z" id="Fill-24" fill="#656868" fill-rule="nonzero"></path>
                            <g id="Group-28" transform="translate(196.090551, 10.893919)">
                                <mask id="mask-4" fill="white">
                                    <use xlink:href="#path-3"></use>
                                </mask>
                                <g id="Clip-27"></g>
                                <path d="M3.78804276,0.388005099 C5.87922139,0.388005099 7.57504153,2.08337132 7.57504153,4.17500386 C7.57504153,6.26618249 5.87922139,7.96154871 3.78804276,7.96154871 C1.69641022,7.96154871 0.00104400062,6.26618249 0.00104400062,4.17500386 C0.00104400062,2.08337132 1.69641022,0.388005099 3.78804276,0.388005099" id="Fill-26" fill="#656868" fill-rule="nonzero" mask="url(#mask-4)"></path>
                            </g>
                        </g>
                    </g>
                </g>
            </g>
        </g>
    </g>
</svg>