<?xml version="1.0" encoding="UTF-8"?>
<svg width="300px" height="43px" viewBox="0 0 300 43" version="1.1" xmlns="http://www.w3.org/2000/svg" xmlns:xlink="http://www.w3.org/1999/xlink">
    <!-- Generator: Sketch 63.1 (92452) - https://sketch.com -->
    <title>Group 30</title>
    <desc>Created with Sketch.</desc>
    <defs>
        <polygon id="path-1" points="0.349034305 0.109883721 24.2046512 0.109883721 24.2046512 32.8935772 0.349034305 32.8935772"></polygon>
        <polygon id="path-3" points="0.0013372093 0.496976744 9.70232558 0.496976744 9.70232558 10.1975581 0.0013372093 10.1975581"></polygon>
    </defs>
    <g id="Final-Design" stroke="none" stroke-width="1" fill="none" fill-rule="evenodd">
        <g id="Group-30">
            <g id="Group-6" transform="translate(0.000000, 0.471686)">
                <g id="Group-3" transform="translate(66.279070, 0.000000)">
                    <mask id="mask-2" fill="white">
                        <use xlink:href="#path-1"></use>
                    </mask>
                    <g id="Clip-2"></g>
                    <path d="M18.3372093,13.5069186 C17.5930233,12.1511047 16.4965116,11.0214535 15.1633721,10.2377326 C13.7203488,9.4075 12.0773256,8.99005814 10.4133721,9.03075581 C9.0122093,9.01622093 7.62674419,9.3319186 6.37034884,9.95284884 C5.13953488,10.5673837 4.05290698,11.435407 3.18255814,12.5011047 C2.26162791,13.6388953 1.55465116,14.9336628 1.09534884,16.3231977 C0.590116279,17.8388953 0.337790698,19.4278488 0.349418605,21.0255233 C0.341860465,22.5923837 0.61744186,24.1476163 1.1622093,25.6162209 C1.66686047,27.0040116 2.425,28.285407 3.39767442,29.3964535 C4.35290698,30.4685465 5.51511628,31.3365698 6.81453488,31.9470349 C8.16046512,32.5825 9.63255814,32.9051744 11.1203488,32.8918023 C12.7482558,32.9237791 14.355814,32.5231977 15.777907,31.729593 C17.1232558,30.9551744 18.255814,29.8598256 19.075,28.5412209 L19.075,32.5063372 L24.2046512,32.5063372 L24.2046512,0.109825581 L18.3372093,0.109825581 L18.3372093,13.5069186 Z M18.3372093,24.0069186 C18.1302326,24.5691279 17.8255814,25.0900581 17.4377907,25.5464535 C17.044186,26.0109884 16.5936047,26.4243605 16.0965116,26.7755233 C15.5988372,27.1278488 15.0505814,27.401686 14.4703488,27.5888953 C13.9174419,27.7714535 13.3395349,27.8656395 12.7575581,27.8681023 C11.8912791,27.8737791 11.0343023,27.6947093 10.2430233,27.3429651 C9.47848837,26.9993605 8.79069767,26.5063372 8.22034884,25.8929651 C7.63837209,25.2598256 7.18430233,24.5208721 6.88197674,23.7162209 C6.55348837,22.8534302 6.38953488,21.9371512 6.39825581,21.0144767 C6.39593023,20.1168023 6.54418605,19.2255233 6.8372093,18.376686 C7.11162791,17.5650581 7.52790698,16.8086628 8.06627907,16.1418023 C8.58488372,15.5115698 9.22790698,14.9952907 9.95523256,14.6243605 C10.7116279,14.2452907 11.5482558,14.0540116 12.394186,14.0656395 C13.680814,14.0743605 14.9238372,14.5319186 15.9093023,15.3592442 C16.9906977,16.2092442 17.8284884,17.3307558 18.3372093,18.6086628 L18.3372093,24.0069186 Z" id="Fill-1" fill="#FF0045" mask="url(#mask-2)"></path>
                </g>
                <path d="M34.4500581,11.9311047 C33.939593,11.0723837 33.211686,10.3630814 32.3407558,9.8747093 C31.4331977,9.34563953 30.2768023,9.08235688 28.870407,9.08401163 C27.1465698,9.05203488 25.4465698,9.48401163 23.9471512,10.3357558 C22.4669186,11.2188953 21.2407558,12.4700581 20.3878488,13.9677326 C20.1122674,12.6212209 19.4029651,11.4020349 18.3680814,10.4979651 C17.3134302,9.56656977 15.823314,9.10087209 13.8971512,9.10087209 C12.1314535,9.06715116 10.3855233,9.48284884 8.82331395,10.3078488 C7.35354651,11.0944767 6.13784884,12.2822674 5.3169186,13.7334302 L5.3169186,9.46947674 L5.81395349e-05,9.46947674 L5.81395349e-05,32.5061047 L5.88959302,32.5061047 L5.88959302,19.0502907 C6.27389535,17.7002907 7.04482558,16.493314 8.10819767,15.5770349 C9.14773256,14.6997093 10.2390116,14.2601744 11.3826163,14.2584302 C12.4128488,14.2194767 13.3936628,14.6985465 13.995407,15.5351744 C14.6268023,16.384593 14.9413372,17.731686 14.939593,19.5752907 L14.939593,32.5061047 L20.8291279,32.5061047 L20.8291279,19.0950581 C21.214593,17.7456395 21.9762209,16.5340116 23.0256395,15.6026163 C23.9192442,14.7607558 25.0948256,14.2828488 26.3221512,14.2613372 C27.3523837,14.2218023 28.3331977,14.7014535 28.9349419,15.5380814 C29.5663372,16.3875 29.8808721,17.7340116 29.8791279,19.5781977 L29.8791279,32.5061047 L35.7687285,32.5061047 L35.7687285,18.1252907 C35.7715698,17.0212209 35.6779651,15.9188953 35.489593,14.8311047 C35.3180814,13.8101744 34.9663372,12.8281977 34.4500581,11.9311047" id="Fill-4" fill="#FF0045"></path>
            </g>
            <polygon id="Fill-7" fill="#FF0045" points="95.0715116 32.9670349 100.958721 32.9670349 100.958721 9.94145349 95.0715116 9.94145349"></polygon>
            <g id="Group-18" transform="translate(104.069767, 9.192616)" fill="#FF0045">
                <path d="M19.1344767,0.497209302 L19.1344767,4.45069767 C18.3147093,3.13325581 17.1821512,2.03906977 15.8373837,1.26581395 C14.4164535,0.469883721 12.808314,0.0675581395 11.1798256,0.100697674 C9.69203488,0.086744186 8.21994186,0.41 6.87459302,1.04488372 C5.57575581,1.65709302 4.41354651,2.52453488 3.45715116,3.59546512 C2.48273256,4.70418605 1.72459302,5.9855814 1.22226744,7.37337209 C0.676918605,8.84313953 0.401337209,10.3989535 0.408895349,11.9663953 C0.397848837,13.5634884 0.649593023,15.1512791 1.15482558,16.665814 C1.61354651,18.057093 2.32110465,19.3530233 3.24203488,20.490814 C4.11238372,21.5565116 5.19901163,22.4251163 6.43040698,23.0390698 C7.68563953,23.66 9.06994186,23.9756977 10.4705233,23.9611628 C12.1344767,24.0018605 13.7775,23.5844186 15.2199419,22.754186 C16.549593,21.9663953 17.6420349,20.8355814 18.3827326,19.4797674 L18.3827326,23.785 L24.2728488,23.785 L24.2728488,0.497209302 L19.1344767,0.497209302 Z M18.3856395,14.3832558 C17.8827326,15.6681395 17.0490116,16.7966279 15.9687791,17.6553488 C14.9844767,18.4844186 13.7408721,18.9431395 12.4542442,18.9518605 C11.608314,18.9623256 10.771686,18.7704651 10.0147093,18.3925581 C9.2769186,18.0187209 8.62633721,17.4943023 8.10366279,16.8530233 C7.56412791,16.1873256 7.14784884,15.4303488 6.87459302,14.6181395 C6.58156977,13.7704651 6.43331395,12.8797674 6.43563953,11.9832558 C6.42401163,11.0518605 6.58796512,10.1268605 6.91936047,9.25651163 C7.22226744,8.45302326 7.67633721,7.71523256 8.25715116,7.08267442 C8.8280814,6.46930233 9.51587209,5.97627907 10.280407,5.63267442 C11.0711047,5.27860465 11.9286628,5.09837209 12.7949419,5.10476744 C13.3769186,5.10709302 13.9548256,5.20127907 14.5077326,5.38383721 C15.0868023,5.5727907 15.6350581,5.84662791 16.1338953,6.1972093 C16.6315698,6.54837209 17.0827326,6.96232558 17.474593,7.42918605 C17.8618023,7.885 18.1664535,8.40476744 18.374593,8.96581395 L18.3856395,14.3832558 Z" id="Fill-8"></path>
                <path d="M131.701977,24.2098837 C129.985698,24.2343023 128.282209,23.9133721 126.692093,23.2656977 C125.257791,22.6755814 123.957791,21.8011628 122.87,20.6947674 C121.813605,19.6098837 120.983953,18.325 120.431047,16.9145349 C119.857209,15.475 119.566512,13.9383721 119.573267,12.3883721 C119.564186,10.8046512 119.848488,9.23313953 120.411279,7.75348837 C120.951395,6.32965116 121.773488,5.02965116 122.82814,3.93081395 C123.919419,2.80813953 125.227558,1.91860465 126.672907,1.31569767 C128.282209,0.652906977 130.008953,0.324418605 131.749651,0.348837209 C133.474651,0.320930233 135.18686,0.65 136.778721,1.31569767 C138.19907,1.91918605 139.484535,2.8005814 140.558953,3.90872093 C141.59907,4.99418605 142.406628,6.28023256 142.931047,7.68895349 C143.471163,9.11744186 143.746744,10.6319767 143.74386,12.1593023 C143.74386,12.5395349 143.74386,12.9052326 143.721744,13.2575581 C143.715349,13.552907 143.678721,13.8465116 143.613023,14.1348837 L125.814767,14.1348837 C125.885116,14.9738372 126.108953,15.7930233 126.474651,16.5517442 C126.810116,17.2337209 127.272907,17.8453488 127.838023,18.3534884 C128.389767,18.85 129.030465,19.2377907 129.726395,19.4965116 C130.429884,19.7598837 131.174651,19.894186 131.925233,19.8930233 C133.083953,19.894186 134.22407,19.5988372 135.236279,19.0354651 C136.191512,18.555814 136.946163,17.7540698 137.368256,16.772093 L142.42,18.169186 C141.521163,19.9802326 140.107791,21.4860465 138.357209,22.497093 C136.496744,23.6389535 134.27814,24.2098837 131.701977,24.2098837 L131.701977,24.2098837 Z M137.67814,10.3238372 C137.531047,8.59709302 136.894419,7.2127907 135.767093,6.17209302 C133.461279,4.04767442 129.908372,4.05755814 127.614186,6.19418605 C127.075233,6.70988372 126.635698,7.32093023 126.317674,7.99651163 C125.974651,8.72732558 125.773488,9.51744186 125.725814,10.3238372 L137.67814,10.3238372 Z" id="Fill-10"></path>
                <path d="M158.298023,24.2098837 C156.581744,24.2337209 154.878256,23.9127907 153.28814,23.2656977 C150.418953,22.0965116 148.155,19.8005814 147.027093,16.9145349 C146.455581,15.4744186 146.165465,13.9377907 146.17186,12.3883721 C146.161977,10.8046512 146.446279,9.23313953 147.010233,7.75348837 C147.549767,6.32965116 148.370698,5.02965116 149.424186,3.93081395 C150.516047,2.80755814 151.825349,1.91802326 153.27186,1.31569767 C154.88,0.652325581 156.606163,0.323837209 158.345698,0.348837209 C160.070698,0.321511628 161.782907,0.650581395 163.374767,1.31569767 C164.793953,1.91976744 166.078256,2.80174419 167.152093,3.90872093 C168.192209,4.99418605 168.999767,6.28023256 169.524186,7.68895349 C170.065465,9.11744186 170.342209,10.6319767 170.339898,12.1593023 C170.339898,12.5395349 170.339898,12.9052326 170.317791,13.2575581 C170.30907,13.552907 170.27186,13.8465116 170.206163,14.1348837 L152.410814,14.1348837 C152.478837,14.9744186 152.702093,15.794186 153.070698,16.5517442 C153.405,17.2331395 153.867209,17.8447674 154.431163,18.3534884 C154.983488,18.8511628 155.625349,19.2389535 156.322442,19.4965116 C157.024767,19.7598837 157.768953,19.8947674 158.518953,19.8930233 C159.679419,19.8947674 160.821279,19.5994186 161.835233,19.0354651 C162.791047,18.5563953 163.545698,17.7546512 163.967209,16.772093 L169.021279,18.169186 C168.123605,19.9883721 166.706744,21.5011628 164.950349,22.5168605 C163.08814,23.6453488 160.870116,24.2098837 158.298023,24.2098837 L158.298023,24.2098837 Z M164.274186,10.3238372 C164.128837,8.59709302 163.492209,7.2127907 162.36314,6.17209302 C161.246279,5.13488372 159.768372,4.5755814 158.245116,4.6127907 C157.484651,4.60755814 156.730581,4.74883721 156.023605,5.02906977 C155.353837,5.29767442 154.739884,5.68895349 154.21314,6.18313953 C153.672442,6.69767442 153.232326,7.30872093 152.916628,7.98488372 C152.571279,8.71569767 152.368953,9.50581395 152.32186,10.3127907 L164.274186,10.3238372 Z" id="Fill-12"></path>
                <path d="M187.651802,5.84215116 C186.000058,5.84273256 184.3675,6.19505814 182.862849,6.87587209 C181.526802,7.46540698 180.448895,8.51831395 179.828547,9.84040698 L179.828547,23.7851744 L173.941919,23.7851744 L173.941919,0.745639535 L179.345407,0.745639535 L179.345407,5.66598837 C179.740174,4.89912791 180.227384,4.18343023 180.795407,3.53459302 C181.333779,2.92122093 181.937849,2.36889535 182.597733,1.88866279 C183.198895,1.44389535 183.856453,1.08168605 184.553547,0.810174419 C185.162267,0.571802326 185.809942,0.445639535 186.464593,0.438645349 L187.190756,0.438645349 C187.345407,0.438081395 187.499477,0.452034884 187.651802,0.480523256 L187.651802,5.84215116 Z" id="Fill-14"></path>
                <path d="M43.1488953,24.2098837 C41.4843605,24.2511628 39.8407558,23.8325581 38.3988953,23 C37.0692442,22.2145349 35.9768023,21.0837209 35.2361047,19.7284884 L35.2361047,33.1395349 L29.3494767,33.1395349 L29.3494767,0.745930233 L34.4901744,0.745930233 L34.4901744,4.6994186 C35.3093605,3.38139535 36.4419186,2.2872093 37.7872674,1.51395349 C39.2081977,0.718604651 40.8163372,0.31627907 42.4448256,0.348837209 C43.9372674,0.333139535 45.414593,0.656395349 46.764593,1.29360465 C48.0581977,1.90697674 49.2163372,2.77325581 50.170407,3.84186047 C51.1442442,4.95174419 51.9023837,6.23372093 52.4052907,7.62209302 C52.9506395,9.09127907 53.2262209,10.6476744 53.2186628,12.2151163 C53.2297093,13.8122093 52.9779651,15.4 52.4727326,16.9145349 C52.014593,18.3046512 51.3070349,19.6 50.3855233,20.7372093 C49.514593,21.8023256 48.4279651,22.6715116 47.1971512,23.2877907 C45.939593,23.9098837 44.5523837,24.2255814 43.1488953,24.2098837 M41.1762209,19.2 C42.0221512,19.2110465 42.8587791,19.019186 43.6157558,18.6412791 C44.3529651,18.2593023 45.0018023,17.7273256 45.5209884,17.0796512 C46.0605233,16.4139535 46.4773837,15.6569767 46.7506395,14.844186 C47.0430814,13.997093 47.1913372,13.1063953 47.1890116,12.2098837 C47.198314,11.2860465 47.0343605,10.3686047 46.7058721,9.50523256 C46.4023837,8.70348837 45.9477326,7.96744186 45.3675,7.3372093 C44.7965698,6.72325581 44.1087791,6.23023256 43.3442442,5.88662791 C42.5535465,5.53255814 41.6959884,5.35232558 40.8297093,5.35872093 C40.2477326,5.36104651 39.6698256,5.45523256 39.1169186,5.63837209 C38.5331977,5.82965116 37.9814535,6.10755814 37.4797093,6.4622093 C36.9820349,6.81395349 36.5308721,7.22790698 36.1390116,7.69476744 C35.7512209,8.15 35.4465698,8.67034884 35.2390116,9.23139535 L35.2390116,14.6290698 C35.7384302,15.9203488 36.5727326,17.0552326 37.6558721,17.9180233 C38.6442442,18.7424419 39.889593,19.1959302 41.1762209,19.2" id="Fill-16"></path>
            </g>
            <polygon id="Fill-19" fill="#FF0045" points="161.277907 32.9780814 167.165116 32.9780814 167.165116 9.93854651 161.277907 9.93854651"></polygon>
            <g id="Group-29" transform="translate(38.953488, 9.192616)">
                <path d="M143.883081,24.2098837 C142.149942,24.2366279 140.429593,23.9075581 138.829012,23.2430233 C137.397035,22.6401163 136.104012,21.75 135.029012,20.627907 C133.989477,19.530814 133.175523,18.2395349 132.634244,16.827907 C131.520291,13.8982558 131.520291,10.6610465 132.634244,7.73081395 C133.176105,6.31976744 133.990058,5.02848837 135.029012,3.93081395 C136.104012,2.80930233 137.397035,1.91918605 138.829012,1.31569767 C140.429593,0.651744186 142.149942,0.322674419 143.883081,0.348837209 C145.608081,0.321511628 147.320291,0.650581395 148.912151,1.31569767 C150.335407,1.92267442 151.620872,2.8127907 152.689477,3.93081395 C153.729012,5.02848837 154.542384,6.31976744 155.084244,7.73081395 C156.198198,10.6610465 156.198198,13.8982558 155.084244,16.827907 C154.545872,18.2360465 153.740058,19.5261628 152.712151,20.627907 C151.648198,21.7523256 150.36157,22.6430233 148.934826,23.2430233 C147.334244,23.9069767 145.615058,24.2360465 143.883081,24.2098837 M137.865058,12.3017442 C137.851686,13.2534884 138.008663,14.1994186 138.32843,15.0959302 C138.614477,15.8930233 139.046453,16.6302326 139.602849,17.2697674 C140.131337,17.8755814 140.783081,18.3622093 141.513895,18.697093 C143.024942,19.3732558 144.752267,19.3732558 146.263314,18.697093 C146.994709,18.3622093 147.645872,17.8755814 148.174942,17.2697674 C148.734244,16.6244186 149.166802,15.8796512 149.448779,15.0732558 C149.767384,14.1703488 149.92436,13.2180233 149.912733,12.2598837 C149.921453,11.3168605 149.764477,10.3796512 149.448779,9.49127907 C149.163314,8.68662791 148.72843,7.94302326 148.166221,7.3005814 C147.634826,6.69186047 146.980756,6.20232558 146.247035,5.86453488 C145.502267,5.5255814 144.692965,5.35290698 143.874942,5.35872093 C143.054012,5.35232558 142.242965,5.53313953 141.502849,5.88662791 C140.77436,6.23604651 140.123779,6.72965116 139.591221,7.3372093 C139.034244,7.98313953 138.605174,8.72965116 138.325523,9.53604651 C138.010988,10.4238372 137.855174,11.3598837 137.865058,12.3017442" id="Fill-20" fill="#FF0045"></path>
                <path d="M181.275233,23.7852326 L175.388023,23.7852326 L175.388023,10.852093 C175.388023,9.00616279 175.06593,7.65848837 174.421744,6.80906977 C173.793837,5.9672093 172.79093,5.49046512 171.742093,5.53465116 C171.124651,5.54046512 170.514186,5.65965116 169.939767,5.88697674 C169.315349,6.12709302 168.729884,6.46081395 168.204884,6.87593023 C167.649651,7.31372093 167.154884,7.82302326 166.732209,8.39046512 C166.296163,8.97127907 165.968256,9.62593023 165.76593,10.3236047 L165.76593,23.7852326 L159.875814,23.7852326 L159.875814,0.745697674 L165.184535,0.745697674 L165.184535,5.00674419 C166.051977,3.52651163 167.33686,2.33465116 168.87814,1.58116279 C170.570581,0.741046512 172.439767,0.318953488 174.329302,0.349186047 C175.76186,0.349186047 176.933372,0.61255814 177.844419,1.13988372 C178.715349,1.63232558 179.442674,2.34395349 179.953721,3.2044186 C180.467674,4.10325581 180.817093,5.08639535 180.984535,6.10732558 C181.173488,7.19569767 181.266512,8.29744186 181.264186,9.40151163 L181.275233,23.7852326 Z" id="Fill-22" fill="#FF0045"></path>
                <path d="M23.869593,7.69180233 C23.344593,6.28424419 22.5376163,4.99877907 21.4975,3.91447674 C20.4242442,2.8075 19.1411047,1.92610465 17.7230814,1.32145349 C16.1312209,0.654593023 14.4190116,0.325523256 12.6934302,0.354593023 C10.9538953,0.328430233 9.22773256,0.656918605 7.61959302,1.32145349 C6.16436047,1.92319767 4.8480814,2.81680233 3.75273256,3.94761628 C2.6980814,5.04703488 1.87598837,6.34819767 1.33587209,7.77261628 C0.771918605,9.25284884 0.487616279,10.8243605 0.4975,12.4080814 C0.491104651,13.9580814 0.782383721,15.4941279 1.35563953,16.9342442 C2.48238372,19.8202907 4.7469186,22.1156395 7.61668605,23.2825 C9.20622093,23.9301744 10.9102907,24.2511047 12.6265698,24.226686 C15.2027326,24.226686 17.4207558,23.6679651 19.2818023,22.5505233 C21.0399419,21.5336628 22.4573837,20.0191279 23.3556395,18.1970349 L18.3009884,16.8005233 C17.8800581,17.7813372 17.1259884,18.5819186 16.1719186,19.060407 C15.1573837,19.6261047 14.0143605,19.9214535 12.8527326,19.9185465 C12.103314,19.9202907 11.3591279,19.7871512 10.6568023,19.5243605 C9.23587209,18.9947093 8.0719186,17.9406395 7.40447674,16.579593 C7.03819767,15.8214535 6.81494186,15.001686 6.74517442,14.1627326 L24.5428488,14.1627326 C24.6056395,13.8731977 24.6422674,13.5784302 24.6521512,13.2825 C24.6521512,12.9307558 24.6744212,12.5673837 24.6744212,12.1848256 C24.6823837,10.6505233 24.4097093,9.12784884 23.869593,7.69180233 L23.869593,7.69180233 Z M6.65854651,10.329593 C6.70563953,9.52203488 6.90680233,8.73075581 7.25098837,7.99936047 C7.49401163,7.49412791 7.80389535,7.02436047 8.1730814,6.60226744 C8.29284884,6.46505814 8.41610465,6.32261628 8.5475,6.21098837 C9.08238372,5.71912791 9.69982558,5.32552326 10.3719186,5.04877907 C10.5434302,4.97843023 10.7190116,4.91680233 10.8969186,4.86447674 C11.4475,4.70575581 12.0172674,4.62668605 12.5899419,4.62959302 C14.1091279,4.59354651 15.5823837,5.15052326 16.6975,6.1830814 C16.8614535,6.33598837 17.016686,6.49703488 17.1637791,6.66622093 C17.7626163,7.36796512 18.1876163,8.20052326 18.4044767,9.09703488 C18.4614535,9.32377907 18.5062209,9.55343023 18.5387791,9.78424419 C18.566686,9.96331395 18.591686,10.1423837 18.6056395,10.3435465 L6.65854651,10.329593 Z" id="Fill-24" fill="#FF0045"></path>
                <g id="Group-28" transform="translate(251.162791, 13.953488)">
                    <mask id="mask-4" fill="white">
                        <use xlink:href="#path-3"></use>
                    </mask>
                    <g id="Clip-27"></g>
                    <path d="M4.8519186,0.496976744 C7.53040698,0.496976744 9.7025,2.66848837 9.7025,5.34755814 C9.7025,8.02604651 7.53040698,10.1975581 4.8519186,10.1975581 C2.17284884,10.1975581 0.0013372093,8.02604651 0.0013372093,5.34755814 C0.0013372093,2.66848837 2.17284884,0.496976744 4.8519186,0.496976744" id="Fill-26" fill="#FF0045" mask="url(#mask-4)"></path>
                </g>
            </g>
        </g>
    </g>
</svg>