<?xml version="1.0" encoding="UTF-8"?>
<svg width="90px" height="44px" viewBox="0 0 90 44" version="1.1" xmlns="http://www.w3.org/2000/svg" xmlns:xlink="http://www.w3.org/1999/xlink">
    <!-- Generator: Sketch 58 (84663) - https://sketch.com -->
    <title>telekomLogo</title>
    <desc>Created with Sketch.</desc>
    <g id="Final-Design" stroke="none" stroke-width="1" fill="none" fill-rule="evenodd">
        <g id="Home-Final" transform="translate(-1089.000000, -1791.000000)" fill="#656868" fill-rule="nonzero">
            <g id="Headline-Group" transform="translate(0.000000, 1452.000000)">
                <g id="Group-4" transform="translate(190.000000, 339.000000)">
                    <g id="telekomLogo" transform="translate(899.000000, 0.000000)">
                        <path d="M80.2193664,20.1370791 L89.1099436,20.1370791 L89.1099436,29.0276562 L80.2193664,29.0276562 L80.2193664,20.1370791 Z M53.5491278,20.1370791 L62.4382152,20.1370791 L62.4382152,29.0276562 L53.5491278,29.0276562 L53.5491278,20.1370791 Z M26.8773995,20.1370791 L35.7679766,20.1370791 L35.7679766,29.0276562 L26.8773995,29.0276562 L26.8773995,20.1370791 Z M21.218208,34.4018283 C21.218208,37.2222049 21.6298217,39.0529253 22.4560224,39.8969566 C23.1544289,40.6161671 24.3446886,41.0589883 26.0134401,41.2239305 C26.5082728,41.2655601 27.3567611,41.2847972 28.5544572,41.2847972 L28.5544572,43.755969 L7.13266919,43.755969 L7.13266919,41.2847972 C8.85342606,41.2847972 10.1209582,41.2031265 10.9412215,41.0381226 C12.6010469,40.6889209 13.6471745,39.7215523 14.0766189,38.1360229 C14.3010028,37.314273 14.4154232,36.0690315 14.4154232,34.4017728 L14.4154232,2.10116301 C10.7807331,2.20375799 7.93807204,3.40733288 5.88593797,5.71356557 C3.93634337,7.92022903 2.74756415,11.2978503 2.31514648,15.8478975 L5.68434189e-14,15.448171 L0.430931005,-5.68434189e-14 L35.2561923,-5.68434189e-14 L35.6886068,15.448171 L33.370487,15.8478975 C32.9395622,11.2978503 31.7403794,7.92022903 29.7833546,5.71356557 C27.7208263,3.40733288 24.8647884,2.20369939 21.218208,2.10116301 L21.218208,34.4017728 L21.218208,34.4018283 Z M0.0422125164,20.1370791 L8.93278966,20.1370791 L8.93278966,29.0276562 L0.0422125164,29.0276562 L0.0422125164,20.1370791 Z" id="path108"></path>
                    </g>
                </g>
            </g>
        </g>
    </g>
</svg>