<svg width="90" height="44" xmlns="http://www.w3.org/2000/svg"><path d="M80.22 20.137h8.89v8.89h-8.89v-8.89zm-26.67 0h8.888v8.89H53.55v-8.89zm-26.673 0h8.891v8.89h-8.89v-8.89zm-4.421 19.76c.698.72 1.889 1.162 3.557 1.327.495.042 1.344.06 2.541.06v2.472H7.133v-2.471c1.72 0 2.988-.082 3.808-.247 1.66-.35 2.706-1.316 3.136-2.902.224-.822.338-2.067.338-3.734v-32.3c-3.634.102-6.477 1.305-8.53 3.612-1.949 2.206-3.137 5.584-3.57 10.134L0 15.448.43 0h34.826l.433 15.448-2.319.4c-.43-4.55-1.63-7.928-3.587-10.134-2.062-2.307-4.918-3.51-8.565-3.613v32.3c0 2.821.412 4.652 1.238 5.496zM.042 20.137h8.89v8.89H.043v-8.89z" fill="#656868" fill-rule="nonzero"/></svg>