<?xml version="1.0" encoding="UTF-8"?>
<svg width="289px" height="142px" viewBox="0 0 289 142" version="1.1" xmlns="http://www.w3.org/2000/svg" xmlns:xlink="http://www.w3.org/1999/xlink">
    <!-- Generator: Sketch 63.1 (92452) - https://sketch.com -->
    <title>Telekom_Logo_2013</title>
    <desc>Created with Sketch.</desc>
    <g id="Final-Design" stroke="none" stroke-width="1" fill="none" fill-rule="evenodd">
        <g id="Telekom_Logo_2013" fill="#E2007A" fill-rule="nonzero">
            <path d="M260.08453,65.28776 L288.90926,65.28776 L288.90926,94.11249 L260.08453,94.11249 L260.08453,65.28776 Z M173.61518,65.28776 L202.43508,65.28776 L202.43508,94.11249 L173.61518,94.11249 L173.61518,65.28776 Z M87.141,65.28776 L115.96573,65.28776 L115.96573,94.11249 L87.141,94.11249 L87.141,65.28776 Z M68.79296,111.53645 C68.79296,120.68058 70.12748,126.61608 72.80616,129.35257 C75.07051,131.68437 78.92953,133.12007 84.3399,133.65484 C85.94423,133.78981 88.69517,133.85218 92.5783,133.85218 L92.5783,141.86413 L23.1253,141.86413 L23.1253,133.85218 C28.70428,133.85218 32.81383,133.58739 35.47326,133.05242 C40.85469,131.92025 44.24641,128.78388 45.63874,123.64333 C46.36623,120.97908 46.7372,116.9418 46.7372,111.53627 L46.7372,6.81232 C34.95293,7.14495 25.73655,11.04714 19.08319,18.52433 C12.76228,25.6787 8.90806,36.62951 7.50609,51.38152 L5.68434189e-14,50.08554 L1.39715,-5.68434189e-14 L114.30644,-5.68434189e-14 L115.7084,50.08554 L108.19267,51.38152 C106.79554,36.62951 102.90759,25.6787 96.56259,18.52433 C89.87553,11.04714 80.61578,7.14476 68.79296,6.81232 L68.79296,111.53627 L68.79296,111.53645 Z M0.13686,65.28776 L28.96159,65.28776 L28.96159,94.11249 L0.13686,94.11249 L0.13686,65.28776 Z" id="path108"></path>
        </g>
    </g>
</svg>