<svg width="226" height="30" xmlns="http://www.w3.org/2000/svg"><path d="M33.922.148L29.495 18.02h.08c1.992-5.565 5.16-8.732 8.41-8.732 1.99 0 3.25 1.259 3.25 3.126 0 1.301-.65 3.332-1.097 4.754l-1.95 6.175c-.365 1.136-.65 2.193-.65 2.884 0 .812.366 1.218 1.016 1.218.69 0 1.38-.446 2.07-1.462 1.058-1.583 1.626-3.9 1.91-5.484h.081c-.527 5.97-3.656 9.22-6.458 9.22-1.381 0-2.479-.77-2.479-2.64 0-1.218.489-2.762.975-4.265l2.073-6.458c.446-1.383.771-2.722.771-3.493 0-.894-.568-1.423-1.38-1.423-1.87 0-3.616 1.666-4.835 3.819-1.177 2.072-2.762 6.215-4.55 14.137h-3.574L29.576 3.03c.163-.65.122-.73-.365-.894L25.636.878v-.08l8.286-.65zm21.452 9.14c2.884 0 4.916 1.664 4.916 3.898 0 4.062-5.525 6.704-10.197 6.704-.568 0-1.177-.041-1.706-.123a12.75 12.75 0 00-.162 2.112c0 3.17 1.3 5.404 4.143 5.404 2.56 0 5.687-2.153 6.703-7.11h.081c-.975 7.394-4.955 9.547-8.286 9.547-3.494 0-6.541-2.56-6.541-7.556 0-6.338 5.037-12.876 11.049-12.876zm59.523-2.971l.452.006c2.095.058 3.98.526 5.66 1.397l.334.18c1.645.925 2.95 2.219 3.915 3.883l.186.336c.904 1.697 1.356 3.65 1.356 5.859l-.006.443c-.06 2.199-.572 4.122-1.536 5.773l-.198.326a10.45 10.45 0 01-4.05 3.737l-.363.183c-1.71.827-3.626 1.239-5.75 1.239l-.452-.007c-2.095-.058-3.99-.53-5.683-1.415l-.336-.183a10.425 10.425 0 01-3.93-3.88l-.188-.334c-.905-1.687-1.356-3.647-1.356-5.882l.006-.444c.06-2.198.571-4.122 1.537-5.77l.198-.326a10.289 10.289 0 014.069-3.718c1.814-.933 3.86-1.403 6.135-1.403zm54.24 0l.45.006c2.09.057 3.945.516 5.562 1.376l.342.19a9.829 9.829 0 013.701 3.75l.186.346c.838 1.626 1.257 3.489 1.257 5.586l-.008.348c-.022.474-.087.98-.196 1.523h-15.073l.017.253c.194 2.404 1.313 3.606 3.355 3.606l.257-.007c.67-.038 1.235-.225 1.693-.562l.165-.131c.425-.361.722-.818.893-1.373h8.45l-.076.366a9.66 9.66 0 01-1.917 3.962l-.242.292c-.988 1.148-2.205 2.059-3.658 2.735l-.365.162c-1.47.623-3.068.934-4.794.934l-.451-.006c-2.09-.059-3.951-.523-5.581-1.396l-.323-.18c-1.593-.925-2.847-2.22-3.762-3.882l-.177-.336c-.857-1.699-1.284-3.666-1.284-5.901l.005-.444c.057-2.198.542-4.122 1.456-5.77l.187-.326a9.886 9.886 0 013.917-3.718c1.76-.933 3.764-1.403 6.013-1.403zm25.514 0l.452.006c2.09.057 3.944.516 5.56 1.376l.342.19a9.837 9.837 0 013.702 3.75l.185.346c.837 1.626 1.257 3.489 1.257 5.586l-.008.348c-.021.474-.086.98-.195 1.523h-15.073l.016.253c.195 2.404 1.313 3.606 3.355 3.606l.257-.007c.672-.038 1.237-.225 1.694-.562l.165-.131a2.84 2.84 0 00.891-1.373h8.451l-.075.366a9.694 9.694 0 01-1.915 3.962l-.243.292c-.989 1.148-2.209 2.059-3.658 2.735l-.365.162c-1.472.623-3.07.934-4.795.934l-.451-.006c-2.091-.059-3.952-.523-5.583-1.396l-.323-.18c-1.592-.925-2.845-2.22-3.759-3.882l-.177-.336c-.858-1.699-1.288-3.666-1.288-5.901l.006-.444c.057-2.198.544-4.122 1.46-5.77l.187-.326a9.872 9.872 0 013.915-3.718c1.76-.933 3.765-1.403 6.013-1.403zm-48.997.082l.34.005c2.464.072 4.409.945 5.836 2.615l.19.232c1.362 1.725 2.043 4.023 2.043 6.9v13.244h-7.922V17.167l-.006-.28c-.045-1.195-.389-2.137-1.03-2.83l-.152-.154c-.673-.642-1.55-.963-2.632-.963l-.251.006c-1.074.051-1.939.434-2.593 1.151l-.145.17c-.608.757-.91 1.763-.91 3.021v12.107h-8.005V6.6h8.004v3.82l.155-.276c.642-1.09 1.54-1.973 2.69-2.649 1.246-.73 2.706-1.097 4.388-1.097zm-46.36.2v22.796h-8.003V6.6h8.004zM77.885.63l.413.005c3.265.067 5.775.94 7.531 2.616l.224.221c1.678 1.723 2.517 3.984 2.517 6.789l-.006.386c-.054 1.658-.458 3.156-1.212 4.49l-.168.282c-.81 1.302-1.964 2.338-3.468 3.11l-.327.159c-1.546.719-3.38 1.08-5.504 1.08h-3.94v9.628H65.94V.629h11.944zM225.45 6.4v8.532h-2.317l-.33.004c-1.624.04-2.854.385-3.692 1.031l-.153.128c-.792.707-1.188 1.863-1.188 3.468v9.833h-8.004V6.6h8.004v4.268l.228-.333a10.353 10.353 0 013.145-2.917c1.353-.814 2.788-1.22 4.307-1.22zM24.495.837l-1.95 9.263h-.08l-1.91-7.76c-.163-.65-.244-.772-.894-.772H15.03L9.749 26.593c-.082.445-.082.567.365.812l3.29 1.91v.08H1.016v-.08l4.103-1.91c.488-.245.61-.367.69-.812L11.09 1.568H6.46c-.65 0-.732.042-1.218.773L.08 10.1H0L1.95.837h22.545zm90.402 12.388l-.235.006c-1.006.054-1.849.458-2.528 1.212l-.141.167c-.637.805-.955 1.928-.955 3.368l.005.31c.045 1.42.409 2.507 1.09 3.265.733.814 1.654 1.22 2.764 1.22l.23-.006c.982-.055 1.813-.467 2.491-1.233l.142-.17c.638-.817.956-1.945.956-3.386l-.005-.304c-.045-1.395-.409-2.472-1.093-3.231l-.159-.168c-.702-.7-1.556-1.05-2.562-1.05zm-60.01-3.329c-2.844 0-5.647 4.957-6.46 9.505.245.041.53.041.773.041 4.143 0 7.271-2.842 7.271-6.905 0-1.748-.528-2.64-1.584-2.64zm114.25 2.678l-.26.007c-.939.045-1.712.341-2.321.887-.663.596-1.049 1.477-1.157 2.642h7.11v-.246c-.01-.525-.094-.989-.252-1.39l-.012-.029a2.657 2.657 0 00-.672-.977l-.165-.142c-.62-.501-1.378-.752-2.272-.752zm25.514 0l-.26.007c-.938.045-1.712.341-2.32.887-.663.596-1.05 1.477-1.156 2.642h7.108v-.246c-.02-1.043-.33-1.842-.935-2.396l-.165-.142c-.62-.501-1.378-.752-2.272-.752zM76.991 7.09h-3.047v6.378h3.047l.229-.003c2.176-.07 3.264-1.138 3.264-3.205l-.003-.208c-.076-1.975-1.239-2.962-3.49-2.962z" fill="#656868" fill-rule="evenodd"/></svg>