<svg width="192" height="56" xmlns="http://www.w3.org/2000/svg"><path d="M46.06 12.352c11.202 0 15.665 6.022 16.27 12.193h-9.192c-.44-2.596-1.877-5.416-7.316-5.416-3.703 0-5.937 1.53-5.937 4.525 0 2.935 1.791 4.124 8.608 5.706 12.272 2.89 14.963 7.456 14.963 13.405 0 7.704-5.83 12.99-16.983 12.99-10.71 0-16.351-5.273-17.362-12.965h9.192c.962 4.237 4.002 6.094 8.885 6.094 4.87 0 6.954-1.923 6.954-5.012 0-3.434-2.035-4.925-9.25-6.604C33.408 34.573 30.57 30.396 30.57 24.7c0-7.354 5.5-12.348 15.49-12.348zm47.287 22.09c5.798 0 9.897 4.026 9.897 10.009 0 .701-.036 1.366-.147 2.068H87.548c.296 3.36 2.696 5.392 5.799 5.392 2.585 0 4.025-1.256 4.8-2.844h4.543c-1.145 3.545-4.357 6.389-9.343 6.389-5.835 0-10.156-4.136-10.156-10.525 0-6.39 4.136-10.49 10.156-10.49zm20.082 0c4.617 0 7.645 2.474 7.867 6.537h-4.21c-.149-1.773-1.515-2.992-3.804-2.992-2.253 0-3.435.924-3.435 2.29 0 4.1 11.486 1.81 11.707 9.159 0 3.435-2.991 6.02-7.792 6.02-4.875 0-8.31-2.88-8.495-6.574h4.358c.148 1.662 1.736 3.029 4.063 3.029 2.437 0 3.73-1.035 3.73-2.438 0-3.989-11.818-1.699-11.818-9.16 0-3.249 3.028-5.871 7.83-5.871zm31.812 0c3.435 0 5.799 1.625 7.054 3.287v-2.955h4.247v20.35h-4.247v-3.029c-1.292 1.736-3.73 3.36-7.127 3.36-5.282 0-9.529-4.32-9.529-10.598 0-6.279 4.247-10.415 9.602-10.415zm36.724 0c5.798 0 9.897 4.026 9.897 10.009 0 .701-.036 1.366-.147 2.068h-15.549c.296 3.36 2.696 5.392 5.799 5.392 2.585 0 4.026-1.256 4.8-2.844h4.543c-1.145 3.545-4.358 6.389-9.343 6.389-5.835 0-10.156-4.136-10.156-10.525 0-6.39 4.136-10.49 10.156-10.49zm-52.287-3.98l.108 4.312h4.949v3.435h-4.95v11.264c0 1.515.592 2.142 2.364 2.142h2.586v3.509h-3.324c-3.62 0-5.872-1.514-5.872-5.65V38.208h-2.401v-3.435h2.4l-.107-4.313h4.247zm36.17 0l.108 4.312h4.948v3.435h-4.948v11.264c0 1.515.59 2.142 2.363 2.142h2.585v3.509h-3.323c-3.62 0-5.873-1.514-5.873-5.65V38.208h-2.4v-3.435h2.4l-.108-4.313h4.248zm-19.72 7.636c-3.14 0-6.168 2.364-6.168 6.759 0 4.394 3.029 6.943 6.168 6.943 3.176 0 6.167-2.474 6.167-6.87 0-4.358-2.991-6.832-6.167-6.832zm-52.966-.11c-2.844 0-5.134 1.92-5.577 5.133H98.85c-.074-3.14-2.548-5.134-5.688-5.134zm88.618 0c-2.844 0-5.133 1.92-5.577 5.133h11.264c-.073-3.14-2.548-5.134-5.687-5.134zM9.113.225c3.307 6.459 7.268 12.621 9.404 17.271C20.38 13.011 25.399 6.427 28.635.226h9.07L23.372 24.354c-.18.303-.351.496-.351 1.369V43.03h-9.264V25.864c0-.482-.069-.916-.357-1.376L0 .226h9.113zm97.07 3.89c5.799 0 9.898 4.027 9.898 10.01 0 .701-.036 1.366-.147 2.068h-15.549c.296 3.36 2.696 5.392 5.799 5.392 2.585 0 4.026-1.256 4.8-2.844h4.543c-1.144 3.545-4.358 6.39-9.343 6.39-5.836 0-10.156-4.137-10.156-10.526 0-6.39 4.136-10.49 10.156-10.49zm21.597 0c3.435 0 5.799 1.626 7.054 3.288V4.449h4.247V24.8h-4.247V21.77c-1.293 1.736-3.73 3.361-7.128 3.361-5.28 0-9.528-4.32-9.528-10.6 0-6.278 4.247-10.414 9.602-10.414zm-32.882 0v4.359h-1.071c-3.102 0-5.023 1.293-5.023 5.614v10.71h-4.21V4.449h4.21v2.955c1.182-2.032 3.213-3.287 6.094-3.287zM147.244.253l.001 24.547h-4.21V.252h4.21zm-18.578 7.521c-3.139 0-6.167 2.364-6.167 6.759 0 4.394 3.028 6.943 6.167 6.943 3.176 0 6.168-2.474 6.168-6.87 0-4.358-2.992-6.832-6.168-6.832zM106 7.663c-2.844 0-5.134 1.92-5.577 5.133h11.264c-.073-3.14-2.548-5.134-5.687-5.134z" fill="#656868" fill-rule="evenodd"/></svg>